{"glyphs":{"0":{"ha":874,"x_min":0,"x_max":0,"o":"m 76 678 b 438 1007 76 882 210 1007 b 797 678 664 1007 797 882 l 797 308 b 438 -21 797 104 664 -21 b 76 308 210 -21 76 104 m 663 678 b 438 882 663 807 581 882 b 211 678 293 882 211 807 l 211 308 b 438 104 211 181 293 104 b 663 308 581 104 663 181 "},"1":{"ha":614,"x_min":0,"x_max":0,"o":"m 479 986 b 515 950 507 986 515 976 l 515 36 b 479 0 515 10 507 0 l 418 0 b 382 36 390 0 382 10 l 382 824 l 133 686 b 79 699 110 671 92 675 l 51 747 b 68 797 40 768 46 785 l 376 971 b 428 986 392 981 410 986 "},"2":{"ha":825,"x_min":0,"x_max":0,"o":"m 81 779 b 442 1007 143 931 264 1007 b 679 918 540 1007 619 978 b 768 703 739 858 768 788 b 674 469 768 599 743 529 b 560 394 639 440 600 415 b 394 322 519 374 464 349 b 343 303 368 313 350 306 b 299 281 335 299 319 292 b 253 251 276 269 261 260 b 215 165 236 233 215 200 l 215 125 l 719 125 b 756 89 747 125 756 115 l 756 36 b 719 0 756 10 747 0 l 113 0 b 75 38 85 0 75 10 l 75 139 b 165 343 75 228 104 296 b 251 399 196 367 225 385 b 357 444 278 411 313 426 b 543 532 450 481 513 510 b 628 697 599 575 626 629 b 438 882 628 801 549 882 b 208 735 329 882 253 833 b 163 711 199 711 183 704 l 103 733 b 81 779 79 742 71 757 "},"3":{"ha":842,"x_min":0,"x_max":0,"o":"m 757 728 b 640 514 757 622 718 551 b 789 276 739 474 789 394 b 442 -21 789 93 671 -21 b 74 218 236 -21 128 58 b 97 265 67 242 74 257 l 154 286 b 201 263 178 293 193 286 b 442 104 239 151 297 104 b 649 278 579 104 649 163 b 482 442 649 383 592 442 l 306 442 b 269 478 278 442 269 450 l 269 526 b 306 563 269 554 278 563 l 463 563 b 624 715 564 563 624 625 b 439 882 624 826 563 882 b 210 726 301 882 247 836 b 163 704 200 700 189 697 l 106 725 b 82 771 82 732 75 747 b 442 1007 136 931 240 1007 b 757 728 643 1007 757 904 "},"4":{"ha":861,"x_min":0,"x_max":0,"o":"m 788 369 b 824 333 815 369 824 360 l 824 286 b 788 250 824 260 815 250 l 674 250 l 674 36 b 638 0 674 10 664 0 l 585 0 b 549 36 557 0 549 10 l 549 250 l 69 250 b 33 286 42 250 33 260 l 33 325 b 46 369 33 344 38 360 l 526 967 b 578 993 540 985 557 993 l 636 993 b 674 957 664 993 674 985 l 674 369 m 549 811 l 190 369 l 549 369 "},"5":{"ha":819,"x_min":0,"x_max":0,"o":"m 703 986 b 739 950 729 986 739 976 l 739 897 b 703 861 739 871 729 861 l 272 861 l 247 607 l 449 607 b 693 521 556 607 636 578 b 776 300 749 463 776 389 b 685 72 776 210 746 133 b 436 -21 624 10 540 -21 b 68 201 243 -21 121 53 b 89 249 60 225 67 240 l 149 269 b 194 247 171 278 186 271 b 435 104 229 151 310 104 b 636 300 557 104 636 182 b 442 482 636 410 563 482 l 143 482 b 104 526 114 482 101 497 l 146 932 b 207 986 150 972 164 986 "},"6":{"ha":871,"x_min":0,"x_max":0,"o":"m 210 561 b 454 597 285 585 367 597 b 807 289 689 597 807 494 b 442 -21 807 96 669 -21 b 75 336 204 -21 75 113 l 75 650 b 442 1007 75 878 204 1007 b 792 790 621 1007 738 935 b 769 744 801 769 793 754 l 713 724 b 667 746 690 715 675 722 b 442 882 629 836 554 882 b 210 651 290 882 210 803 m 210 335 b 442 104 210 186 290 104 b 672 289 590 104 672 171 b 446 472 672 413 606 472 b 210 431 340 472 261 458 "},"7":{"ha":733,"x_min":0,"x_max":0,"o":"m 678 986 b 714 950 704 986 714 976 l 714 913 b 703 861 714 894 710 876 l 333 32 b 267 0 321 4 311 0 l 207 0 b 189 36 185 0 179 13 l 560 861 l 71 861 b 35 897 44 861 35 871 l 35 950 b 71 986 35 976 44 986 "},"8":{"ha":863,"x_min":0,"x_max":0,"o":"m 93 739 b 431 1007 93 910 219 1007 b 769 749 653 1007 769 915 b 599 513 769 642 713 564 b 800 260 725 463 800 393 b 431 -21 800 86 685 -21 b 63 240 185 -21 63 67 b 263 496 63 356 129 442 b 93 739 156 547 93 617 m 639 738 b 431 890 639 838 564 890 b 228 738 301 890 228 838 b 289 619 228 683 246 646 b 432 564 332 593 365 581 l 476 553 b 572 601 515 565 528 572 b 639 738 615 629 639 676 m 660 257 b 628 351 660 297 650 329 b 576 390 610 368 604 378 b 507 418 547 403 544 407 b 469 429 489 422 476 426 b 382 450 460 432 392 447 b 199 253 260 415 199 349 b 431 96 199 149 276 96 b 660 257 593 96 660 153 "},"9":{"ha":871,"x_min":0,"x_max":0,"o":"m 661 425 b 417 389 586 401 504 389 b 64 697 182 389 64 492 b 429 1007 64 890 201 1007 b 794 650 667 1007 794 874 l 794 336 b 429 -21 794 108 667 -21 b 78 196 251 -21 135 51 b 101 242 69 217 78 232 l 158 263 b 204 240 185 272 193 267 b 429 104 242 150 317 104 b 661 335 581 104 661 183 m 661 651 b 429 882 661 800 579 882 b 197 697 281 882 197 815 b 425 514 197 574 265 514 b 661 556 531 514 610 528 "}," ":{"ha":317,"x_min":0,"x_max":0,"o":""},"!":{"ha":308,"x_min":0,"x_max":0,"o":"m 186 1028 b 219 994 213 1028 221 1018 l 204 289 b 171 256 203 263 194 256 l 138 256 b 104 289 114 256 106 263 l 90 994 b 124 1028 89 1018 97 1028 m 158 143 b 229 72 213 143 229 126 l 229 61 b 158 -8 229 7 213 -8 l 150 -8 b 79 61 96 -8 79 7 l 79 72 b 150 143 79 126 96 143 "},"\"":{"ha":443,"x_min":0,"x_max":0,"o":"m 182 674 b 149 646 181 650 175 646 l 115 646 b 85 674 89 646 85 650 l 85 957 b 115 986 85 981 89 986 l 167 986 b 197 957 190 986 199 981 m 353 674 b 321 646 351 650 347 646 l 286 646 b 256 674 260 646 256 650 l 256 957 b 286 986 256 981 260 986 l 338 986 b 368 957 364 986 369 981 "},"#":{"ha":964,"x_min":0,"x_max":0,"o":"m 903 681 b 928 647 926 681 933 674 l 913 597 b 869 567 907 576 893 567 l 739 567 l 679 365 l 810 365 b 835 332 836 365 842 356 l 819 282 b 775 251 810 258 801 251 l 644 251 l 579 33 b 538 0 572 11 558 0 l 483 0 b 458 33 460 0 451 11 l 524 251 l 329 251 l 264 33 b 221 0 257 11 243 0 l 167 0 b 143 33 144 0 136 11 l 208 251 l 81 251 b 56 283 57 251 49 263 l 71 335 b 115 365 76 356 92 365 l 243 365 l 303 567 l 174 567 b 149 599 150 567 142 578 l 164 650 b 208 681 169 671 185 681 l 336 681 l 397 883 b 439 917 404 906 418 917 l 493 917 b 518 883 517 917 525 906 l 456 681 l 651 681 l 713 883 b 754 917 719 906 733 917 l 808 917 b 833 883 832 917 840 906 l 772 681 m 424 567 l 363 365 l 558 365 l 618 567 "},"$":{"ha":821,"x_min":0,"x_max":0,"o":"m 451 1082 b 485 1049 475 1082 485 1072 l 485 969 b 758 767 624 953 697 890 b 738 714 769 743 763 725 l 685 690 b 635 710 661 679 647 683 b 417 846 586 804 532 846 b 217 697 279 846 217 799 b 313 583 217 632 254 600 b 442 561 357 571 385 567 b 626 526 521 554 558 549 b 706 482 660 514 686 500 b 778 294 744 447 778 382 b 485 19 778 138 675 38 l 485 -62 b 451 -96 485 -86 475 -96 l 393 -96 b 360 -62 369 -96 360 -86 l 360 18 b 69 242 219 32 122 107 b 93 292 60 265 68 282 l 146 311 b 196 288 174 321 185 315 b 421 139 236 188 300 139 b 643 292 569 139 643 190 b 547 411 638 361 610 393 b 417 433 501 424 476 428 b 232 471 339 440 299 447 b 153 515 199 483 172 497 b 81 697 113 550 81 614 b 360 969 81 854 176 953 l 360 1049 b 393 1082 360 1072 369 1082 "},"%":{"ha":1133,"x_min":0,"x_max":0,"o":"m 47 803 b 272 1008 47 931 128 1008 b 497 803 417 1008 497 931 l 497 701 b 272 499 497 575 417 499 b 47 701 128 499 47 575 m 954 986 b 971 951 978 986 986 969 l 296 32 b 224 0 275 3 268 0 l 182 0 b 163 38 154 0 147 17 l 839 956 b 906 986 857 983 867 986 m 392 797 b 272 908 392 868 350 908 b 151 797 192 908 151 871 l 151 708 b 272 597 151 638 194 597 b 392 708 350 597 392 638 m 635 282 b 860 488 635 410 715 488 b 1085 282 1004 488 1085 410 l 1085 182 b 860 -22 1085 54 1004 -22 b 635 182 715 -22 635 54 m 981 276 b 860 388 981 350 940 388 b 740 276 782 388 740 347 l 740 189 b 860 78 740 118 782 78 b 981 189 940 78 981 115 "},"&":{"ha":929,"x_min":0,"x_max":0,"o":"m 146 761 b 217 935 146 829 169 886 b 406 1007 263 983 326 1007 b 585 938 476 1007 536 983 b 657 769 633 892 657 835 b 453 513 657 647 596 578 l 439 506 l 653 293 l 744 382 b 789 382 758 397 774 397 l 831 339 b 828 300 843 326 842 313 l 733 207 l 906 33 b 890 0 925 11 919 0 l 813 0 b 763 21 792 0 775 7 l 653 129 b 490 10 589 69 535 31 b 340 -21 444 -11 394 -21 b 136 60 258 -21 190 6 b 56 263 82 113 56 181 b 254 539 56 396 131 478 b 146 761 182 615 146 689 m 540 768 b 406 897 540 839 482 897 b 264 760 321 897 264 836 b 360 590 264 699 293 657 l 401 611 b 540 768 500 657 540 689 m 335 453 b 182 260 231 407 182 349 b 347 97 182 167 254 97 b 572 217 424 97 478 129 "},"'":{"ha":272,"x_min":0,"x_max":0,"o":"m 182 674 b 149 646 181 650 175 646 l 115 646 b 85 674 89 646 85 650 l 85 957 b 115 986 85 981 89 986 l 167 986 b 197 957 190 986 199 981 "},"(":{"ha":375,"x_min":0,"x_max":0,"o":"m 79 847 b 275 1178 79 1019 143 1117 b 321 1157 299 1188 308 1181 l 343 1111 b 325 1067 353 1088 349 1079 b 201 857 242 1026 201 968 l 201 129 b 325 -81 201 18 242 -40 b 343 -125 349 -93 354 -103 l 321 -171 b 275 -192 308 -194 299 -201 b 79 139 143 -131 79 -33 "},")":{"ha":375,"x_min":0,"x_max":0,"o":"m 57 1157 b 103 1178 69 1181 79 1188 b 299 847 235 1117 299 1019 l 299 139 b 103 -192 299 -33 235 -131 b 57 -171 79 -201 69 -194 l 35 -125 b 53 -81 25 -101 29 -93 b 176 129 136 -40 176 18 l 176 857 b 53 1067 176 968 136 1026 b 35 1111 29 1079 25 1088 "},"*":{"ha":517,"x_min":0,"x_max":0,"o":"m 283 935 b 301 914 299 935 304 928 l 289 779 l 413 833 b 440 822 426 840 436 836 l 451 786 b 436 761 456 772 451 764 l 304 733 l 393 631 b 392 603 404 621 404 613 l 361 581 b 332 588 349 571 339 574 l 264 703 l 196 588 b 167 579 189 574 179 571 l 136 603 b 135 632 124 613 124 622 l 225 733 l 94 761 b 78 788 79 764 74 772 l 90 822 b 117 833 96 838 104 840 l 240 779 l 228 914 b 244 935 224 928 229 935 "},"+":{"ha":772,"x_min":0,"x_max":0,"o":"m 678 513 b 714 476 706 513 714 504 l 714 433 b 678 396 714 406 706 396 l 444 396 l 444 163 b 407 126 444 136 435 126 l 364 126 b 328 163 336 126 328 136 l 328 396 l 94 396 b 58 433 68 396 58 406 l 58 476 b 94 513 58 504 68 513 l 328 513 l 328 746 b 364 782 328 772 336 782 l 407 782 b 444 746 435 782 444 772 l 444 513 "},",":{"ha":276,"x_min":0,"x_max":0,"o":"m 126 -136 b 85 -169 119 -158 106 -169 l 63 -169 b 39 -143 40 -169 35 -164 l 81 99 b 126 139 85 131 94 139 l 174 139 b 208 99 207 139 218 125 "},"-":{"ha":579,"x_min":0,"x_max":0,"o":"m 460 428 b 497 392 488 428 497 419 l 497 344 b 460 308 497 317 488 308 l 119 308 b 83 344 92 308 83 317 l 83 392 b 119 428 83 419 92 428 "},".":{"ha":285,"x_min":0,"x_max":0,"o":"m 146 143 b 217 72 200 143 217 126 l 217 61 b 146 -8 217 7 200 -8 l 138 -8 b 67 61 83 -8 67 7 l 67 72 b 138 143 67 126 83 143 "},"/":{"ha":586,"x_min":0,"x_max":0,"o":"m 182 -53 b 138 -83 174 -74 158 -83 l 78 -83 b 56 -53 54 -83 47 -74 l 431 957 b 475 988 438 978 453 988 l 535 988 b 557 957 558 988 565 978 "},":":{"ha":315,"x_min":0,"x_max":0,"o":"m 163 682 b 232 611 217 682 232 665 l 232 600 b 163 531 232 549 217 531 l 153 531 b 83 600 101 531 83 549 l 83 611 b 153 682 83 665 99 682 m 163 143 b 232 72 214 143 232 126 l 232 61 b 163 -8 232 10 217 -8 l 153 -8 b 83 61 99 -8 83 7 l 83 72 b 153 143 83 126 101 143 "},";":{"ha":344,"x_min":0,"x_max":0,"o":"m 192 682 b 263 611 246 682 263 665 l 263 600 b 192 531 263 546 246 531 l 183 531 b 113 600 129 531 113 546 l 113 611 b 183 682 113 665 129 682 m 160 -136 b 118 -169 153 -158 139 -169 l 94 -169 b 72 -143 74 -169 68 -164 l 114 99 b 158 139 118 131 126 139 l 207 139 b 240 99 239 139 250 125 "},"<":{"ha":681,"x_min":0,"x_max":0,"o":"m 561 781 b 600 753 588 794 600 785 l 600 706 b 567 646 600 668 594 661 l 201 457 l 201 451 l 565 265 b 600 204 594 250 600 243 l 600 153 b 561 125 600 121 588 111 l 75 390 b 44 435 54 400 44 415 l 44 471 b 75 517 44 490 54 506 "},"=":{"ha":824,"x_min":0,"x_max":0,"o":"m 703 651 b 740 615 731 651 740 642 l 740 567 b 703 531 740 539 731 531 l 121 531 b 85 567 93 531 85 539 l 85 615 b 121 651 85 642 93 651 m 703 376 b 740 340 731 376 740 368 l 740 293 b 703 257 740 265 731 257 l 121 257 b 85 293 93 257 85 265 l 85 340 b 121 376 85 368 93 376 "},">":{"ha":681,"x_min":0,"x_max":0,"o":"m 81 754 b 119 781 81 786 93 796 l 606 517 b 636 471 629 504 636 494 l 636 436 b 606 390 636 415 626 400 l 119 126 b 81 154 90 111 81 121 l 81 200 b 114 260 81 239 86 247 l 479 449 l 479 454 l 115 642 b 81 701 86 657 81 663 "},"?":{"ha":782,"x_min":0,"x_max":0,"o":"m 49 797 b 404 1026 107 950 225 1026 b 650 946 508 1026 590 1000 b 740 740 710 892 740 822 b 721 615 740 692 729 646 b 667 529 713 585 678 544 b 597 469 658 517 601 472 b 558 444 593 465 579 457 b 524 424 536 432 525 425 b 417 269 456 379 417 340 b 382 235 417 242 408 235 l 339 235 b 304 269 313 235 304 242 b 449 510 304 392 356 449 b 557 593 506 547 542 575 b 608 735 592 632 608 679 b 401 908 608 836 533 908 b 168 756 278 908 211 856 b 122 733 157 729 149 724 l 71 751 b 49 797 43 761 38 771 m 365 143 b 436 72 419 143 436 126 l 436 61 b 365 -8 436 7 419 -8 l 357 -8 b 286 61 303 -8 286 7 l 286 72 b 357 143 286 126 303 143 "},"@":{"ha":1251,"x_min":0,"x_max":0,"o":"m 64 457 b 211 860 64 626 113 761 b 622 1007 308 958 446 1007 b 1038 858 801 1007 940 957 b 1183 457 1135 760 1183 625 l 1183 356 b 1115 138 1183 263 1161 189 b 944 60 1069 86 1013 60 b 836 115 888 60 864 75 b 585 71 754 86 669 71 b 343 301 424 71 343 153 l 343 508 b 585 740 343 657 424 740 b 836 699 682 740 765 726 b 883 632 874 683 883 671 l 883 208 b 946 151 883 171 904 151 b 1085 353 1024 151 1085 215 l 1085 458 b 622 918 1085 743 921 918 b 163 458 329 918 163 747 l 163 353 b 622 -96 163 64 326 -96 b 922 -60 697 -96 797 -83 b 942 -71 935 -56 942 -60 l 942 -119 b 922 -147 942 -135 935 -143 b 622 -183 826 -171 726 -183 b 64 356 265 -183 64 15 m 760 621 b 599 643 719 636 667 643 b 449 506 499 643 449 597 l 449 304 b 599 167 449 213 499 167 b 778 200 664 167 724 178 l 778 596 b 760 621 778 608 772 617 "},"A":{"ha":901,"x_min":0,"x_max":0,"o":"m 897 36 b 872 0 906 13 897 0 l 818 0 b 751 32 774 0 761 6 l 665 258 l 254 258 l 168 32 b 101 0 158 6 146 0 l 53 0 b 28 36 28 0 19 13 l 389 958 b 435 989 396 979 411 989 l 490 989 b 536 960 514 989 529 979 m 489 733 b 464 864 472 782 464 826 l 456 864 l 454 844 b 432 735 453 821 444 772 l 292 368 l 628 368 "},"B":{"ha":899,"x_min":0,"x_max":0,"o":"m 528 986 b 804 731 701 986 804 896 b 685 514 804 625 764 553 l 685 510 b 840 268 789 479 840 399 b 540 0 840 97 722 0 l 139 0 b 103 36 113 0 103 10 l 103 950 b 139 986 103 976 113 986 m 667 711 b 513 861 667 811 615 861 l 238 861 l 238 563 l 513 563 b 667 711 615 563 667 613 m 697 282 b 536 440 697 383 640 440 l 238 440 l 238 125 l 536 125 b 697 282 643 125 697 178 "},"C":{"ha":886,"x_min":0,"x_max":0,"o":"m 74 651 b 463 1007 74 874 214 1007 b 836 771 660 1007 785 928 b 813 724 843 747 836 732 l 756 704 b 708 726 729 694 718 700 b 463 882 674 832 600 882 b 208 653 297 882 208 799 l 208 333 b 463 104 208 189 300 104 b 710 263 601 104 675 156 b 757 286 719 290 731 296 l 814 265 b 838 218 838 258 846 242 b 463 -21 786 58 661 -21 b 74 335 214 -21 74 113 "},"D":{"ha":915,"x_min":0,"x_max":0,"o":"m 442 986 b 844 619 697 986 844 847 l 844 367 b 442 0 844 139 697 0 l 139 0 b 103 36 113 0 103 10 l 103 950 b 139 986 103 976 113 986 m 710 621 b 442 861 710 775 614 861 l 238 861 l 238 125 l 442 125 b 710 365 614 125 710 211 "},"E":{"ha":800,"x_min":0,"x_max":0,"o":"m 697 986 b 733 950 725 986 733 976 l 733 897 b 697 861 733 871 725 861 l 238 861 l 238 563 l 633 563 b 669 525 661 563 669 553 l 669 474 b 633 438 669 446 661 438 l 238 438 l 238 125 l 714 125 b 750 89 742 125 750 115 l 750 36 b 714 0 750 10 742 0 l 139 0 b 103 36 113 0 103 10 l 103 950 b 139 986 103 976 113 986 "},"F":{"ha":776,"x_min":0,"x_max":0,"o":"m 697 986 b 733 950 725 986 733 976 l 733 897 b 697 861 733 871 725 861 l 238 861 l 238 549 l 629 549 b 665 513 657 549 665 539 l 665 460 b 629 424 665 432 657 424 l 238 424 l 238 36 b 200 0 238 10 228 0 l 139 0 b 103 36 113 0 103 10 l 103 950 b 139 986 103 976 113 986 "},"G":{"ha":914,"x_min":0,"x_max":0,"o":"m 814 525 b 851 488 842 525 851 515 l 851 310 b 463 -21 851 110 708 -21 b 74 335 214 -21 74 113 l 74 651 b 463 1007 74 874 214 1007 b 836 771 660 1007 785 928 b 813 724 843 747 836 732 l 756 704 b 708 726 729 694 718 700 b 463 882 674 832 600 882 b 208 653 297 882 208 799 l 208 335 b 463 104 208 189 300 104 b 718 310 624 104 718 186 l 718 400 l 478 400 b 442 436 450 400 442 408 l 442 489 b 478 525 442 515 450 525 "},"H":{"ha":949,"x_min":0,"x_max":0,"o":"m 810 986 b 846 950 838 986 846 976 l 846 36 b 810 0 846 10 838 0 l 749 0 b 713 36 721 0 713 10 l 713 438 l 238 438 l 238 36 b 200 0 238 10 228 0 l 139 0 b 103 36 113 0 103 10 l 103 950 b 139 986 103 976 113 986 l 200 986 b 238 950 228 986 238 976 l 238 563 l 713 563 l 713 950 b 749 986 713 976 721 986 "},"I":{"ha":340,"x_min":0,"x_max":0,"o":"m 103 950 b 139 986 103 976 113 986 l 200 986 b 238 950 228 986 238 976 l 238 36 b 200 0 238 10 228 0 l 139 0 b 103 36 113 0 103 10 "},"J":{"ha":797,"x_min":0,"x_max":0,"o":"m 676 986 b 711 950 703 986 711 976 l 711 317 b 368 -21 711 106 590 -21 b 36 226 192 -21 82 61 b 58 274 29 250 36 265 l 117 294 b 164 271 140 301 156 294 b 368 104 193 160 253 104 b 578 315 506 104 578 181 l 578 950 b 614 986 578 976 586 986 "},"K":{"ha":857,"x_min":0,"x_max":0,"o":"m 831 38 b 811 0 843 13 838 0 l 750 0 b 678 32 706 0 690 6 l 531 329 b 346 439 488 413 447 439 l 238 439 l 238 36 b 200 0 238 10 228 0 l 139 0 b 103 36 113 0 103 10 l 103 950 b 139 986 103 976 113 986 l 200 986 b 238 950 228 986 238 976 l 238 561 l 335 561 l 360 561 l 656 956 b 729 986 676 982 686 986 l 797 986 b 815 951 821 986 831 968 l 494 535 b 654 378 560 513 614 460 "},"L":{"ha":729,"x_min":0,"x_max":0,"o":"m 200 986 b 238 950 228 986 238 976 l 238 125 l 674 125 b 711 89 701 125 711 115 l 711 36 b 674 0 711 10 701 0 l 139 0 b 103 36 113 0 103 10 l 103 950 b 139 986 103 976 113 986 "},"M":{"ha":1118,"x_min":0,"x_max":0,"o":"m 979 986 b 1015 950 1006 986 1015 976 l 1015 36 b 979 0 1015 10 1006 0 l 924 0 b 888 36 896 0 888 10 l 888 538 b 913 799 888 614 896 701 l 906 799 b 794 565 879 726 842 649 l 618 251 b 575 225 608 233 593 225 l 540 225 b 497 251 522 225 507 233 l 318 568 b 214 799 278 638 243 714 l 206 799 b 228 538 221 711 228 624 l 228 36 b 192 0 228 10 219 0 l 139 0 b 103 36 113 0 103 10 l 103 950 b 139 986 103 976 113 986 l 188 986 b 239 958 217 986 226 981 l 558 390 l 876 957 b 926 986 889 981 897 986 "},"N":{"ha":963,"x_min":0,"x_max":0,"o":"m 824 986 b 860 950 850 986 860 976 l 860 36 b 824 0 860 10 850 0 l 763 0 b 725 18 746 0 733 6 l 329 594 b 258 725 307 628 283 671 l 217 808 l 210 808 b 222 713 210 807 214 775 b 233 550 229 650 233 596 l 233 36 b 196 0 233 10 224 0 l 139 0 b 103 36 113 0 103 10 l 103 950 b 139 986 103 976 113 986 l 200 986 b 236 968 217 986 229 981 l 626 401 b 704 265 651 364 678 319 b 746 179 731 211 744 182 l 753 179 b 742 279 753 182 749 215 b 731 447 735 342 731 399 l 731 950 b 767 986 731 976 739 986 "},"O":{"ha":925,"x_min":0,"x_max":0,"o":"m 74 651 b 463 1007 74 874 214 1007 b 851 651 711 1007 851 874 l 851 335 b 463 -21 851 113 711 -21 b 74 335 214 -21 74 113 m 717 651 b 463 882 717 800 625 882 b 208 651 300 882 208 800 l 208 335 b 463 104 208 186 300 104 b 717 335 625 104 717 186 "},"P":{"ha":871,"x_min":0,"x_max":0,"o":"m 510 986 b 829 671 706 986 829 867 b 510 358 829 476 708 358 l 238 358 l 238 36 b 200 0 238 10 228 0 l 139 0 b 103 36 113 0 103 10 l 103 950 b 139 986 103 976 113 986 m 497 483 b 689 671 618 483 689 553 b 497 861 689 789 618 861 l 238 861 l 238 483 "},"Q":{"ha":943,"x_min":0,"x_max":0,"o":"m 865 -4 b 861 -57 881 -24 879 -42 l 821 -90 b 769 -86 801 -106 785 -104 l 674 26 b 463 -21 618 -6 547 -21 b 74 335 214 -21 74 113 l 74 651 b 463 1007 74 874 214 1007 b 851 651 711 1007 851 874 l 851 335 b 775 101 851 239 826 161 m 208 335 b 463 104 208 186 300 104 b 717 335 625 104 717 186 l 717 651 b 463 882 717 800 625 882 b 208 651 300 882 208 800 "},"R":{"ha":899,"x_min":0,"x_max":0,"o":"m 529 986 b 829 690 717 986 829 878 b 625 414 829 542 754 443 b 694 336 650 400 674 374 l 849 38 b 829 0 861 13 856 0 l 768 0 b 696 32 722 0 708 6 l 569 286 b 386 396 529 369 488 396 l 238 396 l 238 36 b 200 0 238 10 228 0 l 139 0 b 103 36 113 0 103 10 l 103 950 b 139 986 103 976 113 986 m 689 690 b 517 861 689 800 626 861 l 238 861 l 238 521 l 517 521 b 689 690 626 521 689 583 "},"S":{"ha":874,"x_min":0,"x_max":0,"o":"m 71 713 b 440 1007 71 890 206 1007 b 804 794 629 1007 733 940 b 785 746 815 772 808 756 l 726 719 b 679 738 700 708 692 711 b 440 878 629 833 563 878 b 208 721 286 878 208 825 b 322 589 208 647 253 610 b 475 561 374 572 408 568 b 668 519 554 551 600 546 b 750 471 703 506 729 489 b 824 281 790 433 824 368 b 439 -21 824 93 685 -21 b 60 217 235 -21 122 56 b 83 264 50 243 56 254 l 140 285 b 188 263 164 294 176 289 b 439 106 233 158 317 106 b 689 278 606 106 689 163 b 613 396 689 335 664 374 b 443 433 561 417 521 424 b 272 463 371 440 338 446 b 192 493 239 469 213 481 b 71 713 128 528 65 596 "},"T":{"ha":769,"x_min":0,"x_max":0,"o":"m 714 986 b 750 950 740 986 750 976 l 750 897 b 714 861 750 871 740 861 l 451 861 l 451 36 b 415 0 451 10 443 0 l 354 0 b 318 36 326 0 318 10 l 318 861 l 56 861 b 19 897 28 861 19 871 l 19 950 b 56 986 19 976 28 986 "},"U":{"ha":951,"x_min":0,"x_max":0,"o":"m 229 336 b 475 104 229 190 314 104 b 721 336 636 104 721 190 l 721 950 b 758 986 721 976 731 986 l 819 986 b 856 950 846 986 856 976 l 856 338 b 475 -21 856 115 724 -21 b 96 338 229 -21 96 115 l 96 950 b 132 986 96 976 104 986 l 193 986 b 229 950 221 986 229 976 "},"V":{"ha":875,"x_min":0,"x_max":0,"o":"m 847 986 b 871 950 874 986 881 974 l 524 31 b 479 0 517 10 503 0 l 422 0 b 376 29 399 0 383 10 l 29 950 b 54 986 21 974 29 986 l 108 986 b 174 954 153 986 164 981 l 415 288 b 450 160 432 239 449 161 l 456 160 b 490 286 457 163 474 239 l 729 954 b 796 986 739 981 751 986 "},"W":{"ha":1236,"x_min":0,"x_max":0,"o":"m 1185 986 b 1210 950 1211 986 1215 976 l 969 31 b 924 0 964 7 951 0 l 865 0 b 819 29 839 0 824 10 l 653 647 b 628 792 640 693 632 742 l 619 792 b 593 647 615 743 607 696 l 425 31 b 379 0 419 10 404 0 l 321 0 b 275 29 294 0 279 10 l 36 950 b 60 986 29 976 33 986 l 133 986 b 182 954 165 986 176 981 l 326 353 b 350 186 335 311 343 256 l 357 186 b 386 351 368 267 378 322 l 550 943 b 599 975 557 964 572 975 l 657 975 b 706 943 683 975 700 964 l 868 351 b 897 186 882 297 892 243 l 904 186 b 929 350 911 257 919 311 l 1072 954 b 1121 986 1078 981 1089 986 "},"X":{"ha":871,"x_min":0,"x_max":0,"o":"m 850 38 b 832 0 867 19 860 0 l 757 0 b 686 32 714 0 704 4 l 433 399 l 188 32 b 117 0 169 3 161 0 l 47 0 b 29 38 21 0 14 17 l 354 501 l 40 951 b 58 986 25 968 35 986 l 131 986 b 201 956 174 986 181 982 l 440 608 l 679 956 b 746 986 700 982 707 986 l 821 986 b 839 951 844 986 851 968 l 524 503 "},"Y":{"ha":881,"x_min":0,"x_max":0,"o":"m 844 986 b 864 950 871 986 878 974 l 511 394 l 511 36 b 475 0 511 10 503 0 l 414 0 b 378 36 386 0 378 10 l 378 397 l 25 950 b 44 986 13 968 18 986 l 119 986 b 190 954 164 986 174 983 l 446 533 l 704 954 b 775 986 721 983 729 986 "},"Z":{"ha":800,"x_min":0,"x_max":0,"o":"m 708 986 b 744 950 735 986 744 976 l 744 899 b 732 860 744 882 740 869 l 214 125 l 719 125 b 756 89 747 125 756 117 l 756 36 b 719 0 756 10 747 0 l 83 0 b 46 36 56 0 46 10 l 46 88 b 60 128 46 103 50 115 l 576 861 l 89 861 b 53 897 63 861 53 871 l 53 950 b 89 986 53 976 63 986 "},"[":{"ha":397,"x_min":0,"x_max":0,"o":"m 339 1189 b 371 1157 367 1189 371 1185 l 371 1110 b 339 1078 371 1082 367 1078 l 208 1078 l 208 -90 l 339 -90 b 371 -122 367 -90 371 -96 l 371 -171 b 339 -203 371 -199 367 -203 l 124 -203 b 90 -169 96 -203 90 -197 l 90 1156 b 124 1189 90 1183 96 1189 "},"\\":{"ha":586,"x_min":0,"x_max":0,"o":"m 51 956 b 74 986 44 976 53 986 l 135 986 b 179 956 156 986 171 976 l 554 -53 b 532 -83 563 -74 556 -83 l 471 -83 b 426 -53 450 -83 435 -74 "},"]":{"ha":397,"x_min":0,"x_max":0,"o":"m 274 1189 b 307 1156 301 1189 307 1183 l 307 -169 b 274 -203 307 -197 301 -203 l 58 -203 b 26 -171 31 -203 26 -199 l 26 -122 b 58 -90 26 -96 31 -90 l 189 -90 l 189 1078 l 58 1078 b 26 1110 31 1078 26 1082 l 26 1157 b 58 1189 26 1185 31 1189 "},"^":{"ha":819,"x_min":0,"x_max":0,"o":"m 458 1125 b 485 1117 469 1125 476 1124 b 503 1096 493 1110 490 1113 l 779 761 b 761 722 800 735 794 722 l 706 722 b 640 751 667 722 663 725 l 442 1000 l 436 1000 l 239 751 b 172 722 217 725 211 722 l 122 722 b 104 761 89 722 83 735 l 376 1096 b 424 1125 393 1115 408 1125 "},"_":{"ha":696,"x_min":0,"x_max":0,"o":"m 625 0 b 663 -36 653 0 663 -10 l 663 -83 b 625 -119 663 -111 653 -119 l 71 -119 b 35 -83 43 -119 35 -111 l 35 -36 b 71 0 35 -10 43 0 "},"`":{"ha":357,"x_min":0,"x_max":0,"o":"m 82 1008 b 144 1010 96 1025 117 1025 l 360 879 b 361 843 374 871 374 858 l 346 822 b 303 821 339 813 324 813 l 60 936 b 56 975 42 944 40 957 "},"a":{"ha":717,"x_min":0,"x_max":0,"o":"m 72 592 b 354 738 122 689 217 738 b 642 457 564 738 642 631 l 642 94 b 592 15 642 46 631 32 b 353 -21 536 -8 457 -21 b 114 33 238 -21 157 -3 b 49 200 71 68 49 124 b 358 418 49 361 135 418 b 517 408 408 418 461 415 l 517 461 b 351 626 517 568 474 626 b 179 542 271 626 214 599 b 133 525 163 519 160 515 l 90 544 b 72 592 67 554 61 569 m 517 306 b 344 317 443 313 385 317 b 174 200 217 317 174 282 b 342 83 174 121 213 83 b 496 100 413 83 464 89 b 517 131 510 106 517 115 "},"b":{"ha":749,"x_min":0,"x_max":0,"o":"m 175 1028 b 208 994 201 1028 208 1021 l 208 703 b 404 738 281 726 346 738 b 685 463 593 738 685 639 l 685 268 b 379 -21 685 75 583 -21 b 136 22 286 -21 204 -7 b 85 99 92 43 85 54 l 85 994 b 117 1028 85 1018 93 1028 m 560 458 b 386 624 560 568 501 624 b 208 588 332 624 272 611 l 208 142 b 228 115 208 129 215 119 b 371 93 268 100 317 93 b 560 272 497 93 560 153 "},"c":{"ha":717,"x_min":0,"x_max":0,"o":"m 63 458 b 374 738 63 635 167 738 b 667 551 531 738 628 675 b 644 504 675 528 668 513 l 596 489 b 549 511 574 479 558 486 b 368 628 524 589 464 628 b 188 464 250 628 188 568 l 188 254 b 368 89 188 150 250 89 b 550 210 464 89 524 129 b 597 232 561 236 571 242 l 646 218 b 669 171 669 208 678 193 b 365 -21 624 43 522 -21 b 63 260 164 -21 63 82 "},"d":{"ha":749,"x_min":0,"x_max":0,"o":"m 64 454 b 346 738 64 638 158 738 b 540 707 400 738 464 728 l 540 994 b 574 1028 540 1021 550 1028 l 632 1028 b 664 994 656 1028 664 1018 l 664 99 b 610 22 664 53 654 40 b 361 -21 535 -7 451 -21 b 64 258 163 -21 64 72 m 540 593 b 369 624 474 614 417 624 b 189 450 249 624 189 565 l 189 263 b 372 93 189 150 250 93 b 521 115 429 93 478 100 b 540 142 533 119 540 129 "},"e":{"ha":742,"x_min":0,"x_max":0,"o":"m 61 440 b 375 738 61 629 171 738 b 689 450 581 738 689 622 l 689 369 b 638 321 689 338 672 321 l 185 321 l 185 254 b 371 88 185 147 250 88 b 564 183 461 88 526 119 b 618 196 581 207 594 211 l 656 176 b 668 122 679 164 683 146 b 369 -21 614 26 514 -21 b 61 268 163 -21 61 90 m 565 457 b 375 632 565 568 499 632 b 185 457 251 632 185 567 l 185 417 l 565 417 "},"f":{"ha":501,"x_min":0,"x_max":0,"o":"m 456 1028 b 489 994 482 1028 489 1021 l 489 946 b 456 913 489 922 482 913 b 276 742 321 913 276 871 l 276 717 l 458 717 b 490 683 482 717 490 707 l 490 635 b 458 601 490 611 482 601 l 276 601 l 276 33 b 242 0 276 7 268 0 l 186 0 b 151 33 160 0 151 7 l 151 601 l 46 601 b 14 635 22 601 14 611 l 14 683 b 46 717 14 707 22 717 l 151 717 l 151 742 b 443 1028 151 938 239 1026 "},"g":{"ha":747,"x_min":0,"x_max":0,"o":"m 67 450 b 372 738 67 642 168 738 b 614 694 471 738 551 724 b 667 618 658 674 667 664 l 667 -35 b 368 -335 667 -235 567 -335 b 88 -193 233 -335 139 -287 b 100 -140 72 -169 76 -153 l 140 -118 b 194 -131 163 -106 181 -110 b 365 -224 231 -193 288 -224 b 542 -40 483 -224 542 -162 l 542 39 b 347 4 469 15 404 4 b 67 279 160 4 67 96 m 522 603 b 381 624 479 617 432 624 b 190 446 254 624 190 564 l 190 282 b 364 118 190 172 249 118 b 542 149 413 118 472 128 l 542 575 b 522 603 542 592 540 596 "},"h":{"ha":768,"x_min":0,"x_max":0,"o":"m 179 1028 b 211 994 203 1028 211 1018 l 211 707 b 406 738 254 728 318 738 b 688 463 593 738 688 646 l 688 33 b 654 0 688 7 678 0 l 597 0 b 564 33 571 0 564 7 l 564 458 b 389 624 564 568 506 624 b 211 592 313 624 254 613 l 211 33 b 179 0 211 10 203 0 l 121 0 b 88 33 97 0 88 7 l 88 994 b 121 1028 88 1021 97 1028 "},"i":{"ha":297,"x_min":0,"x_max":0,"o":"m 153 979 b 219 913 204 979 219 963 l 219 901 b 153 835 219 851 204 835 l 144 835 b 78 901 94 835 78 850 l 78 913 b 144 979 78 963 94 979 m 178 717 b 211 683 204 717 211 710 l 211 33 b 178 0 211 7 204 0 l 119 0 b 86 33 93 0 86 7 l 86 683 b 119 717 86 710 93 717 "},"j":{"ha":299,"x_min":0,"x_max":0,"o":"m 154 979 b 221 913 204 979 221 963 l 221 901 b 154 835 221 851 204 835 l 144 835 b 79 901 94 835 79 850 l 79 913 b 144 979 79 963 94 979 m 178 717 b 211 683 204 717 211 710 l 211 -11 b -90 -319 211 -212 119 -319 b -124 -286 -114 -319 -124 -312 l -124 -237 b -90 -204 -124 -214 -114 -204 b 88 -8 39 -204 88 -137 l 88 683 b 121 717 88 710 97 717 "},"k":{"ha":714,"x_min":0,"x_max":0,"o":"m 681 39 b 660 0 696 11 692 0 l 606 0 b 549 31 568 0 561 4 l 453 232 b 328 308 426 288 393 308 l 211 308 l 211 35 b 176 0 211 8 203 0 l 122 0 b 88 35 96 0 88 8 l 88 994 b 122 1028 88 1021 96 1028 l 176 1028 b 211 994 203 1028 211 1021 l 211 424 l 313 424 l 324 424 l 531 692 b 596 717 547 715 556 717 l 649 717 b 669 678 683 717 690 704 l 447 400 b 558 286 492 383 529 346 "},"l":{"ha":307,"x_min":0,"x_max":0,"o":"m 215 33 b 182 0 215 7 206 0 l 125 0 b 92 33 99 0 92 7 l 92 994 b 125 1028 92 1021 99 1028 l 182 1028 b 215 994 206 1028 215 1021 "},"m":{"ha":1142,"x_min":0,"x_max":0,"o":"m 550 685 b 797 738 636 719 718 738 b 1060 468 972 738 1060 647 l 1060 33 b 1028 0 1060 10 1051 0 l 969 0 b 936 33 943 0 936 7 l 936 464 b 781 624 936 571 885 624 b 617 586 729 624 675 611 b 638 468 631 557 638 518 l 638 33 b 606 0 638 10 629 0 l 547 0 b 514 33 521 0 514 7 l 514 464 b 356 624 514 571 461 624 b 225 601 310 624 267 617 b 208 572 214 594 208 585 l 208 33 b 175 0 208 7 201 0 l 117 0 b 85 33 93 0 85 10 l 85 613 b 138 692 85 657 94 674 b 372 738 208 722 286 738 b 550 685 449 738 507 719 "},"n":{"ha":765,"x_min":0,"x_max":0,"o":"m 138 690 b 403 738 214 722 303 738 b 685 463 590 738 685 646 l 685 33 b 651 0 685 7 675 0 l 593 0 b 560 33 569 0 560 7 l 560 458 b 386 624 560 568 501 624 b 225 599 331 624 276 615 b 208 574 214 594 208 586 l 208 33 b 175 0 208 7 201 0 l 117 0 b 85 33 93 0 85 10 l 85 613 b 138 690 85 657 94 672 "},"o":{"ha":751,"x_min":0,"x_max":0,"o":"m 64 471 b 375 738 64 638 181 738 b 688 471 574 738 688 638 l 688 244 b 375 -21 688 79 574 -21 b 64 244 181 -21 64 79 m 564 472 b 375 625 564 568 493 625 b 188 472 258 625 188 568 l 188 244 b 375 92 188 149 258 92 b 564 244 493 92 564 149 "},"p":{"ha":749,"x_min":0,"x_max":0,"o":"m 139 697 b 394 738 208 724 293 738 b 685 458 588 738 685 644 l 685 263 b 389 -21 685 74 586 -21 b 208 17 340 -21 281 -8 l 208 -272 b 175 -306 208 -299 201 -306 l 117 -306 b 85 -272 93 -306 85 -296 l 85 618 b 139 697 85 664 94 679 m 560 454 b 376 624 560 567 499 624 b 229 603 325 624 276 617 b 208 574 211 596 208 590 l 208 129 b 379 93 278 106 335 93 b 560 267 500 93 560 151 "},"q":{"ha":749,"x_min":0,"x_max":0,"o":"m 369 738 b 613 694 467 738 547 724 b 664 618 657 676 664 664 l 664 -272 b 632 -306 664 -296 656 -306 l 574 -306 b 540 -272 550 -306 540 -299 l 540 18 b 344 -21 468 -8 403 -21 b 64 254 156 -21 64 78 l 64 450 b 369 738 64 642 165 738 m 189 258 b 363 93 189 149 247 93 b 540 129 406 93 465 106 l 540 574 b 518 603 540 590 536 596 b 379 624 472 617 426 624 b 189 446 253 624 189 564 "},"r":{"ha":481,"x_min":0,"x_max":0,"o":"m 392 738 l 436 738 b 469 704 463 738 469 728 l 469 657 b 436 624 469 633 463 624 l 388 624 b 228 600 332 624 279 615 b 208 572 215 596 208 586 l 208 33 b 175 0 208 7 201 0 l 117 0 b 85 33 93 0 85 10 l 85 617 b 138 694 85 661 94 676 b 392 738 207 721 292 736 "},"s":{"ha":694,"x_min":0,"x_max":0,"o":"m 72 522 b 351 738 72 656 169 738 b 642 588 499 738 596 688 b 625 539 653 565 647 549 l 578 519 b 532 535 551 508 547 513 b 354 625 503 594 454 625 b 196 525 249 625 196 592 b 385 415 196 443 250 426 b 592 358 476 406 546 388 b 660 201 638 329 660 276 b 369 -21 660 64 558 -21 b 65 150 210 -21 108 36 b 86 194 56 172 63 188 l 133 211 b 178 190 154 218 168 211 b 365 90 204 124 267 90 b 539 196 481 90 539 125 b 354 306 539 274 486 293 b 196 338 286 313 251 318 b 131 374 168 347 146 358 b 72 522 99 401 72 454 "},"t":{"ha":517,"x_min":0,"x_max":0,"o":"m 249 883 b 282 850 272 883 282 876 l 282 717 l 464 717 b 496 683 488 717 496 707 l 496 635 b 464 601 496 611 488 601 l 282 601 l 282 278 b 319 133 282 204 294 157 b 461 97 344 110 392 97 b 496 64 488 97 496 90 l 496 14 b 461 -19 496 -10 488 -18 b 226 40 349 -22 271 -3 b 158 275 181 82 158 160 l 158 601 l 43 601 b 10 635 19 601 10 611 l 10 683 b 43 717 10 710 19 717 l 158 717 l 158 850 b 190 883 158 876 167 883 "},"u":{"ha":765,"x_min":0,"x_max":0,"o":"m 647 717 b 681 683 674 717 681 710 l 681 104 b 628 26 681 60 671 44 b 363 -21 543 -6 456 -21 b 81 254 175 -21 81 71 l 81 683 b 114 717 81 710 88 717 l 172 717 b 204 683 196 717 204 707 l 204 258 b 379 93 204 149 263 93 b 536 117 433 93 485 101 b 557 149 550 124 557 133 l 557 683 b 590 717 557 710 567 717 "},"v":{"ha":707,"x_min":0,"x_max":0,"o":"m 664 717 b 690 679 696 717 701 711 l 422 28 b 376 -3 414 7 399 -3 l 342 -3 b 296 28 319 -3 304 7 l 28 678 b 56 717 15 707 22 717 l 97 717 b 156 683 136 717 146 711 l 318 282 b 357 149 335 231 354 153 l 363 149 b 400 281 364 151 381 231 l 561 683 b 619 717 571 711 581 717 "},"w":{"ha":1018,"x_min":0,"x_max":0,"o":"m 964 717 b 992 678 996 717 1001 707 l 794 26 b 750 -3 790 7 775 -3 l 713 -3 b 665 26 689 -3 672 7 l 542 436 b 515 565 528 486 517 560 l 510 565 b 483 436 508 563 497 486 l 360 26 b 314 -3 354 7 339 -3 l 278 -3 b 232 26 253 -3 238 7 l 38 678 b 65 717 26 707 32 717 l 107 717 b 165 683 147 717 160 711 l 269 307 b 288 215 275 286 281 256 b 297 151 293 175 296 154 l 303 151 b 315 217 304 156 308 176 b 335 308 322 256 328 286 l 449 672 b 504 707 458 701 465 707 l 529 707 b 583 674 567 707 574 701 l 699 311 b 721 214 706 286 714 254 b 731 151 728 174 731 153 l 738 151 b 747 213 739 153 742 174 b 764 310 751 250 757 283 l 868 683 b 928 717 875 711 888 717 "},"x":{"ha":690,"x_min":0,"x_max":0,"o":"m 629 717 b 653 678 661 717 669 704 l 428 368 l 667 39 b 643 0 685 13 676 0 l 590 0 b 531 28 556 0 547 4 l 349 279 l 171 28 b 111 0 156 4 146 0 l 60 0 b 36 39 22 0 18 13 l 275 368 l 46 678 b 72 717 29 704 38 717 l 122 717 b 183 689 157 717 167 713 l 351 458 l 519 689 b 576 717 535 713 542 717 "},"y":{"ha":768,"x_min":0,"x_max":0,"o":"m 651 717 b 685 683 678 717 685 710 l 685 -35 b 385 -335 685 -235 585 -335 b 103 -193 250 -335 157 -287 b 117 -140 88 -169 93 -153 l 157 -118 b 211 -131 183 -106 194 -108 b 383 -224 247 -193 304 -224 b 561 -40 501 -224 561 -162 l 561 35 b 367 6 490 15 425 6 b 85 281 179 6 85 97 l 85 683 b 118 717 85 710 92 717 l 176 717 b 208 683 200 717 208 707 l 208 285 b 383 119 208 175 267 119 b 561 149 439 119 499 129 l 561 683 b 594 717 561 710 571 717 "},"z":{"ha":643,"x_min":0,"x_max":0,"o":"m 568 113 b 600 79 592 113 600 103 l 600 33 b 568 0 600 10 592 0 l 75 0 b 42 33 49 0 42 7 l 42 79 b 54 114 42 92 46 103 l 433 604 l 81 604 b 49 638 57 604 49 614 l 49 683 b 81 717 49 707 57 717 l 561 717 b 594 683 588 717 594 710 l 594 638 b 582 600 594 626 590 614 l 200 113 "},"{":{"ha":463,"x_min":0,"x_max":0,"o":"m 406 1189 b 439 1156 432 1189 439 1182 l 439 1108 b 406 1076 439 1085 429 1076 l 343 1076 b 272 1001 296 1076 272 1051 l 272 663 b 176 490 272 581 240 522 b 272 318 240 467 272 408 l 272 -17 b 343 -92 272 -67 296 -92 l 406 -92 b 439 -124 429 -92 439 -100 l 439 -171 b 406 -204 439 -194 432 -204 l 340 -204 b 154 -24 206 -204 154 -150 l 154 301 b 50 426 154 385 119 426 l 39 426 b 11 460 21 426 11 438 l 11 521 b 38 553 11 542 19 553 l 50 553 b 154 679 119 553 154 594 l 154 1007 b 339 1189 154 1135 206 1189 "},"|":{"ha":299,"x_min":0,"x_max":0,"o":"m 176 1189 b 208 1156 200 1189 208 1179 l 208 -171 b 176 -204 208 -194 200 -204 l 124 -204 b 90 -171 100 -204 90 -194 l 90 1156 b 124 1189 90 1182 100 1189 "},"}":{"ha":463,"x_min":0,"x_max":0,"o":"m 124 1189 b 308 1007 257 1189 308 1135 l 308 679 b 413 553 308 594 343 553 l 425 553 b 451 521 443 553 451 542 l 451 460 b 424 426 451 438 442 426 l 413 426 b 308 301 343 426 308 385 l 308 -24 b 122 -204 308 -150 257 -204 l 56 -204 b 24 -171 32 -204 24 -194 l 24 -124 b 56 -92 24 -100 32 -92 l 119 -92 b 190 -17 167 -92 190 -67 l 190 318 b 286 490 190 408 222 467 b 190 663 222 522 190 581 l 190 1001 b 119 1076 190 1051 167 1076 l 56 1076 b 24 1108 32 1076 24 1085 l 24 1156 b 56 1189 24 1179 32 1189 "},"~":{"ha":775,"x_min":0,"x_max":0,"o":"m 122 465 b 290 533 174 511 231 533 b 418 507 328 533 371 525 b 526 481 465 489 501 481 b 628 521 563 481 596 494 b 676 519 649 538 658 538 l 710 488 b 710 436 728 469 728 451 b 542 368 661 390 606 368 b 414 394 504 368 461 376 b 306 421 367 413 331 421 b 204 381 269 421 236 407 b 157 382 183 363 175 364 l 122 414 b 122 465 104 432 104 450 "},"¡":{"ha":296,"x_min":0,"x_max":0,"o":"m 143 572 b 72 643 89 572 72 589 l 72 653 b 143 724 72 707 89 724 l 151 724 b 222 653 206 724 222 707 l 222 643 b 151 572 222 589 206 572 m 117 -312 b 83 -281 90 -312 82 -304 l 99 425 b 131 458 99 451 107 458 l 164 458 b 197 425 188 458 196 451 l 213 -281 b 179 -312 214 -304 206 -312 "},"¢":{"ha":743,"x_min":0,"x_max":0,"o":"m 656 218 b 678 171 679 208 688 192 b 442 -14 640 63 563 1 l 442 -83 b 408 -117 442 -110 435 -117 l 350 -117 b 317 -83 324 -117 317 -110 l 317 -17 b 72 260 154 1 72 100 l 72 458 b 317 732 72 614 154 714 l 317 814 b 350 847 317 840 324 847 l 408 847 b 442 814 435 847 442 840 l 442 732 b 675 551 565 718 643 658 b 653 504 683 528 676 511 l 606 489 b 558 511 583 479 568 488 b 378 628 532 589 471 628 b 196 464 260 628 196 568 l 196 254 b 378 89 196 150 260 89 b 560 210 471 89 532 129 b 607 232 569 236 581 242 "},"£":{"ha":889,"x_min":0,"x_max":0,"o":"m 183 729 b 264 928 183 808 210 874 b 492 1007 317 981 393 1007 b 822 793 660 1007 769 936 b 799 747 832 769 824 754 l 742 726 b 694 750 714 717 707 722 b 497 882 654 844 597 882 b 322 724 385 882 322 817 l 322 528 l 656 528 b 692 492 683 528 692 518 l 692 447 b 656 411 692 421 683 411 l 322 411 l 322 265 b 253 118 322 200 299 150 l 253 113 b 449 125 339 121 404 125 l 781 125 b 817 89 808 125 817 115 l 817 36 b 781 0 817 10 808 0 l 90 0 b 56 36 63 0 56 8 l 56 90 b 76 119 56 110 63 119 l 93 119 b 183 264 153 131 183 179 l 183 411 l 100 411 b 64 447 74 411 64 421 l 64 492 b 100 528 64 518 74 528 l 183 528 "},"¤":{"ha":842,"x_min":0,"x_max":0,"o":"m 778 224 b 778 178 794 208 794 193 l 738 136 b 690 136 722 121 707 121 l 619 208 b 447 153 569 171 513 153 b 274 207 383 153 325 171 l 203 135 b 156 135 186 119 171 119 l 114 175 b 114 222 99 192 99 207 l 188 294 b 132 468 150 344 132 403 b 186 639 132 531 150 588 l 114 711 b 114 758 97 728 97 743 l 154 799 b 201 799 169 814 186 814 l 272 728 b 447 783 326 765 385 783 b 618 729 508 783 565 765 l 689 800 b 736 800 704 815 721 815 l 776 760 b 776 713 792 744 792 728 l 706 642 b 763 468 743 590 763 533 b 708 294 763 406 744 349 m 590 611 b 447 669 551 650 504 669 b 304 611 390 669 343 650 b 243 468 264 572 244 525 b 304 325 244 411 264 364 b 447 265 343 285 390 265 b 590 325 504 265 551 285 b 649 468 629 364 649 411 b 590 611 649 525 629 572 "},"¥":{"ha":897,"x_min":0,"x_max":0,"o":"m 840 986 b 858 950 867 986 871 968 l 569 499 l 711 499 b 743 467 735 499 743 490 l 743 435 b 711 403 743 411 735 403 l 519 403 l 519 296 l 711 296 b 743 264 735 296 743 288 l 743 231 b 711 199 743 207 735 199 l 519 199 l 519 36 b 483 0 519 10 511 0 l 422 0 b 386 36 394 0 386 10 l 386 199 l 193 199 b 161 231 169 199 161 207 l 161 264 b 193 296 161 288 169 296 l 386 296 l 386 403 l 193 403 b 161 435 169 403 161 411 l 161 467 b 193 499 161 490 169 499 l 339 499 l 47 950 b 67 986 35 968 40 986 l 133 986 b 204 954 178 986 188 983 l 456 544 l 708 954 b 778 986 724 983 733 986 "},"¦":{"ha":311,"x_min":0,"x_max":0,"o":"m 182 1189 b 215 1156 206 1189 215 1182 l 215 632 b 182 599 215 608 206 599 l 129 599 b 96 632 106 599 96 608 l 96 1156 b 129 1189 96 1182 106 1189 m 182 388 b 215 354 206 388 215 378 l 215 -169 b 182 -203 215 -196 206 -203 l 129 -203 b 96 -169 106 -203 96 -196 l 96 354 b 129 388 96 378 106 388 "},"§":{"ha":835,"x_min":0,"x_max":0,"o":"m 96 743 b 431 1011 96 904 210 1011 b 765 797 596 1011 707 940 b 743 746 776 774 769 757 l 692 722 b 640 742 665 711 653 715 b 431 883 603 836 533 883 b 233 743 299 883 233 836 b 300 640 233 693 254 658 b 446 608 346 622 375 618 b 624 571 528 599 550 597 b 701 529 657 558 683 544 b 771 360 739 497 771 438 b 663 167 771 282 735 218 b 781 -40 742 128 781 58 b 432 -307 781 -201 658 -307 b 82 -83 251 -307 135 -232 b 107 -33 72 -60 81 -43 l 160 -15 b 210 -39 188 -6 199 -10 b 432 -182 244 -135 318 -182 b 646 -42 575 -182 646 -135 b 554 69 640 22 615 53 b 431 90 510 82 488 85 b 325 104 374 96 379 94 b 271 115 300 108 282 111 b 175 153 247 121 196 136 b 108 222 154 168 121 193 b 83 336 96 250 83 290 b 215 539 83 422 128 490 b 96 743 136 579 96 647 m 418 482 b 329 496 381 488 351 492 b 221 353 257 461 221 414 b 317 236 221 286 258 253 b 447 215 361 224 388 221 b 540 204 468 214 518 208 b 638 347 606 242 638 289 b 569 449 638 396 614 431 b 418 482 524 467 485 475 "},"¨":{"ha":610,"x_min":0,"x_max":0,"o":"m 168 968 b 226 911 214 968 226 956 l 226 899 b 168 842 226 856 214 842 l 160 842 b 101 899 115 842 101 856 l 101 911 b 160 968 101 954 115 968 m 442 968 b 500 911 486 968 500 954 l 500 899 b 442 842 500 856 486 842 l 433 842 b 375 899 389 842 375 856 l 375 911 b 433 968 375 954 389 968 "},"©":{"ha":1117,"x_min":0,"x_max":0,"o":"m 60 488 b 204 842 60 628 108 746 b 560 986 300 938 419 986 b 913 842 699 986 817 938 b 1056 488 1008 746 1056 628 b 913 133 1056 347 1008 229 b 560 -11 817 38 699 -11 b 206 135 419 -11 301 38 b 60 488 108 231 60 349 m 969 488 b 851 781 969 604 931 701 b 560 899 772 860 675 899 b 267 781 443 899 346 860 b 147 488 188 701 147 604 b 267 194 147 372 188 274 b 560 75 346 115 443 75 b 851 194 675 75 772 115 b 969 488 931 274 969 372 m 343 561 b 556 757 343 683 421 757 b 761 625 663 757 732 713 b 744 590 768 607 763 594 l 714 579 b 681 596 693 572 688 575 b 556 675 663 653 629 675 b 429 561 471 675 429 638 l 429 407 b 556 293 429 331 471 293 b 681 374 622 293 664 319 b 717 392 688 392 700 397 l 746 381 b 763 346 764 374 769 363 b 556 211 732 256 663 211 b 343 407 421 211 343 285 "},"ª":{"ha":506,"x_min":0,"x_max":0,"o":"m 88 853 b 257 931 125 904 181 931 b 432 758 383 931 432 869 l 432 583 b 388 514 432 543 422 529 b 251 493 356 500 310 493 b 72 618 119 493 72 536 b 254 749 72 706 121 749 b 336 743 289 749 315 747 l 336 767 b 254 849 336 822 315 849 b 164 804 219 849 189 833 b 131 799 154 796 143 794 l 104 813 b 88 853 81 822 75 835 m 336 674 b 249 678 300 676 271 678 b 167 621 188 678 167 660 b 247 568 167 586 193 568 b 321 576 282 568 306 571 b 336 601 331 581 336 589 "},"«":{"ha":800,"x_min":0,"x_max":0,"o":"m 419 157 b 419 115 435 144 435 131 l 381 76 b 339 76 365 64 351 64 l 71 344 b 71 385 58 357 58 371 l 343 658 b 385 658 358 674 372 674 l 422 621 b 422 581 436 607 436 593 l 211 367 m 743 157 b 743 115 756 144 756 131 l 704 76 b 661 76 689 64 674 64 l 394 344 b 394 385 379 358 379 372 l 667 658 b 708 658 679 674 693 674 l 744 621 b 744 581 758 607 758 593 l 532 367 "},"¬":{"ha":811,"x_min":0,"x_max":0,"o":"m 690 554 b 724 521 714 554 724 544 l 724 226 b 690 193 724 203 714 193 l 633 193 b 600 226 607 193 600 203 l 600 438 l 114 438 b 81 471 88 438 81 447 l 81 521 b 114 554 81 544 88 554 "},"®":{"ha":660,"x_min":0,"x_max":0,"o":"m 140 526 b 60 717 86 579 60 643 b 140 907 60 790 86 854 b 331 986 193 960 257 986 b 519 907 404 986 467 960 b 599 717 572 854 599 790 b 521 526 599 643 572 579 b 331 447 468 474 404 447 b 140 526 257 447 193 474 m 181 868 b 118 717 139 826 118 776 b 181 565 118 657 139 607 b 332 501 222 522 272 501 b 483 565 392 501 442 522 b 544 717 524 607 544 657 b 483 868 544 776 524 826 b 332 931 442 910 392 931 b 181 868 272 931 222 910 m 358 854 b 456 763 418 854 456 819 b 396 679 456 719 436 692 l 444 599 b 435 579 453 586 450 579 l 410 579 b 388 590 399 579 392 583 l 339 674 l 275 674 l 275 592 b 263 579 275 583 271 579 l 238 579 b 224 592 228 579 224 583 l 224 839 b 240 854 224 851 228 854 m 275 721 l 357 721 b 401 763 386 721 401 735 b 357 806 401 792 386 806 l 275 806 "},"¯":{"ha":489,"x_min":0,"x_max":0,"o":"m 407 953 b 439 921 431 953 439 944 l 439 893 b 407 863 439 869 433 863 l 82 863 b 51 893 58 863 51 869 l 51 921 b 82 953 51 944 60 953 "},"°":{"ha":544,"x_min":0,"x_max":0,"o":"m 490 771 b 426 617 490 711 469 660 b 272 551 383 574 332 551 b 118 615 213 551 161 572 b 54 771 75 658 54 710 b 118 926 54 832 75 883 b 272 989 160 968 211 989 b 428 926 333 989 385 968 b 490 771 469 883 490 832 m 189 854 b 189 686 143 807 143 732 b 357 686 235 640 310 640 b 357 854 404 732 404 807 b 189 854 310 901 235 901 "},"±":{"ha":858,"x_min":0,"x_max":0,"o":"m 721 603 b 757 567 749 603 757 593 l 757 532 b 721 496 757 504 749 496 l 486 496 l 486 361 b 450 325 486 335 476 325 l 410 325 b 374 361 382 325 374 335 l 374 496 l 138 496 b 101 532 111 496 101 504 l 101 567 b 138 603 101 593 111 603 l 374 603 l 374 743 b 410 779 374 769 382 779 l 450 779 b 486 743 476 779 486 769 l 486 603 m 721 264 b 757 228 749 264 757 254 l 757 193 b 721 157 757 165 749 157 l 138 157 b 101 193 111 157 101 165 l 101 228 b 138 264 101 254 111 264 "},"²":{"ha":499,"x_min":0,"x_max":0,"o":"m 63 994 b 264 1138 97 1090 165 1138 b 457 964 386 1138 457 1065 b 299 785 457 865 410 822 l 221 761 b 160 696 181 749 160 726 l 160 672 l 418 672 b 450 640 439 672 450 661 l 450 607 b 418 576 450 585 442 576 l 93 576 b 58 610 69 576 58 588 l 58 658 b 172 833 58 753 88 800 l 251 865 b 333 908 294 882 322 896 b 350 960 344 922 350 939 b 263 1038 350 1006 318 1038 b 167 971 199 1038 176 994 l 163 961 b 115 938 150 933 143 928 l 85 947 b 63 994 61 957 54 972 "},"³":{"ha":507,"x_min":0,"x_max":0,"o":"m 60 993 b 271 1138 90 1089 161 1138 b 454 981 386 1138 454 1076 b 392 863 454 924 433 885 b 471 722 444 836 471 789 b 271 565 471 622 403 565 b 57 704 160 565 89 611 b 75 751 50 728 56 744 l 106 761 b 153 739 129 771 142 765 b 271 660 169 683 200 660 b 367 733 335 660 367 685 b 297 807 367 778 342 807 l 228 807 b 194 839 200 807 194 813 l 194 867 b 229 901 194 896 197 901 l 290 901 b 356 969 333 901 356 924 b 274 1043 356 1015 325 1043 b 157 964 208 1043 175 1019 b 103 939 146 932 135 926 l 81 947 b 60 993 58 956 51 971 "},"´":{"ha":357,"x_min":0,"x_max":0,"o":"m 271 1010 b 332 1008 297 1025 317 1025 l 360 975 b 354 936 375 957 376 944 l 111 821 b 68 822 90 813 75 813 l 53 843 b 54 879 40 858 40 871 "},"µ":{"ha":768,"x_min":0,"x_max":0,"o":"m 653 717 b 685 683 676 717 685 707 l 685 104 b 632 26 685 60 675 44 b 394 -21 551 -6 472 -21 b 208 54 307 -21 246 4 l 210 -272 b 176 -306 210 -299 200 -306 l 118 -306 b 85 -272 94 -306 85 -299 l 85 683 b 118 717 85 710 94 717 l 176 717 b 210 683 200 717 210 710 l 210 258 b 383 93 210 149 268 93 b 542 117 438 93 490 101 b 561 147 554 122 561 132 l 561 683 b 594 717 561 710 568 717 "},"¶":{"ha":688,"x_min":0,"x_max":0,"o":"m 557 986 b 590 953 581 986 590 979 l 590 -90 b 557 -124 590 -114 581 -124 l 507 -124 b 474 -90 483 -124 474 -114 l 474 861 l 397 861 l 397 -90 b 364 -124 397 -114 390 -124 l 314 -124 b 282 -90 290 -124 282 -117 l 282 517 b 54 750 144 521 54 615 b 289 986 54 890 149 986 "},"·":{"ha":319,"x_min":0,"x_max":0,"o":"m 164 461 b 235 392 218 461 235 446 l 235 381 b 164 310 235 326 218 310 l 156 310 b 85 381 101 310 85 326 l 85 392 b 156 461 85 446 101 461 "},"¸":{"ha":349,"x_min":0,"x_max":0,"o":"m 188 -92 b 215 -89 199 -90 208 -89 b 332 -207 289 -89 338 -139 b 158 -340 325 -300 257 -340 b 51 -318 114 -340 78 -333 b 32 -286 39 -312 32 -301 l 31 -253 b 49 -239 31 -237 36 -233 b 142 -267 78 -257 108 -267 b 225 -201 197 -267 225 -244 b 153 -151 225 -169 201 -153 b 113 -156 138 -151 125 -153 b 96 -128 92 -157 86 -149 l 147 0 l 222 0 "},"¹":{"ha":393,"x_min":0,"x_max":0,"o":"m 299 1126 b 336 1089 326 1126 336 1117 l 336 613 b 299 576 336 585 326 576 l 267 576 b 231 613 239 576 231 585 l 231 994 l 111 928 b 60 940 89 915 72 919 l 46 967 b 61 1017 33 988 39 1004 l 236 1115 b 279 1126 249 1122 263 1126 "},"º":{"ha":513,"x_min":0,"x_max":0,"o":"m 68 763 b 256 931 68 868 135 931 b 443 763 378 931 443 868 l 443 661 b 256 494 443 556 378 494 b 68 661 135 494 68 556 m 343 767 b 256 843 343 813 313 843 b 169 767 200 843 169 813 l 169 658 b 256 582 169 607 199 582 b 343 658 314 582 343 607 "},"»":{"ha":800,"x_min":0,"x_max":0,"o":"m 417 581 b 417 621 403 593 403 607 l 453 658 b 494 658 468 674 482 674 l 767 385 b 767 344 781 371 781 357 l 500 76 b 457 76 486 64 472 64 l 418 115 b 418 157 404 131 404 144 l 628 367 m 94 581 b 94 621 81 594 81 608 l 131 658 b 172 658 143 674 157 674 l 444 385 b 444 344 458 371 458 357 l 176 76 b 135 76 163 63 149 63 l 96 115 b 96 157 82 131 82 144 l 306 367 "},"¼":{"ha":1103,"x_min":0,"x_max":0,"o":"m 315 989 b 353 951 343 989 353 979 l 353 475 b 315 439 353 447 343 439 l 283 439 b 247 475 256 439 247 447 l 247 857 l 128 790 b 76 803 106 778 89 782 l 61 829 b 78 879 51 850 57 867 l 251 978 b 296 989 264 985 278 989 m 960 986 b 978 951 983 986 993 969 l 303 33 b 231 0 281 4 274 0 l 188 0 b 169 38 161 0 154 17 l 844 956 b 913 986 865 982 874 986 m 965 550 b 997 517 993 550 997 544 l 997 218 l 1040 218 b 1071 189 1067 218 1071 213 l 1071 158 b 1040 129 1071 135 1067 129 l 997 129 l 997 31 b 968 0 997 7 992 0 l 928 0 b 899 31 904 0 899 7 l 899 129 l 647 129 b 617 161 624 129 617 135 l 617 188 b 626 222 617 203 619 214 l 876 531 b 921 550 888 543 903 550 m 735 218 l 899 218 l 899 419 "},"½":{"ha":1165,"x_min":0,"x_max":0,"o":"m 318 996 b 354 958 346 996 354 986 l 354 482 b 318 446 354 454 346 446 l 286 446 b 249 482 258 446 249 454 l 249 864 l 131 797 b 79 810 108 785 92 789 l 64 836 b 81 886 51 857 57 874 l 254 985 b 297 996 267 992 281 996 m 954 986 b 972 951 978 986 988 969 l 297 33 b 225 0 276 4 268 0 l 182 0 b 164 38 156 0 149 17 l 840 956 b 907 986 861 982 868 986 m 732 418 b 933 561 767 514 835 561 b 1126 388 1056 561 1126 489 b 968 210 1126 289 1079 244 l 889 185 b 829 121 849 172 829 150 l 829 96 l 1088 96 b 1119 64 1108 96 1119 85 l 1119 32 b 1088 0 1119 11 1108 0 l 763 0 b 728 33 739 0 728 11 l 728 82 b 842 258 728 176 757 225 l 919 289 b 989 321 960 304 965 306 b 1018 383 1013 336 1018 354 b 932 461 1018 429 988 461 b 836 394 868 461 846 418 l 832 385 b 785 361 819 357 813 351 l 754 372 b 732 418 729 381 722 396 "},"¾":{"ha":1150,"x_min":0,"x_max":0,"o":"m 68 864 b 279 1007 99 960 169 1007 b 463 850 394 1007 463 946 b 400 732 463 793 442 754 b 479 592 453 707 479 660 b 279 435 479 493 411 435 b 65 575 168 435 97 482 b 83 621 58 599 64 614 l 114 632 b 161 608 138 642 150 636 b 279 529 178 553 208 529 b 375 604 342 529 375 558 b 304 678 375 649 349 678 l 235 678 b 203 710 208 678 203 682 l 203 738 b 238 772 203 769 206 772 l 299 772 b 364 839 342 772 364 794 b 282 914 364 885 333 914 b 165 835 215 914 182 890 b 110 808 153 803 142 797 l 89 817 b 68 864 67 826 60 842 m 1007 986 b 1025 951 1031 986 1040 969 l 350 33 b 278 0 329 4 321 0 l 235 0 b 217 38 208 0 201 17 l 893 956 b 960 986 914 982 921 986 m 1013 550 b 1044 517 1040 550 1044 544 l 1044 218 l 1086 218 b 1118 189 1114 218 1118 213 l 1118 158 b 1086 129 1118 135 1114 129 l 1044 129 l 1044 31 b 1015 0 1044 7 1039 0 l 974 0 b 946 31 951 0 946 7 l 946 129 l 694 129 b 663 161 668 129 663 135 l 663 188 b 674 222 663 201 667 213 l 924 531 b 967 550 933 543 949 550 m 946 218 l 946 419 l 781 218 "},"¿":{"ha":775,"x_min":0,"x_max":0,"o":"m 417 572 b 347 642 365 572 347 590 l 347 653 b 417 724 347 707 363 724 l 426 724 b 497 653 481 724 497 707 l 497 642 b 426 572 497 590 481 572 m 735 -83 b 378 -312 675 -236 556 -312 b 133 -231 275 -312 193 -285 b 42 -26 72 -176 42 -108 b 63 100 42 22 51 69 b 115 186 72 131 103 169 b 186 246 125 199 178 240 b 225 269 190 249 204 257 b 260 292 246 282 258 290 b 367 446 331 336 367 375 b 401 481 367 472 375 481 l 444 481 b 479 446 471 481 479 472 b 335 204 479 324 428 265 b 224 119 278 167 242 139 b 175 -19 192 82 175 36 b 381 -194 175 -121 251 -194 b 614 -42 504 -194 571 -140 b 661 -18 626 -14 635 -11 l 713 -37 b 735 -83 736 -46 744 -61 "},"À":{"ha":901,"x_min":0,"x_max":0,"o":"m 339 1243 b 400 1246 353 1260 374 1261 l 618 1117 b 619 1082 633 1108 633 1097 l 604 1061 b 561 1058 597 1053 583 1051 l 317 1172 b 311 1210 297 1179 296 1192 m 897 36 b 872 0 906 13 897 0 l 818 0 b 751 32 774 0 761 6 l 665 258 l 254 258 l 168 32 b 101 0 158 6 146 0 l 53 0 b 28 36 28 0 19 13 l 389 958 b 435 989 396 979 411 989 l 490 989 b 536 960 514 989 529 979 m 489 733 b 464 864 472 782 464 826 l 456 864 l 454 844 b 432 735 453 821 444 772 l 292 368 l 628 368 "},"Á":{"ha":901,"x_min":0,"x_max":0,"o":"m 528 1250 b 589 1249 554 1265 575 1264 l 617 1215 b 611 1176 632 1197 633 1185 l 368 1061 b 326 1063 347 1053 333 1053 l 310 1083 b 313 1118 294 1101 296 1108 m 897 36 b 872 0 906 13 897 0 l 818 0 b 751 32 774 0 761 6 l 665 258 l 254 258 l 168 32 b 101 0 158 6 146 0 l 53 0 b 28 36 28 0 19 13 l 389 958 b 435 989 396 979 411 989 l 490 989 b 536 960 514 989 529 979 m 489 733 b 464 864 472 782 464 826 l 456 864 l 454 844 b 432 735 453 821 444 772 l 292 368 l 628 368 "},"Â":{"ha":901,"x_min":0,"x_max":0,"o":"m 472 1257 b 533 1228 500 1257 507 1254 l 690 1085 b 674 1057 706 1067 700 1057 l 625 1057 b 571 1076 601 1057 583 1064 l 463 1175 l 350 1076 b 299 1057 338 1064 321 1057 l 253 1057 b 238 1085 226 1057 221 1067 l 394 1228 b 458 1257 421 1256 426 1257 m 897 36 b 872 0 906 13 897 0 l 818 0 b 751 32 774 0 761 6 l 665 258 l 254 258 l 168 32 b 101 0 158 6 146 0 l 53 0 b 28 36 28 0 19 13 l 389 958 b 435 989 396 979 411 989 l 490 989 b 536 960 514 989 529 979 m 489 733 b 464 864 472 782 464 826 l 456 864 l 454 844 b 432 735 453 821 444 772 l 292 368 l 628 368 "},"Ã":{"ha":901,"x_min":0,"x_max":0,"o":"m 650 1233 b 671 1213 664 1233 671 1226 b 558 1067 671 1111 636 1067 b 454 1111 526 1067 492 1082 b 367 1154 417 1140 388 1154 b 321 1088 336 1154 321 1132 b 300 1067 321 1074 314 1067 l 265 1067 b 244 1088 251 1067 244 1074 b 356 1233 244 1185 282 1233 b 465 1190 390 1233 428 1219 b 550 1146 503 1161 531 1146 b 594 1213 579 1146 594 1168 b 615 1233 594 1226 601 1233 m 897 36 b 872 0 906 13 897 0 l 818 0 b 751 32 774 0 761 6 l 665 258 l 254 258 l 168 32 b 101 0 158 6 146 0 l 53 0 b 28 36 28 0 19 13 l 389 958 b 435 989 396 979 411 989 l 490 989 b 536 960 514 989 529 979 m 489 733 b 464 864 472 782 464 826 l 456 864 l 454 844 b 432 735 453 821 444 772 l 292 368 l 628 368 "},"Ä":{"ha":901,"x_min":0,"x_max":0,"o":"m 331 1215 b 389 1158 375 1215 389 1201 l 389 1146 b 331 1089 389 1103 375 1089 l 321 1089 b 264 1146 278 1089 264 1103 l 264 1158 b 321 1215 264 1201 278 1215 m 604 1215 b 661 1158 647 1215 661 1201 l 661 1146 b 604 1089 661 1103 647 1089 l 594 1089 b 536 1146 550 1089 536 1103 l 536 1158 b 594 1215 536 1201 550 1215 m 897 36 b 872 0 906 13 897 0 l 818 0 b 751 32 774 0 761 6 l 665 258 l 254 258 l 168 32 b 101 0 158 6 146 0 l 53 0 b 28 36 28 0 19 13 l 389 958 b 435 989 396 979 411 989 l 490 989 b 536 960 514 989 529 979 m 489 733 b 464 864 472 782 464 826 l 456 864 l 454 844 b 432 735 453 821 444 772 l 292 368 l 628 368 "},"Å":{"ha":901,"x_min":0,"x_max":0,"o":"m 303 1072 b 465 1231 303 1167 369 1231 b 622 1072 560 1231 622 1167 b 543 942 622 1008 596 965 l 897 36 b 872 0 906 13 897 0 l 818 0 b 751 32 774 0 761 6 l 665 258 l 254 258 l 168 32 b 101 0 158 6 146 0 l 53 0 b 28 36 28 0 19 13 l 382 944 b 303 1072 329 967 303 1010 m 547 1072 b 465 1156 547 1124 515 1156 b 378 1072 411 1156 378 1124 b 465 992 378 1024 411 992 b 547 1072 515 992 547 1024 m 489 733 b 464 864 472 782 464 826 l 456 864 l 454 844 b 432 735 453 821 444 772 l 292 368 l 628 368 "},"Æ":{"ha":1171,"x_min":0,"x_max":0,"o":"m 1099 125 b 1135 89 1126 125 1135 115 l 1135 36 b 1099 0 1135 10 1126 0 l 635 0 b 597 36 607 0 597 10 l 597 226 l 275 226 l 160 32 b 92 0 144 8 135 0 l 35 0 b 10 36 10 0 1 13 l 582 956 b 628 986 597 979 604 986 l 1082 986 b 1118 950 1110 986 1118 976 l 1118 897 b 1082 861 1118 871 1110 861 l 728 861 l 728 561 l 1018 561 b 1054 525 1044 561 1054 553 l 1054 474 b 1018 436 1054 446 1044 436 l 728 436 l 728 125 m 597 761 l 342 338 l 597 338 "},"Ç":{"ha":886,"x_min":0,"x_max":0,"o":"m 814 265 b 838 218 838 258 846 242 b 492 -19 789 67 674 -12 l 464 -92 b 492 -89 474 -90 482 -89 b 608 -207 564 -89 614 -139 b 433 -340 601 -300 532 -340 b 326 -318 389 -340 353 -333 b 307 -286 314 -312 307 -301 l 307 -253 b 324 -239 307 -237 313 -232 b 418 -267 353 -257 383 -267 b 501 -201 474 -267 501 -244 b 429 -151 501 -169 478 -153 b 388 -156 414 -151 400 -153 b 371 -128 369 -157 361 -149 l 415 -18 b 74 335 197 -3 74 128 l 74 651 b 463 1007 74 874 214 1007 b 836 771 660 1007 785 928 b 813 724 843 747 836 732 l 756 704 b 708 726 729 694 718 700 b 463 882 674 832 600 882 b 208 653 297 882 208 799 l 208 333 b 463 104 208 189 300 104 b 710 263 601 104 675 156 b 757 286 719 290 731 296 "},"È":{"ha":800,"x_min":0,"x_max":0,"o":"m 296 1243 b 357 1246 308 1261 329 1261 l 574 1117 b 576 1082 589 1110 589 1097 l 561 1061 b 518 1058 554 1051 539 1051 l 272 1172 b 268 1210 254 1179 253 1192 m 697 986 b 733 950 725 986 733 976 l 733 897 b 697 861 733 871 725 861 l 238 861 l 238 563 l 633 563 b 669 525 661 563 669 553 l 669 474 b 633 438 669 446 661 438 l 238 438 l 238 125 l 714 125 b 750 89 742 125 750 115 l 750 36 b 714 0 750 10 742 0 l 139 0 b 103 36 113 0 103 10 l 103 950 b 139 986 103 976 113 986 "},"É":{"ha":800,"x_min":0,"x_max":0,"o":"m 485 1250 b 546 1249 511 1265 531 1265 l 574 1215 b 568 1176 589 1197 590 1185 l 325 1061 b 282 1063 304 1053 289 1053 l 267 1083 b 268 1118 254 1099 254 1110 m 697 986 b 733 950 725 986 733 976 l 733 897 b 697 861 733 871 725 861 l 238 861 l 238 563 l 633 563 b 669 525 661 563 669 553 l 669 474 b 633 438 669 446 661 438 l 238 438 l 238 125 l 714 125 b 750 89 742 125 750 115 l 750 36 b 714 0 750 10 742 0 l 139 0 b 103 36 113 0 103 10 l 103 950 b 139 986 103 976 113 986 "},"Ê":{"ha":800,"x_min":0,"x_max":0,"o":"m 429 1257 b 490 1228 456 1257 463 1254 l 647 1085 b 631 1057 663 1067 657 1057 l 582 1057 b 528 1076 558 1057 540 1064 l 419 1175 l 307 1076 b 256 1057 294 1064 278 1057 l 210 1057 b 193 1085 183 1057 178 1067 l 351 1228 b 415 1257 378 1256 383 1257 m 697 986 b 733 950 725 986 733 976 l 733 897 b 697 861 733 871 725 861 l 238 861 l 238 563 l 633 563 b 669 525 661 563 669 553 l 669 474 b 633 438 669 446 661 438 l 238 438 l 238 125 l 714 125 b 750 89 742 125 750 115 l 750 36 b 714 0 750 10 742 0 l 139 0 b 103 36 113 0 103 10 l 103 950 b 139 986 103 976 113 986 "},"Ë":{"ha":800,"x_min":0,"x_max":0,"o":"m 286 1215 b 344 1158 331 1215 344 1201 l 344 1146 b 286 1089 344 1103 331 1089 l 278 1089 b 219 1146 233 1089 219 1103 l 219 1158 b 278 1215 219 1201 233 1215 m 560 1215 b 618 1158 604 1215 618 1201 l 618 1146 b 560 1089 618 1103 604 1089 l 551 1089 b 493 1146 507 1089 493 1103 l 493 1158 b 551 1215 493 1201 507 1215 m 697 986 b 733 950 725 986 733 976 l 733 897 b 697 861 733 871 725 861 l 238 861 l 238 563 l 633 563 b 669 525 661 563 669 553 l 669 474 b 633 438 669 446 661 438 l 238 438 l 238 125 l 714 125 b 750 89 742 125 750 115 l 750 36 b 714 0 750 10 742 0 l 139 0 b 103 36 113 0 103 10 l 103 950 b 139 986 103 976 113 986 "},"Ì":{"ha":340,"x_min":0,"x_max":0,"o":"m 69 1243 b 131 1246 83 1260 104 1261 l 349 1117 b 350 1082 364 1108 364 1097 l 335 1061 b 292 1058 328 1051 313 1051 l 46 1172 b 42 1210 28 1179 26 1192 m 125 950 b 163 986 125 976 135 986 l 224 986 b 260 950 250 986 260 976 l 260 36 b 224 0 260 10 250 0 l 163 0 b 125 36 135 0 125 10 "},"Í":{"ha":340,"x_min":0,"x_max":0,"o":"m 254 1250 b 317 1249 282 1265 303 1265 l 343 1215 b 339 1176 358 1197 357 1185 l 96 1061 b 53 1063 75 1053 60 1053 l 38 1083 b 39 1118 25 1099 25 1110 m 122 950 b 158 986 122 976 132 986 l 219 986 b 257 950 247 986 257 976 l 257 36 b 219 0 257 10 247 0 l 158 0 b 122 36 132 0 122 10 "},"Î":{"ha":340,"x_min":0,"x_max":0,"o":"m 203 1257 b 263 1228 229 1257 236 1254 l 419 1085 b 404 1057 436 1067 431 1057 l 354 1057 b 301 1076 331 1057 314 1064 l 192 1175 l 81 1076 b 29 1057 68 1064 51 1057 l -17 1057 b -33 1085 -43 1057 -49 1067 l 124 1228 b 189 1257 151 1256 156 1257 m 125 950 b 161 986 125 976 135 986 l 222 986 b 260 950 250 986 260 976 l 260 36 b 222 0 260 10 250 0 l 161 0 b 125 36 135 0 125 10 "},"Ï":{"ha":340,"x_min":0,"x_max":0,"o":"m 38 1215 b 96 1158 82 1215 96 1201 l 96 1146 b 38 1089 96 1103 82 1089 l 28 1089 b -29 1146 -15 1089 -29 1103 l -29 1158 b 28 1215 -29 1201 -15 1215 m 311 1215 b 369 1158 354 1215 369 1201 l 369 1146 b 311 1089 369 1103 354 1089 l 303 1089 b 243 1146 258 1089 243 1103 l 243 1158 b 303 1215 243 1201 258 1215 m 103 950 b 139 986 103 976 113 986 l 200 986 b 238 950 228 986 238 976 l 238 36 b 200 0 238 10 228 0 l 139 0 b 103 36 113 0 103 10 "},"Ð":{"ha":933,"x_min":0,"x_max":0,"o":"m 460 986 b 863 619 715 986 863 847 l 863 367 b 460 0 863 139 715 0 l 157 0 b 121 36 131 0 121 10 l 121 461 l 28 461 b 6 485 11 461 6 467 l 6 525 b 28 549 6 540 13 549 l 121 549 l 121 950 b 157 986 121 976 131 986 m 728 621 b 460 861 728 775 632 861 l 256 861 l 256 549 l 469 549 b 492 525 488 549 492 543 l 492 485 b 469 461 492 467 488 461 l 256 461 l 256 125 l 460 125 b 728 365 632 125 728 211 "},"Ñ":{"ha":963,"x_min":0,"x_max":0,"o":"m 669 1233 b 692 1213 685 1233 692 1226 b 579 1067 692 1111 657 1067 b 474 1111 547 1067 511 1082 b 386 1154 436 1140 407 1154 b 340 1088 356 1154 340 1132 b 321 1067 340 1074 333 1067 l 285 1067 b 264 1088 271 1067 264 1074 b 375 1233 264 1185 301 1233 b 571 1146 460 1233 518 1146 b 615 1213 600 1146 615 1168 b 635 1233 615 1226 622 1233 m 824 986 b 860 950 850 986 860 976 l 860 36 b 824 0 860 10 850 0 l 763 0 b 725 18 746 0 733 6 l 329 594 b 258 725 307 628 283 671 l 217 808 l 210 808 b 222 713 210 807 214 775 b 233 550 229 650 233 596 l 233 36 b 196 0 233 10 224 0 l 139 0 b 103 36 113 0 103 10 l 103 950 b 139 986 103 976 113 986 l 200 986 b 236 968 217 986 229 981 l 626 401 b 704 265 651 364 678 319 b 746 179 731 211 744 182 l 753 179 b 742 279 753 182 749 215 b 731 447 735 342 731 399 l 731 950 b 767 986 731 976 739 986 "},"Ò":{"ha":925,"x_min":0,"x_max":0,"o":"m 339 1257 b 400 1260 354 1275 374 1275 l 618 1131 b 621 1096 632 1122 633 1111 l 604 1075 b 563 1072 597 1065 583 1065 l 317 1186 b 311 1224 296 1194 294 1204 m 74 651 b 463 1007 74 874 214 1007 b 851 651 711 1007 851 874 l 851 335 b 463 -21 851 113 711 -21 b 74 335 214 -21 74 113 m 717 651 b 463 882 717 800 625 882 b 208 651 300 882 208 800 l 208 335 b 463 104 208 186 300 104 b 717 335 625 104 717 186 "},"Ó":{"ha":925,"x_min":0,"x_max":0,"o":"m 528 1264 b 589 1263 556 1279 576 1279 l 617 1229 b 613 1190 632 1211 631 1199 l 368 1075 b 326 1076 347 1067 333 1067 l 310 1097 b 313 1132 297 1113 299 1124 m 74 651 b 463 1007 74 874 214 1007 b 851 651 711 1007 851 874 l 851 335 b 463 -21 851 113 711 -21 b 74 335 214 -21 74 113 m 717 651 b 463 882 717 800 625 882 b 208 651 300 882 208 800 l 208 335 b 463 104 208 186 300 104 b 717 335 625 104 717 186 "},"Ô":{"ha":925,"x_min":0,"x_max":0,"o":"m 474 1271 b 533 1242 500 1271 507 1268 l 690 1099 b 674 1071 707 1081 701 1071 l 625 1071 b 572 1090 601 1071 585 1078 l 463 1189 l 351 1090 b 300 1071 339 1078 322 1071 l 254 1071 b 238 1099 228 1071 222 1081 l 394 1242 b 460 1271 422 1269 426 1271 m 74 651 b 463 1007 74 874 214 1007 b 851 651 711 1007 851 874 l 851 335 b 463 -21 851 113 711 -21 b 74 335 214 -21 74 113 m 717 651 b 463 882 717 800 625 882 b 208 651 300 882 208 800 l 208 335 b 463 104 208 186 300 104 b 717 335 625 104 717 186 "},"Õ":{"ha":925,"x_min":0,"x_max":0,"o":"m 650 1247 b 672 1226 665 1247 672 1240 b 560 1081 672 1125 638 1081 b 454 1125 528 1081 492 1096 b 367 1168 417 1154 388 1168 b 321 1101 336 1168 321 1146 b 301 1081 321 1088 314 1081 l 265 1081 b 244 1101 251 1081 244 1088 b 356 1247 244 1199 282 1247 b 551 1160 440 1247 499 1160 b 596 1226 581 1160 596 1182 b 615 1247 596 1240 603 1247 m 74 651 b 463 1007 74 874 214 1007 b 851 651 711 1007 851 874 l 851 335 b 463 -21 851 113 711 -21 b 74 335 214 -21 74 113 m 717 651 b 463 882 717 800 625 882 b 208 651 300 882 208 800 l 208 335 b 463 104 208 186 300 104 b 717 335 625 104 717 186 "},"Ö":{"ha":925,"x_min":0,"x_max":0,"o":"m 331 1229 b 389 1172 375 1229 389 1215 l 389 1160 b 331 1103 389 1117 375 1103 l 321 1103 b 264 1160 278 1103 264 1117 l 264 1172 b 321 1229 264 1215 278 1229 m 604 1229 b 663 1172 647 1229 663 1215 l 663 1160 b 604 1103 663 1117 647 1103 l 596 1103 b 536 1160 550 1103 536 1117 l 536 1172 b 596 1229 536 1215 551 1229 m 74 651 b 463 1007 74 874 214 1007 b 851 651 711 1007 851 874 l 851 335 b 463 -21 851 113 711 -21 b 74 335 214 -21 74 113 m 717 651 b 463 882 717 800 625 882 b 208 651 300 882 208 800 l 208 335 b 463 104 208 186 300 104 b 717 335 625 104 717 186 "},"×":{"ha":708,"x_min":0,"x_max":0,"o":"m 643 265 b 643 215 658 247 658 231 l 614 186 b 564 186 593 168 585 168 l 376 372 l 192 186 b 142 186 175 169 158 169 l 113 215 b 113 265 97 231 97 247 l 297 451 l 113 636 b 113 686 97 654 97 671 l 142 715 b 192 715 158 733 175 733 l 376 531 l 564 717 b 614 717 581 732 597 732 l 643 688 b 643 638 658 669 658 653 l 456 451 "},"Ø":{"ha":925,"x_min":0,"x_max":0,"o":"m 864 1044 b 871 1032 874 1044 875 1040 l 779 889 b 858 651 832 828 858 749 l 858 335 b 469 -21 858 113 719 -19 b 235 36 374 -21 294 -1 l 183 -46 b 158 -57 178 -53 169 -57 l 88 -57 b 81 -43 78 -57 76 -53 l 165 90 b 81 335 108 150 81 231 l 81 651 b 469 1007 81 874 221 1007 b 711 944 568 1007 649 986 l 768 1033 b 792 1044 774 1040 782 1044 m 642 833 b 469 882 596 865 539 882 b 215 651 307 882 215 800 l 215 335 b 250 221 215 288 226 250 m 306 147 b 469 104 349 118 404 104 b 724 335 632 104 724 186 l 724 651 b 694 757 724 694 714 729 "},"Ù":{"ha":951,"x_min":0,"x_max":0,"o":"m 351 1243 b 413 1246 367 1261 386 1261 l 631 1117 b 633 1082 644 1108 646 1097 l 617 1061 b 575 1058 610 1051 596 1051 l 329 1172 b 324 1210 308 1181 307 1190 m 229 336 b 475 104 229 190 314 104 b 721 336 636 104 721 190 l 721 950 b 758 986 721 976 731 986 l 819 986 b 856 950 846 986 856 976 l 856 338 b 475 -21 856 115 724 -21 b 96 338 229 -21 96 115 l 96 950 b 132 986 96 976 104 986 l 193 986 b 229 950 221 986 229 976 "},"Ú":{"ha":951,"x_min":0,"x_max":0,"o":"m 540 1250 b 601 1249 568 1265 589 1265 l 629 1215 b 625 1176 644 1197 643 1185 l 381 1061 b 339 1063 360 1053 346 1053 l 322 1083 b 325 1118 310 1099 311 1110 m 229 336 b 475 104 229 190 314 104 b 721 336 636 104 721 190 l 721 950 b 758 986 721 976 731 986 l 819 986 b 856 950 846 986 856 976 l 856 338 b 475 -21 856 115 724 -21 b 96 338 229 -21 96 115 l 96 950 b 132 986 96 976 104 986 l 193 986 b 229 950 221 986 229 976 "},"Û":{"ha":951,"x_min":0,"x_max":0,"o":"m 486 1257 b 546 1228 513 1257 519 1254 l 703 1085 b 686 1057 719 1067 714 1057 l 638 1057 b 585 1076 614 1057 597 1064 l 475 1175 l 364 1076 b 313 1057 351 1064 335 1057 l 267 1057 b 250 1085 240 1057 235 1067 l 407 1228 b 472 1257 435 1256 439 1257 m 229 336 b 475 104 229 190 314 104 b 721 336 636 104 721 190 l 721 950 b 758 986 721 976 731 986 l 819 986 b 856 950 846 986 856 976 l 856 338 b 475 -21 856 115 724 -21 b 96 338 229 -21 96 115 l 96 950 b 132 986 96 976 104 986 l 193 986 b 229 950 221 986 229 976 "},"Ü":{"ha":951,"x_min":0,"x_max":0,"o":"m 343 1215 b 401 1158 388 1215 401 1201 l 401 1146 b 343 1089 401 1103 388 1089 l 333 1089 b 276 1146 290 1089 276 1103 l 276 1158 b 333 1215 276 1201 290 1215 m 617 1215 b 675 1158 660 1215 675 1201 l 675 1146 b 617 1089 675 1103 660 1089 l 608 1089 b 549 1146 563 1089 549 1103 l 549 1158 b 608 1215 549 1201 564 1215 m 229 336 b 475 104 229 190 314 104 b 721 336 636 104 721 190 l 721 950 b 758 986 721 976 731 986 l 819 986 b 856 950 846 986 856 976 l 856 338 b 475 -21 856 115 724 -21 b 96 338 229 -21 96 115 l 96 950 b 132 986 96 976 104 986 l 193 986 b 229 950 221 986 229 976 "},"Ý":{"ha":881,"x_min":0,"x_max":0,"o":"m 513 1250 b 574 1249 539 1265 560 1264 l 601 1215 b 597 1176 617 1197 615 1185 l 353 1061 b 311 1063 332 1053 318 1053 l 294 1083 b 297 1118 282 1099 283 1110 m 844 986 b 864 950 871 986 878 974 l 511 394 l 511 36 b 475 0 511 10 503 0 l 414 0 b 378 36 386 0 378 10 l 378 397 l 25 950 b 44 986 13 968 18 986 l 119 986 b 190 954 164 986 174 983 l 446 533 l 704 954 b 775 986 721 983 729 986 "},"Þ":{"ha":868,"x_min":0,"x_max":0,"o":"m 496 828 b 829 499 700 828 829 703 b 496 172 829 297 700 172 l 238 172 l 238 36 b 200 0 238 10 228 0 l 139 0 b 103 36 113 0 103 10 l 103 950 b 139 986 103 976 113 986 l 200 986 b 238 950 228 986 238 976 l 238 828 m 483 297 b 689 499 610 297 689 376 b 483 703 689 621 610 703 l 238 703 l 238 297 "},"ß":{"ha":765,"x_min":0,"x_max":0,"o":"m 88 733 b 378 1042 88 921 193 1042 b 675 760 572 1042 675 938 b 560 543 675 653 636 581 l 560 539 b 711 285 661 504 711 419 b 419 0 711 101 604 0 l 326 0 b 289 36 299 0 289 10 l 289 88 b 326 125 289 115 299 125 l 407 125 b 575 300 517 125 575 185 b 413 469 575 404 517 469 l 329 469 b 292 506 301 469 292 479 l 292 554 b 329 590 292 582 301 590 l 401 590 b 544 747 494 590 544 660 b 376 917 544 860 489 917 b 211 735 272 917 211 846 l 211 36 b 175 0 211 10 203 0 l 124 0 b 88 36 97 0 88 10 "},"à":{"ha":717,"x_min":0,"x_max":0,"o":"m 231 1003 b 292 1006 243 1018 264 1019 l 507 874 b 508 838 521 865 521 853 l 493 817 b 451 815 486 807 472 807 l 207 932 b 203 969 189 939 188 951 m 72 592 b 354 738 122 689 217 738 b 642 457 564 738 642 631 l 642 94 b 592 15 642 46 631 32 b 353 -21 536 -8 457 -21 b 114 33 238 -21 157 -3 b 49 200 71 68 49 124 b 358 418 49 361 135 418 b 517 408 408 418 461 415 l 517 461 b 351 626 517 568 474 626 b 179 542 271 626 214 599 b 133 525 163 519 160 515 l 90 544 b 72 592 67 554 61 569 m 517 306 b 344 317 443 313 385 317 b 174 200 217 317 174 282 b 342 83 174 121 213 83 b 496 100 413 83 464 89 b 517 131 510 106 517 115 "},"á":{"ha":717,"x_min":0,"x_max":0,"o":"m 418 1006 b 479 1003 444 1019 465 1018 l 507 969 b 501 932 524 950 522 940 l 258 815 b 217 817 238 807 224 807 l 200 838 b 203 874 188 854 188 867 m 72 592 b 354 738 122 689 217 738 b 642 457 564 738 642 631 l 642 94 b 592 15 642 46 631 32 b 353 -21 536 -8 457 -21 b 114 33 238 -21 157 -3 b 49 200 71 68 49 124 b 358 418 49 361 135 418 b 517 408 408 418 461 415 l 517 461 b 351 626 517 568 474 626 b 179 542 271 626 214 599 b 133 525 163 519 160 515 l 90 544 b 72 592 67 554 61 569 m 517 306 b 344 317 443 313 385 317 b 174 200 217 317 174 282 b 342 83 174 121 213 83 b 496 100 413 83 464 89 b 517 131 510 106 517 115 "},"â":{"ha":717,"x_min":0,"x_max":0,"o":"m 363 1007 b 424 978 390 1007 397 1004 l 581 835 b 564 807 596 822 592 807 l 515 807 b 461 826 492 807 474 814 l 353 925 l 240 826 b 189 807 228 814 211 807 l 143 807 b 128 835 117 807 113 822 l 285 978 b 349 1007 311 1006 317 1007 m 72 592 b 354 738 122 689 217 738 b 642 457 564 738 642 631 l 642 94 b 592 15 642 46 631 32 b 353 -21 536 -8 457 -21 b 114 33 238 -21 157 -3 b 49 200 71 68 49 124 b 358 418 49 361 135 418 b 517 408 408 418 461 415 l 517 461 b 351 626 517 568 474 626 b 179 542 271 626 214 599 b 133 525 163 519 160 515 l 90 544 b 72 592 67 554 61 569 m 517 306 b 344 317 443 313 385 317 b 174 200 217 317 174 282 b 342 83 174 121 213 83 b 496 100 413 83 464 89 b 517 131 510 106 517 115 "},"ã":{"ha":717,"x_min":0,"x_max":0,"o":"m 540 992 b 561 971 554 992 561 985 b 449 825 561 869 526 825 b 344 868 417 825 382 839 b 257 911 307 897 278 911 b 211 846 226 911 211 889 b 190 825 211 832 204 825 l 156 825 b 133 846 140 825 133 832 b 246 992 133 943 171 992 b 440 904 329 992 388 904 b 485 971 469 904 485 926 b 506 992 485 985 492 992 m 72 592 b 354 738 122 689 217 738 b 642 457 564 738 642 631 l 642 94 b 592 15 642 46 631 32 b 353 -21 536 -8 457 -21 b 114 33 238 -21 157 -3 b 49 200 71 68 49 124 b 358 418 49 361 135 418 b 517 408 408 418 461 415 l 517 461 b 351 626 517 568 474 626 b 179 542 271 626 214 599 b 133 525 163 519 160 515 l 90 544 b 72 592 67 554 61 569 m 517 306 b 344 317 443 313 385 317 b 174 200 217 317 174 282 b 342 83 174 121 213 83 b 496 100 413 83 464 89 b 517 131 510 106 517 115 "},"ä":{"ha":717,"x_min":0,"x_max":0,"o":"m 221 968 b 279 911 265 968 279 954 l 279 899 b 221 842 279 856 265 842 l 211 842 b 154 899 168 842 154 856 l 154 911 b 211 968 154 954 168 968 m 494 968 b 551 911 538 968 551 954 l 551 899 b 494 842 551 856 538 842 l 485 842 b 426 899 440 842 426 856 l 426 911 b 485 968 426 954 440 968 m 72 592 b 354 738 122 689 217 738 b 642 457 564 738 642 631 l 642 94 b 592 15 642 46 631 32 b 353 -21 536 -8 457 -21 b 114 33 238 -21 157 -3 b 49 200 71 68 49 124 b 358 418 49 361 135 418 b 517 408 408 418 461 415 l 517 461 b 351 626 517 568 474 626 b 179 542 271 626 214 599 b 133 525 163 519 160 515 l 90 544 b 72 592 67 554 61 569 m 517 306 b 344 317 443 313 385 317 b 174 200 217 317 174 282 b 342 83 174 121 213 83 b 496 100 413 83 464 89 b 517 131 510 106 517 115 "},"å":{"ha":717,"x_min":0,"x_max":0,"o":"m 211 944 b 358 1088 211 1029 271 1088 b 501 944 443 1088 501 1029 b 358 804 501 861 443 804 b 211 944 271 804 211 861 m 438 944 b 358 1024 438 993 407 1024 b 275 944 308 1024 275 993 b 358 867 275 899 308 867 b 438 944 407 867 438 899 m 72 592 b 354 738 122 689 217 738 b 642 457 564 738 642 631 l 642 94 b 592 15 642 46 631 32 b 353 -21 536 -8 457 -21 b 114 33 238 -21 157 -3 b 49 200 71 68 49 124 b 358 418 49 361 135 418 b 517 408 408 418 461 415 l 517 461 b 351 626 517 568 474 626 b 179 542 271 626 214 599 b 133 525 163 519 160 515 l 90 544 b 72 592 67 554 61 569 m 517 306 b 344 317 443 313 385 317 b 174 200 217 317 174 282 b 342 83 174 121 213 83 b 496 100 413 83 464 89 b 517 131 510 106 517 115 "},"æ":{"ha":1101,"x_min":0,"x_max":0,"o":"m 74 592 b 333 738 124 689 210 738 b 542 636 433 738 503 704 b 761 738 585 704 658 738 b 1049 451 956 738 1049 625 l 1049 369 b 999 321 1049 338 1032 321 l 599 321 l 599 253 b 760 88 599 143 653 88 b 925 182 843 88 888 119 b 978 196 942 206 954 208 l 1017 175 b 1029 121 1040 163 1044 144 b 758 -21 975 28 899 -21 b 564 49 672 -21 607 3 b 331 -21 504 3 426 -21 b 110 32 224 -21 150 -3 b 49 199 69 67 49 122 b 336 417 49 360 126 417 b 474 407 369 417 415 414 l 474 475 b 331 626 474 574 440 626 b 181 542 265 626 215 599 b 135 526 164 519 158 517 l 92 544 b 74 592 68 554 61 571 m 925 458 b 761 632 925 574 871 632 b 599 458 653 632 599 574 l 599 417 l 925 417 m 474 306 b 324 315 406 313 356 315 b 175 199 211 315 175 281 b 319 83 175 119 207 83 b 479 139 438 85 479 124 b 474 219 475 161 474 188 "},"ç":{"ha":715,"x_min":0,"x_max":0,"o":"m 646 218 b 669 171 669 208 678 193 b 411 -18 628 56 542 -8 l 383 -92 b 410 -89 393 -90 401 -89 b 528 -207 483 -89 533 -139 b 353 -340 521 -300 451 -340 b 246 -318 308 -340 272 -333 b 226 -286 233 -312 226 -301 l 226 -253 b 243 -239 226 -237 232 -232 b 338 -267 272 -257 303 -267 b 421 -201 393 -267 421 -244 b 349 -151 421 -169 397 -153 b 307 -156 333 -151 319 -153 b 290 -128 289 -157 281 -149 l 335 -19 b 63 260 153 -10 63 92 l 63 458 b 374 738 63 635 167 738 b 667 551 531 738 628 675 b 644 504 675 528 668 513 l 596 489 b 549 511 574 479 558 486 b 368 628 524 589 464 628 b 188 464 250 628 188 568 l 188 254 b 368 89 188 150 250 89 b 550 210 464 89 524 129 b 597 232 561 236 571 242 "},"è":{"ha":742,"x_min":0,"x_max":0,"o":"m 253 1003 b 314 1006 265 1021 286 1021 l 529 874 b 531 838 543 865 543 853 l 515 818 b 474 815 508 808 494 808 l 229 932 b 225 969 211 939 210 951 m 61 440 b 375 738 61 629 171 738 b 689 450 581 738 689 622 l 689 369 b 638 321 689 338 672 321 l 185 321 l 185 254 b 371 88 185 147 250 88 b 564 183 461 88 526 119 b 618 196 581 207 594 211 l 656 176 b 668 122 679 164 683 146 b 369 -21 614 26 514 -21 b 61 268 163 -21 61 90 m 565 457 b 375 632 565 568 499 632 b 185 457 251 632 185 567 l 185 417 l 565 417 "},"é":{"ha":742,"x_min":0,"x_max":0,"o":"m 440 1006 b 501 1003 467 1021 488 1019 l 529 969 b 524 932 546 950 544 940 l 281 815 b 239 818 260 808 246 808 l 222 838 b 225 874 210 854 210 867 m 61 440 b 375 738 61 629 171 738 b 689 450 581 738 689 622 l 689 369 b 638 321 689 338 672 321 l 185 321 l 185 254 b 371 88 185 147 250 88 b 564 183 461 88 526 119 b 618 196 581 207 594 211 l 656 176 b 668 122 679 164 683 146 b 369 -21 614 26 514 -21 b 61 268 163 -21 61 90 m 565 457 b 375 632 565 568 499 632 b 185 457 251 632 185 567 l 185 417 l 565 417 "},"ê":{"ha":742,"x_min":0,"x_max":0,"o":"m 385 1001 b 444 972 411 1001 418 999 l 597 832 b 582 806 613 814 608 806 l 533 806 b 481 824 510 806 493 811 l 375 921 l 265 824 b 215 806 253 811 236 806 l 169 806 b 154 832 143 806 139 814 l 308 972 b 371 1001 335 999 342 1001 m 61 440 b 375 738 61 629 171 738 b 689 450 581 738 689 622 l 689 369 b 638 321 689 338 672 321 l 185 321 l 185 254 b 371 88 185 147 250 88 b 564 183 461 88 526 119 b 618 196 581 207 594 211 l 656 176 b 668 122 679 164 683 146 b 369 -21 614 26 514 -21 b 61 268 163 -21 61 90 m 565 457 b 375 632 565 568 499 632 b 185 457 251 632 185 567 l 185 417 l 565 417 "},"ë":{"ha":742,"x_min":0,"x_max":0,"o":"m 243 968 b 301 911 288 968 301 954 l 301 900 b 243 842 301 856 288 842 l 233 842 b 176 900 190 842 176 856 l 176 911 b 233 968 176 954 190 968 m 517 968 b 574 911 560 968 574 954 l 574 900 b 517 842 574 856 560 842 l 507 842 b 449 900 463 842 449 856 l 449 911 b 507 968 449 954 463 968 m 61 440 b 375 738 61 629 171 738 b 689 450 581 738 689 622 l 689 369 b 638 321 689 338 672 321 l 185 321 l 185 254 b 371 88 185 147 250 88 b 564 183 461 88 526 119 b 618 196 581 207 594 211 l 656 176 b 668 122 679 164 683 146 b 369 -21 614 26 514 -21 b 61 268 163 -21 61 90 m 565 457 b 375 632 565 568 499 632 b 185 457 251 632 185 567 l 185 417 l 565 417 "},"ì":{"ha":296,"x_min":0,"x_max":0,"o":"m 49 1000 b 110 1003 64 1018 85 1018 l 286 874 b 289 838 300 864 301 853 l 274 817 b 231 815 265 807 251 807 l 26 928 b 21 967 4 939 4 946 m 179 717 b 213 683 206 717 213 710 l 213 33 b 179 0 213 7 206 0 l 121 0 b 88 33 94 0 88 7 l 88 683 b 121 717 88 710 94 717 "},"í":{"ha":296,"x_min":0,"x_max":0,"o":"m 213 1003 b 274 1000 238 1019 258 1018 l 300 967 b 296 928 317 946 318 938 l 90 815 b 49 817 69 807 56 807 l 33 836 b 36 872 21 851 21 864 m 197 717 b 229 683 221 717 229 707 l 229 33 b 197 0 229 10 221 0 l 139 0 b 106 33 113 0 106 7 l 106 683 b 139 717 106 710 113 717 "},"î":{"ha":296,"x_min":0,"x_max":0,"o":"m 357 838 b 340 811 372 819 367 811 l 297 811 b 244 829 269 811 251 817 l 168 922 l 89 829 b 68 813 83 819 79 814 b 39 811 57 811 60 811 l -3 811 b -19 838 -28 811 -33 819 l 101 974 b 164 1003 124 1001 132 1003 l 178 1003 b 236 974 206 1003 214 1001 m 199 717 b 231 683 222 717 231 707 l 231 33 b 199 0 231 10 222 0 l 140 0 b 107 33 114 0 107 7 l 107 683 b 140 717 107 710 114 717 "},"ï":{"ha":296,"x_min":0,"x_max":0,"o":"m 42 979 b 100 921 86 979 100 964 l 100 910 b 42 853 100 867 86 853 l 32 853 b -25 910 -11 853 -25 867 l -25 921 b 32 979 -25 964 -11 979 m 264 979 b 322 921 308 979 322 964 l 322 910 b 264 853 322 867 308 853 l 256 853 b 197 910 211 853 197 867 l 197 921 b 256 979 197 964 211 979 m 178 717 b 210 683 201 717 210 707 l 210 33 b 178 0 210 10 201 0 l 119 0 b 86 33 93 0 86 7 l 86 683 b 119 717 86 710 93 717 "},"ð":{"ha":767,"x_min":0,"x_max":0,"o":"m 563 1038 b 588 1039 569 1046 578 1046 l 622 1014 b 624 988 632 1007 632 997 l 567 928 b 688 553 647 854 688 729 l 688 254 b 375 -21 688 81 579 -21 b 63 254 171 -21 63 81 l 63 425 b 350 701 63 596 172 701 b 569 607 460 701 532 669 b 486 836 567 711 539 788 l 410 754 b 383 753 403 746 393 746 l 353 774 b 351 800 343 782 343 790 l 421 875 b 206 917 368 903 296 917 b 169 949 178 917 171 925 l 169 997 b 201 1031 169 1024 178 1031 b 501 971 328 1031 428 1011 m 563 426 b 375 589 563 532 497 589 b 188 425 253 589 188 531 l 188 256 b 375 92 188 150 253 92 b 563 256 497 92 563 150 "},"ñ":{"ha":765,"x_min":0,"x_max":0,"o":"m 571 992 b 592 971 585 992 592 985 b 479 825 592 869 557 825 b 374 869 447 825 411 840 b 286 913 336 899 307 913 b 242 846 257 913 242 890 b 221 825 242 832 235 825 l 185 825 b 164 846 171 825 164 832 b 275 992 164 943 201 992 b 385 949 310 992 347 978 b 471 906 422 919 451 906 b 515 971 500 906 515 928 b 536 992 515 985 522 992 m 138 690 b 403 738 214 722 303 738 b 685 463 590 738 685 646 l 685 33 b 651 0 685 7 675 0 l 593 0 b 560 33 569 0 560 7 l 560 458 b 386 624 560 568 501 624 b 225 599 331 624 276 615 b 208 574 214 594 208 586 l 208 33 b 175 0 208 7 201 0 l 117 0 b 85 33 93 0 85 10 l 85 613 b 138 690 85 657 94 672 "},"ò":{"ha":751,"x_min":0,"x_max":0,"o":"m 253 1003 b 314 1006 267 1018 288 1019 l 529 874 b 532 838 543 865 544 853 l 515 817 b 474 815 508 807 494 807 l 229 932 b 225 969 211 939 210 951 m 64 471 b 375 738 64 638 181 738 b 688 471 574 738 688 638 l 688 244 b 375 -21 688 79 574 -21 b 64 244 181 -21 64 79 m 564 472 b 375 625 564 568 493 625 b 188 472 258 625 188 568 l 188 244 b 375 92 188 149 258 92 b 564 244 493 92 564 149 "},"ó":{"ha":751,"x_min":0,"x_max":0,"o":"m 440 1006 b 501 1003 467 1019 488 1018 l 529 969 b 524 932 544 951 543 939 l 281 815 b 239 817 260 807 246 807 l 222 838 b 225 874 210 853 211 865 m 64 471 b 375 738 64 638 181 738 b 688 471 574 738 688 638 l 688 244 b 375 -21 688 79 574 -21 b 64 244 181 -21 64 79 m 564 472 b 375 625 564 568 493 625 b 188 472 258 625 188 568 l 188 244 b 375 92 188 149 258 92 b 564 244 493 92 564 149 "},"ô":{"ha":751,"x_min":0,"x_max":0,"o":"m 385 1000 b 444 972 413 1000 418 999 l 597 832 b 582 806 613 814 608 806 l 533 806 b 481 824 510 806 492 811 l 375 919 l 265 824 b 215 806 253 811 236 806 l 171 806 b 154 832 144 806 139 814 l 308 972 b 371 1000 335 999 339 1000 m 64 471 b 375 738 64 638 181 738 b 688 471 574 738 688 638 l 688 244 b 375 -21 688 79 574 -21 b 64 244 181 -21 64 79 m 564 472 b 375 625 564 568 493 625 b 188 472 258 625 188 568 l 188 244 b 375 92 188 149 258 92 b 564 244 493 92 564 149 "},"õ":{"ha":751,"x_min":0,"x_max":0,"o":"m 563 992 b 583 971 576 992 583 985 b 471 825 583 869 549 825 b 367 868 439 825 404 839 b 279 911 329 897 300 911 b 233 846 249 911 233 889 b 214 825 233 832 226 825 l 178 825 b 157 846 164 825 157 832 b 268 992 157 943 194 992 b 378 949 303 992 340 978 b 463 904 415 919 443 904 b 508 971 493 904 508 926 b 528 992 508 985 515 992 m 64 471 b 375 738 64 638 181 738 b 688 471 574 738 688 638 l 688 244 b 375 -21 688 79 574 -21 b 64 244 181 -21 64 79 m 564 472 b 375 625 564 568 493 625 b 188 472 258 625 188 568 l 188 244 b 375 92 188 149 258 92 b 564 244 493 92 564 149 "},"ö":{"ha":751,"x_min":0,"x_max":0,"o":"m 243 968 b 301 911 288 968 301 954 l 301 899 b 243 842 301 856 288 842 l 233 842 b 176 899 190 842 176 856 l 176 911 b 233 968 176 954 190 968 m 517 968 b 574 911 560 968 574 954 l 574 899 b 517 842 574 856 560 842 l 507 842 b 449 899 463 842 449 856 l 449 911 b 507 968 449 954 463 968 m 64 471 b 375 738 64 638 181 738 b 688 471 574 738 688 638 l 688 244 b 375 -21 688 79 574 -21 b 64 244 181 -21 64 79 m 564 472 b 375 625 564 568 493 625 b 188 472 258 625 188 568 l 188 244 b 375 92 188 149 258 92 b 564 244 493 92 564 149 "},"÷":{"ha":786,"x_min":0,"x_max":0,"o":"m 397 792 b 468 722 451 792 468 776 l 468 711 b 397 640 468 657 451 640 l 389 640 b 318 711 335 640 318 657 l 318 722 b 389 792 318 774 335 792 m 685 511 b 721 475 711 511 721 503 l 721 428 b 685 392 721 400 711 392 l 103 392 b 67 428 75 392 67 400 l 67 475 b 103 511 67 503 75 511 m 397 264 b 468 193 451 264 468 247 l 468 182 b 397 113 468 128 451 113 l 389 113 b 318 182 335 113 318 128 l 318 193 b 389 264 318 247 338 264 "},"ø":{"ha":751,"x_min":0,"x_max":0,"o":"m 661 767 b 667 754 668 767 671 763 l 610 664 b 688 471 661 617 688 553 l 688 244 b 375 -21 688 79 574 -21 b 200 17 308 -21 250 -8 l 165 -37 b 140 -49 160 -44 151 -49 l 92 -49 b 86 -36 82 -49 79 -44 l 143 54 b 64 244 90 100 64 163 l 64 471 b 375 738 64 638 181 738 b 553 700 446 738 506 725 l 589 756 b 611 767 594 763 601 767 m 489 599 b 375 625 457 617 418 625 b 188 472 258 625 188 568 l 188 244 b 218 171 188 215 197 192 m 263 118 b 375 92 294 100 332 92 b 564 244 493 92 564 149 l 564 472 b 535 546 564 501 554 526 "},"ù":{"ha":765,"x_min":0,"x_max":0,"o":"m 258 1003 b 319 1006 272 1018 293 1019 l 535 874 b 538 838 549 865 550 853 l 521 817 b 479 815 514 807 500 807 l 235 932 b 231 969 217 939 215 951 m 647 717 b 681 683 674 717 681 710 l 681 104 b 628 26 681 60 671 44 b 363 -21 543 -6 456 -21 b 81 254 175 -21 81 71 l 81 683 b 114 717 81 710 88 717 l 172 717 b 204 683 196 717 204 707 l 204 258 b 379 93 204 149 263 93 b 536 117 433 93 485 101 b 557 149 550 124 557 133 l 557 683 b 590 717 557 710 567 717 "},"ú":{"ha":765,"x_min":0,"x_max":0,"o":"m 446 1006 b 507 1003 472 1019 493 1018 l 535 969 b 529 932 550 951 549 939 l 286 815 b 244 817 265 807 251 807 l 228 838 b 231 874 215 853 217 865 m 647 717 b 681 683 674 717 681 710 l 681 104 b 628 26 681 60 671 44 b 363 -21 543 -6 456 -21 b 81 254 175 -21 81 71 l 81 683 b 114 717 81 710 88 717 l 172 717 b 204 683 196 717 204 707 l 204 258 b 379 93 204 149 263 93 b 536 117 433 93 485 101 b 557 149 550 124 557 133 l 557 683 b 590 717 557 710 567 717 "},"û":{"ha":765,"x_min":0,"x_max":0,"o":"m 390 1007 b 451 978 418 1007 425 1004 l 608 835 b 592 807 624 822 619 807 l 543 807 b 489 826 519 807 501 814 l 381 925 l 269 826 b 218 807 257 814 239 807 l 171 807 b 156 835 144 807 140 822 l 313 978 b 376 1007 340 1006 344 1007 m 647 717 b 681 683 674 717 681 710 l 681 104 b 628 26 681 60 671 44 b 363 -21 543 -6 456 -21 b 81 254 175 -21 81 71 l 81 683 b 114 717 81 710 88 717 l 172 717 b 204 683 196 717 204 707 l 204 258 b 379 93 204 149 263 93 b 536 117 433 93 485 101 b 557 149 550 124 557 133 l 557 683 b 590 717 557 710 567 717 "},"ü":{"ha":765,"x_min":0,"x_max":0,"o":"m 249 968 b 307 911 293 968 307 954 l 307 899 b 249 842 307 856 293 842 l 239 842 b 182 899 196 842 182 856 l 182 911 b 239 968 182 954 196 968 m 522 968 b 579 911 565 968 579 954 l 579 899 b 522 842 579 856 565 842 l 513 842 b 454 899 468 842 454 856 l 454 911 b 513 968 454 954 468 968 m 647 717 b 681 683 674 717 681 710 l 681 104 b 628 26 681 60 671 44 b 363 -21 543 -6 456 -21 b 81 254 175 -21 81 71 l 81 683 b 114 717 81 710 88 717 l 172 717 b 204 683 196 717 204 707 l 204 258 b 379 93 204 149 263 93 b 536 117 433 93 485 101 b 557 149 550 124 557 133 l 557 683 b 590 717 557 710 567 717 "},"ý":{"ha":768,"x_min":0,"x_max":0,"o":"m 450 1006 b 511 1003 476 1019 497 1018 l 539 969 b 533 932 554 951 553 939 l 290 815 b 249 817 269 807 256 807 l 232 838 b 235 874 219 853 221 865 m 651 717 b 685 683 678 717 685 710 l 685 -35 b 385 -335 685 -235 585 -335 b 103 -193 250 -335 157 -287 b 117 -140 88 -169 93 -153 l 157 -118 b 211 -131 183 -106 194 -108 b 383 -224 247 -193 304 -224 b 561 -40 501 -224 561 -162 l 561 35 b 367 6 490 15 425 6 b 85 281 179 6 85 97 l 85 683 b 118 717 85 710 92 717 l 176 717 b 208 683 200 717 208 707 l 208 285 b 383 119 208 175 267 119 b 561 149 439 119 499 129 l 561 683 b 594 717 561 710 571 717 "},"þ":{"ha":751,"x_min":0,"x_max":0,"o":"m 88 994 b 121 1026 88 1018 97 1026 l 179 1026 b 211 994 203 1026 211 1018 l 211 703 b 397 732 276 722 339 732 b 688 453 590 732 688 639 l 688 263 b 392 -21 688 74 589 -21 b 211 17 343 -21 283 -8 l 211 -272 b 179 -306 211 -296 203 -306 l 121 -306 b 88 -272 97 -306 88 -299 m 564 450 b 381 619 564 563 503 619 b 211 586 335 619 278 608 l 211 128 b 383 93 281 104 338 93 b 564 265 504 93 564 150 "},"ÿ":{"ha":768,"x_min":0,"x_max":0,"o":"m 253 968 b 311 911 297 968 311 954 l 311 899 b 253 842 311 856 297 842 l 243 842 b 186 899 200 842 186 856 l 186 911 b 243 968 186 954 200 968 m 526 968 b 583 911 569 968 583 954 l 583 899 b 526 842 583 856 569 842 l 517 842 b 458 899 472 842 458 856 l 458 911 b 517 968 458 954 472 968 m 651 717 b 685 683 678 717 685 710 l 685 -35 b 385 -335 685 -235 585 -335 b 103 -193 250 -335 157 -287 b 117 -140 88 -169 93 -153 l 157 -118 b 211 -131 183 -106 194 -108 b 383 -224 247 -193 304 -224 b 561 -40 501 -224 561 -162 l 561 35 b 367 6 490 15 425 6 b 85 281 179 6 85 97 l 85 683 b 118 717 85 710 92 717 l 176 717 b 208 683 200 717 208 707 l 208 285 b 383 119 208 175 267 119 b 561 149 439 119 499 129 l 561 683 b 594 717 561 710 571 717 "},"Ā":{"ha":901,"x_min":0,"x_max":0,"o":"m 625 1193 b 656 1163 649 1193 656 1186 l 656 1135 b 625 1103 656 1108 649 1103 l 300 1103 b 269 1135 276 1103 269 1108 l 269 1163 b 300 1193 269 1186 278 1193 m 897 36 b 872 0 906 13 897 0 l 818 0 b 751 32 774 0 761 6 l 665 258 l 254 258 l 168 32 b 101 0 158 6 146 0 l 53 0 b 28 36 28 0 19 13 l 389 958 b 435 989 396 979 411 989 l 490 989 b 536 960 514 989 529 979 m 489 733 b 464 864 472 782 464 826 l 456 864 l 454 844 b 432 735 453 821 444 772 l 292 368 l 628 368 "},"ā":{"ha":717,"x_min":0,"x_max":0,"o":"m 515 947 b 546 915 539 947 546 942 l 546 888 b 515 857 546 864 539 857 l 190 857 b 158 888 164 857 158 864 l 158 915 b 190 947 158 939 168 947 m 72 592 b 354 738 122 689 217 738 b 642 457 564 738 642 631 l 642 94 b 592 15 642 46 631 32 b 353 -21 536 -8 457 -21 b 114 33 238 -21 157 -3 b 49 200 71 68 49 124 b 358 418 49 361 135 418 b 517 408 408 418 461 415 l 517 461 b 351 626 517 568 474 626 b 179 542 271 626 214 599 b 133 525 163 519 160 515 l 90 544 b 72 592 67 554 61 569 m 517 306 b 344 317 443 313 385 317 b 174 200 217 317 174 282 b 342 83 174 121 213 83 b 496 100 413 83 464 89 b 517 131 510 106 517 115 "},"Ă":{"ha":901,"x_min":0,"x_max":0,"o":"m 676 1204 b 463 1058 643 1107 572 1058 b 251 1204 356 1058 281 1110 b 265 1236 247 1219 251 1231 l 308 1253 b 343 1240 326 1257 338 1253 b 463 1149 360 1179 400 1149 b 583 1240 525 1149 565 1179 b 611 1253 589 1253 599 1257 l 661 1236 b 676 1204 676 1229 681 1218 m 897 36 b 872 0 906 13 897 0 l 818 0 b 751 32 774 0 761 6 l 665 258 l 254 258 l 168 32 b 101 0 158 6 146 0 l 53 0 b 28 36 28 0 19 13 l 389 958 b 435 989 396 979 411 989 l 490 989 b 536 960 514 989 529 979 m 489 733 b 464 864 472 782 464 826 l 456 864 l 454 844 b 432 735 453 821 444 772 l 292 368 l 628 368 "},"ă":{"ha":717,"x_min":0,"x_max":0,"o":"m 567 957 b 353 811 535 860 463 811 b 142 957 242 811 171 860 b 156 989 138 972 142 983 l 199 1006 b 233 993 217 1010 228 1006 b 353 901 250 932 290 901 b 474 993 415 901 456 932 b 501 1006 479 1006 489 1010 l 551 989 b 567 957 567 982 571 971 m 72 592 b 354 738 122 689 217 738 b 642 457 564 738 642 631 l 642 94 b 592 15 642 46 631 32 b 353 -21 536 -8 457 -21 b 114 33 238 -21 157 -3 b 49 200 71 68 49 124 b 358 418 49 361 135 418 b 517 408 408 418 461 415 l 517 461 b 351 626 517 568 474 626 b 179 542 271 626 214 599 b 133 525 163 519 160 515 l 90 544 b 72 592 67 554 61 569 m 517 306 b 344 317 443 313 385 317 b 174 200 217 317 174 282 b 342 83 174 121 213 83 b 496 100 413 83 464 89 b 517 131 510 106 517 115 "},"Ą":{"ha":900,"x_min":0,"x_max":0,"o":"m 494 989 b 540 960 518 989 533 979 l 900 35 b 897 1 906 19 904 8 b 781 -215 813 -76 765 -171 b 882 -226 796 -261 850 -258 b 903 -232 893 -219 900 -222 l 918 -268 b 917 -293 922 -278 922 -286 b 788 -342 882 -325 839 -342 b 674 -265 724 -342 686 -317 b 803 3 656 -189 701 -86 b 753 36 769 4 763 13 l 667 263 l 260 263 l 171 32 b 106 0 161 6 150 0 l 56 0 b 32 36 29 0 22 13 l 392 958 b 438 989 401 982 411 989 m 532 638 b 493 771 519 674 506 718 b 468 863 481 824 472 854 l 460 863 b 436 772 456 854 449 824 b 396 638 424 719 410 675 l 299 374 l 629 374 "},"ą":{"ha":719,"x_min":0,"x_max":0,"o":"m 72 592 b 354 738 122 689 217 738 b 642 457 564 738 642 631 l 642 94 b 625 36 642 68 636 49 b 506 -215 531 -68 490 -167 b 551 -249 513 -237 528 -249 b 607 -226 574 -249 592 -242 b 628 -232 618 -219 625 -221 l 643 -268 b 642 -292 647 -279 646 -287 b 514 -342 607 -325 564 -342 b 399 -265 449 -342 410 -317 b 508 -6 382 -194 424 -90 b 353 -21 463 -15 411 -21 b 114 33 238 -21 157 -3 b 49 200 71 68 49 124 b 358 418 49 361 135 418 b 517 408 408 418 461 415 l 517 461 b 351 626 517 568 474 626 b 179 542 271 626 214 599 b 133 525 163 519 160 515 l 90 544 b 72 592 67 554 61 569 m 517 306 b 344 317 443 313 385 317 b 174 200 217 317 174 282 b 342 83 174 121 213 83 b 496 100 413 83 464 89 b 517 131 510 106 517 115 "},"Ć":{"ha":886,"x_min":0,"x_max":0,"o":"m 533 1250 b 594 1249 560 1265 579 1265 l 621 1215 b 617 1176 636 1197 635 1185 l 374 1061 b 331 1063 353 1053 338 1053 l 315 1083 b 317 1118 303 1099 303 1110 m 74 651 b 463 1007 74 874 214 1007 b 836 771 660 1007 785 928 b 813 724 843 747 836 732 l 756 704 b 708 726 729 694 718 700 b 463 882 674 832 600 882 b 208 653 297 882 208 799 l 208 333 b 463 104 208 189 300 104 b 710 263 601 104 675 156 b 757 286 719 290 731 296 l 814 265 b 838 218 838 258 846 242 b 463 -21 786 58 661 -21 b 74 335 214 -21 74 113 "},"ć":{"ha":717,"x_min":0,"x_max":0,"o":"m 439 1006 b 500 1003 465 1019 486 1018 l 528 969 b 522 932 544 950 543 940 l 279 815 b 238 817 258 807 244 807 l 221 838 b 224 874 208 854 208 867 m 63 458 b 374 738 63 635 167 738 b 667 551 531 738 628 675 b 644 504 675 528 668 513 l 596 489 b 549 511 574 479 558 486 b 368 628 524 589 464 628 b 188 464 250 628 188 568 l 188 254 b 368 89 188 150 250 89 b 550 210 464 89 524 129 b 597 232 561 236 571 242 l 646 218 b 669 171 669 208 678 193 b 365 -21 624 43 522 -21 b 63 260 164 -21 63 82 "},"Ĉ":{"ha":886,"x_min":0,"x_max":0,"o":"m 478 1257 b 539 1228 504 1257 511 1254 l 694 1085 b 679 1057 711 1067 706 1057 l 631 1057 b 576 1076 607 1057 589 1064 l 468 1175 l 356 1076 b 304 1057 343 1064 326 1057 l 258 1057 b 242 1085 232 1057 226 1067 l 400 1228 b 464 1257 426 1256 431 1257 m 74 651 b 463 1007 74 874 214 1007 b 836 771 660 1007 785 928 b 813 724 843 747 836 732 l 756 704 b 708 726 729 694 718 700 b 463 882 674 832 600 882 b 208 653 297 882 208 799 l 208 333 b 463 104 208 189 300 104 b 710 263 601 104 675 156 b 757 286 719 290 731 296 l 814 265 b 838 218 838 258 846 242 b 463 -21 786 58 661 -21 b 74 335 214 -21 74 113 "},"ĉ":{"ha":717,"x_min":0,"x_max":0,"o":"m 383 1000 b 443 972 411 1000 417 999 l 596 832 b 581 806 611 814 607 806 l 532 806 b 479 824 508 806 490 811 l 374 919 l 264 824 b 214 806 251 811 235 806 l 168 806 b 153 832 142 806 138 814 l 307 972 b 369 1000 333 999 338 1000 m 63 458 b 374 738 63 635 167 738 b 667 551 531 738 628 675 b 644 504 675 528 668 513 l 596 489 b 549 511 574 479 558 486 b 368 628 524 589 464 628 b 188 464 250 628 188 568 l 188 254 b 368 89 188 150 250 89 b 550 210 464 89 524 129 b 597 232 561 236 571 242 l 646 218 b 669 171 669 208 678 193 b 365 -21 624 43 522 -21 b 63 260 164 -21 63 82 "},"Ċ":{"ha":886,"x_min":0,"x_max":0,"o":"m 471 1214 b 531 1154 517 1214 531 1200 l 531 1144 b 471 1085 531 1099 517 1085 l 464 1085 b 404 1144 418 1085 404 1099 l 404 1154 b 464 1214 404 1200 418 1214 m 74 651 b 463 1007 74 874 214 1007 b 836 771 660 1007 785 928 b 813 724 843 747 836 732 l 756 704 b 708 726 729 694 718 700 b 463 882 674 832 600 882 b 208 653 297 882 208 799 l 208 333 b 463 104 208 189 300 104 b 710 263 601 104 675 156 b 757 286 719 290 731 296 l 814 265 b 838 218 838 258 846 242 b 463 -21 786 58 661 -21 b 74 335 214 -21 74 113 "},"ċ":{"ha":717,"x_min":0,"x_max":0,"o":"m 378 967 b 436 907 424 967 436 953 l 436 897 b 378 838 436 851 424 838 l 369 838 b 310 897 324 838 310 851 l 310 907 b 369 967 310 953 324 967 m 63 458 b 374 738 63 635 167 738 b 667 551 531 738 628 675 b 644 504 675 528 668 513 l 596 489 b 549 511 574 479 558 486 b 368 628 524 589 464 628 b 188 464 250 628 188 568 l 188 254 b 368 89 188 150 250 89 b 550 210 464 89 524 129 b 597 232 561 236 571 242 l 646 218 b 669 171 669 208 678 193 b 365 -21 624 43 522 -21 b 63 260 164 -21 63 82 "},"Č":{"ha":886,"x_min":0,"x_max":0,"o":"m 675 1256 b 692 1228 703 1256 707 1243 l 535 1085 b 474 1056 508 1058 501 1056 l 461 1056 b 396 1085 428 1056 424 1057 l 239 1228 b 256 1256 224 1243 228 1256 l 301 1256 b 353 1236 322 1256 340 1249 l 464 1138 l 572 1236 b 626 1256 585 1249 603 1256 m 74 651 b 463 1007 74 874 214 1007 b 836 771 660 1007 785 928 b 813 724 843 747 836 732 l 756 704 b 708 726 729 694 718 700 b 463 882 674 832 600 882 b 208 653 297 882 208 799 l 208 333 b 463 104 208 189 300 104 b 710 263 601 104 675 156 b 757 286 719 290 731 296 l 814 265 b 838 218 838 258 846 242 b 463 -21 786 58 661 -21 b 74 335 214 -21 74 113 "},"č":{"ha":717,"x_min":0,"x_max":0,"o":"m 564 983 b 578 958 588 983 593 971 l 435 826 b 379 799 411 800 403 799 l 367 799 b 308 826 339 799 332 800 l 164 958 b 178 983 149 975 154 983 l 221 983 b 268 967 242 983 257 978 l 371 875 l 469 967 b 519 983 481 978 497 983 m 63 458 b 374 738 63 635 167 738 b 667 551 531 738 628 675 b 644 504 675 528 668 513 l 596 489 b 549 511 574 479 558 486 b 368 628 524 589 464 628 b 188 464 250 628 188 568 l 188 254 b 368 89 188 150 250 89 b 550 210 464 89 524 129 b 597 232 561 236 571 242 l 646 218 b 669 171 669 208 678 193 b 365 -21 624 43 522 -21 b 63 260 164 -21 63 82 "},"Ď":{"ha":915,"x_min":0,"x_max":0,"o":"m 642 1256 b 657 1228 668 1256 672 1243 l 501 1085 b 440 1056 474 1058 467 1056 l 426 1056 b 363 1085 394 1056 389 1057 l 206 1228 b 221 1256 190 1243 194 1256 l 267 1256 b 318 1236 289 1256 306 1249 l 431 1138 l 539 1236 b 593 1256 551 1249 569 1256 m 442 986 b 844 619 697 986 844 847 l 844 367 b 442 0 844 139 697 0 l 139 0 b 103 36 113 0 103 10 l 103 950 b 139 986 103 976 113 986 m 710 621 b 442 861 710 775 614 861 l 238 861 l 238 125 l 442 125 b 710 365 614 125 710 211 "},"ď":{"ha":818,"x_min":0,"x_max":0,"o":"m 64 454 b 346 738 64 638 158 738 b 540 707 400 738 464 728 l 540 994 b 574 1028 540 1021 550 1028 l 632 1028 b 664 994 656 1028 664 1018 l 664 99 b 610 22 664 53 654 40 b 361 -21 535 -7 451 -21 b 64 258 163 -21 64 72 m 844 738 b 810 707 838 714 831 707 l 776 707 b 756 731 758 707 754 710 l 800 994 b 839 1028 804 1021 813 1028 l 886 1028 b 915 994 914 1028 924 1017 m 540 593 b 369 624 474 614 417 624 b 189 450 249 624 189 565 l 189 263 b 372 93 189 150 250 93 b 521 115 429 93 478 100 b 540 142 533 119 540 129 "},"Đ":{"ha":933,"x_min":0,"x_max":0,"o":"m 460 986 b 863 619 715 986 863 847 l 863 367 b 460 0 863 139 715 0 l 157 0 b 121 36 131 0 121 10 l 121 461 l 28 461 b 6 485 11 461 6 467 l 6 525 b 28 549 6 540 13 549 l 121 549 l 121 950 b 157 986 121 976 131 986 m 728 621 b 460 861 728 775 632 861 l 256 861 l 256 549 l 469 549 b 492 525 488 549 492 543 l 492 485 b 469 461 492 467 488 461 l 256 461 l 256 125 l 460 125 b 728 365 632 125 728 211 "},"đ":{"ha":750,"x_min":0,"x_max":0,"o":"m 750 917 b 772 893 768 917 772 911 l 772 863 b 750 839 772 844 768 839 l 665 839 l 665 99 b 611 22 665 53 656 40 b 361 -21 536 -7 453 -21 b 65 258 164 -21 65 72 l 65 454 b 347 736 65 638 160 736 b 542 707 401 736 467 726 l 542 839 l 350 839 b 326 863 332 839 326 844 l 326 893 b 350 917 326 908 335 917 l 542 917 l 542 994 b 575 1028 542 1021 549 1028 l 632 1028 b 665 994 656 1028 665 1021 l 665 917 m 542 593 b 369 624 475 614 418 624 b 189 450 249 624 189 565 l 189 263 b 372 93 189 150 250 93 b 522 115 428 93 478 100 b 542 142 535 119 542 129 "},"Ē":{"ha":800,"x_min":0,"x_max":0,"o":"m 582 1193 b 613 1163 606 1193 613 1186 l 613 1135 b 582 1103 613 1111 606 1103 l 257 1103 b 225 1135 233 1103 225 1111 l 225 1163 b 257 1193 225 1183 236 1193 m 697 986 b 733 950 725 986 733 976 l 733 897 b 697 861 733 871 725 861 l 238 861 l 238 563 l 633 563 b 669 525 661 563 669 553 l 669 474 b 633 438 669 446 661 438 l 238 438 l 238 125 l 714 125 b 750 89 742 125 750 115 l 750 36 b 714 0 750 10 742 0 l 139 0 b 103 36 113 0 103 10 l 103 950 b 139 986 103 976 113 986 "},"ē":{"ha":742,"x_min":0,"x_max":0,"o":"m 524 938 b 553 908 547 938 553 932 l 553 882 b 524 851 553 858 547 851 l 226 851 b 197 882 203 851 197 858 l 197 908 b 226 938 197 931 204 938 m 61 440 b 375 738 61 629 171 738 b 689 450 581 738 689 622 l 689 369 b 638 321 689 338 672 321 l 185 321 l 185 254 b 371 88 185 147 250 88 b 564 183 461 88 526 119 b 618 196 581 207 594 211 l 656 176 b 668 122 679 164 683 146 b 369 -21 614 26 514 -21 b 61 268 163 -21 61 90 m 565 457 b 375 632 565 568 499 632 b 185 457 251 632 185 567 l 185 417 l 565 417 "},"Ĕ":{"ha":800,"x_min":0,"x_max":0,"o":"m 632 1204 b 419 1058 600 1107 529 1058 b 207 1204 310 1058 239 1107 b 222 1236 203 1219 207 1229 l 265 1253 b 299 1240 283 1257 294 1253 b 419 1149 317 1179 357 1149 b 540 1240 481 1149 521 1179 b 568 1253 544 1253 554 1257 l 618 1236 b 632 1204 632 1229 636 1219 m 697 986 b 733 950 725 986 733 976 l 733 897 b 697 861 733 871 725 861 l 238 861 l 238 563 l 633 563 b 669 525 661 563 669 553 l 669 474 b 633 438 669 446 661 438 l 238 438 l 238 125 l 714 125 b 750 89 742 125 750 115 l 750 36 b 714 0 750 10 742 0 l 139 0 b 103 36 113 0 103 10 l 103 950 b 139 986 103 976 113 986 "},"ĕ":{"ha":742,"x_min":0,"x_max":0,"o":"m 589 958 b 375 811 557 860 485 811 b 164 958 264 811 193 860 b 178 989 160 974 164 983 l 221 1006 b 256 993 239 1010 250 1006 b 375 901 272 932 313 901 b 496 993 438 901 478 932 b 524 1007 501 1006 511 1011 l 574 989 b 589 958 589 982 593 972 m 61 440 b 375 738 61 629 171 738 b 689 450 581 738 689 622 l 689 369 b 638 321 689 338 672 321 l 185 321 l 185 254 b 371 88 185 147 250 88 b 564 183 461 88 526 119 b 618 196 581 207 594 211 l 656 176 b 668 122 679 164 683 146 b 369 -21 614 26 514 -21 b 61 268 163 -21 61 90 m 565 457 b 375 632 565 568 499 632 b 185 457 251 632 185 567 l 185 417 l 565 417 "},"Ė":{"ha":800,"x_min":0,"x_max":0,"o":"m 422 1214 b 482 1154 468 1214 482 1200 l 482 1144 b 422 1085 482 1099 468 1085 l 415 1085 b 356 1144 369 1085 356 1099 l 356 1154 b 415 1214 356 1200 369 1214 m 697 986 b 733 950 725 986 733 976 l 733 897 b 697 861 733 871 725 861 l 238 861 l 238 563 l 633 563 b 669 525 661 563 669 553 l 669 474 b 633 438 669 446 661 438 l 238 438 l 238 125 l 714 125 b 750 89 742 125 750 115 l 750 36 b 714 0 750 10 742 0 l 139 0 b 103 36 113 0 103 10 l 103 950 b 139 986 103 976 113 986 "},"ė":{"ha":742,"x_min":0,"x_max":0,"o":"m 379 967 b 438 907 425 967 438 953 l 438 899 b 379 839 438 853 425 839 l 371 839 b 311 899 325 839 311 853 l 311 907 b 371 967 311 953 325 967 m 61 440 b 375 738 61 629 171 738 b 689 450 581 738 689 622 l 689 369 b 638 321 689 338 672 321 l 185 321 l 185 254 b 371 88 185 147 250 88 b 564 183 461 88 526 119 b 618 196 581 207 594 211 l 656 176 b 668 122 679 164 683 146 b 369 -21 614 26 514 -21 b 61 268 163 -21 61 90 m 565 457 b 375 632 565 568 499 632 b 185 457 251 632 185 567 l 185 417 l 565 417 "},"Ę":{"ha":800,"x_min":0,"x_max":0,"o":"m 697 986 b 733 950 725 986 733 976 l 733 897 b 697 861 733 871 725 861 l 238 861 l 238 561 l 633 561 b 669 525 661 561 669 553 l 669 474 b 633 436 669 446 661 436 l 238 436 l 238 125 l 714 125 b 750 89 742 125 750 115 l 750 36 b 738 4 750 24 746 13 b 661 -246 588 -125 589 -251 b 714 -224 679 -246 697 -239 b 735 -229 724 -217 731 -218 l 750 -265 b 747 -289 754 -276 753 -285 b 621 -339 713 -322 671 -339 b 507 -262 558 -339 519 -314 b 643 0 486 -189 538 -85 l 139 0 b 103 36 113 0 103 10 l 103 950 b 139 986 103 976 113 986 "},"ę":{"ha":742,"x_min":0,"x_max":0,"o":"m 61 440 b 375 738 61 629 171 738 b 689 450 581 738 689 622 l 689 369 b 638 321 689 338 672 321 l 185 321 l 185 254 b 371 88 185 147 250 88 b 564 183 461 88 526 119 b 618 196 581 207 594 211 l 656 176 b 668 122 679 164 683 146 b 624 63 656 99 642 79 b 518 -99 576 8 542 -44 b 494 -215 494 -153 488 -192 b 540 -250 501 -239 517 -250 b 596 -226 561 -250 581 -242 b 617 -232 606 -219 613 -221 l 632 -268 b 629 -292 636 -279 635 -287 b 501 -342 596 -325 553 -342 b 388 -265 436 -342 399 -317 b 497 -3 369 -197 413 -97 b 369 -21 458 -15 415 -21 b 61 268 163 -21 61 90 m 565 457 b 375 632 565 568 499 632 b 185 457 251 632 185 567 l 185 417 l 565 417 "},"Ě":{"ha":800,"x_min":0,"x_max":0,"o":"m 626 1256 b 643 1228 654 1256 658 1243 l 486 1085 b 425 1056 460 1058 453 1056 l 413 1056 b 347 1085 379 1056 375 1057 l 190 1228 b 207 1256 175 1243 179 1256 l 253 1256 b 304 1236 274 1256 292 1249 l 415 1138 l 525 1236 b 578 1256 538 1249 554 1256 m 697 986 b 733 950 725 986 733 976 l 733 897 b 697 861 733 871 725 861 l 238 861 l 238 563 l 633 563 b 669 525 661 563 669 553 l 669 474 b 633 438 669 446 661 438 l 238 438 l 238 125 l 714 125 b 750 89 742 125 750 115 l 750 36 b 714 0 750 10 742 0 l 139 0 b 103 36 113 0 103 10 l 103 950 b 139 986 103 976 113 986 "},"ě":{"ha":742,"x_min":0,"x_max":0,"o":"m 565 985 b 579 958 590 985 594 976 l 436 826 b 381 800 413 803 407 800 l 368 800 b 310 826 340 800 333 803 l 165 960 b 179 985 153 972 156 985 l 222 985 b 269 967 243 985 258 979 l 372 875 l 471 967 b 521 985 483 979 500 985 m 61 440 b 375 738 61 629 171 738 b 689 450 581 738 689 622 l 689 369 b 638 321 689 338 672 321 l 185 321 l 185 254 b 371 88 185 147 250 88 b 564 183 461 88 526 119 b 618 196 581 207 594 211 l 656 176 b 668 122 679 164 683 146 b 369 -21 614 26 514 -21 b 61 268 163 -21 61 90 m 565 457 b 375 632 565 568 499 632 b 185 457 251 632 185 567 l 185 417 l 565 417 "},"Ĝ":{"ha":914,"x_min":0,"x_max":0,"o":"m 472 1271 b 533 1242 500 1271 507 1268 l 690 1099 b 674 1071 706 1081 700 1071 l 625 1071 b 571 1090 601 1071 583 1078 l 463 1189 l 350 1090 b 299 1071 338 1078 321 1071 l 253 1071 b 238 1099 226 1071 221 1081 l 394 1242 b 458 1271 421 1269 426 1271 m 814 525 b 851 488 842 525 851 515 l 851 310 b 463 -21 851 110 708 -21 b 74 335 214 -21 74 113 l 74 651 b 463 1007 74 874 214 1007 b 836 771 660 1007 785 928 b 813 724 843 747 836 732 l 756 704 b 708 726 729 694 718 700 b 463 882 674 832 600 882 b 208 653 297 882 208 799 l 208 335 b 463 104 208 189 300 104 b 718 310 624 104 718 186 l 718 400 l 478 400 b 442 436 450 400 442 408 l 442 489 b 478 525 442 515 450 525 "},"ĝ":{"ha":747,"x_min":0,"x_max":0,"o":"m 396 1000 b 454 972 422 1000 429 1000 l 608 832 b 592 806 624 814 618 806 l 544 806 b 492 824 521 806 503 811 l 386 919 l 276 824 b 226 806 264 811 247 806 l 181 806 b 165 832 154 806 150 814 l 319 972 b 382 1000 346 999 350 1000 m 67 450 b 372 738 67 642 168 738 b 614 694 471 738 551 724 b 667 618 658 674 667 664 l 667 -35 b 368 -335 667 -235 567 -335 b 88 -193 233 -335 139 -287 b 100 -140 72 -169 76 -153 l 140 -118 b 194 -131 163 -106 181 -110 b 365 -224 231 -193 288 -224 b 542 -40 483 -224 542 -162 l 542 39 b 347 4 469 15 404 4 b 67 279 160 4 67 96 m 522 603 b 381 624 479 617 432 624 b 190 446 254 624 190 564 l 190 282 b 364 118 190 172 249 118 b 542 149 413 118 472 128 l 542 575 b 522 603 542 592 540 596 "},"Ğ":{"ha":914,"x_min":0,"x_max":0,"o":"m 676 1218 b 463 1072 643 1121 572 1072 b 251 1218 356 1072 281 1124 b 265 1250 247 1233 251 1244 l 308 1267 b 343 1254 326 1271 338 1267 b 463 1163 360 1193 400 1163 b 583 1254 525 1163 565 1193 b 611 1267 589 1267 599 1271 l 661 1250 b 676 1218 676 1243 681 1232 m 814 525 b 851 488 842 525 851 515 l 851 310 b 463 -21 851 110 708 -21 b 74 335 214 -21 74 113 l 74 651 b 463 1007 74 874 214 1007 b 836 771 660 1007 785 928 b 813 724 843 747 836 732 l 756 704 b 708 726 729 694 718 700 b 463 882 674 832 600 882 b 208 653 297 882 208 799 l 208 335 b 463 104 208 189 300 104 b 718 310 624 104 718 186 l 718 400 l 478 400 b 442 436 450 400 442 408 l 442 489 b 478 525 442 515 450 525 "},"ğ":{"ha":747,"x_min":0,"x_max":0,"o":"m 599 957 b 386 811 568 860 497 811 b 174 957 275 811 204 860 b 189 989 169 972 174 982 l 232 1006 b 265 993 250 1010 261 1006 b 386 901 283 932 324 901 b 507 993 447 901 488 932 b 535 1006 511 1006 521 1010 l 585 989 b 599 957 599 982 603 972 m 67 450 b 372 738 67 642 168 738 b 614 694 471 738 551 724 b 667 618 658 674 667 664 l 667 -35 b 368 -335 667 -235 567 -335 b 88 -193 233 -335 139 -287 b 100 -140 72 -169 76 -153 l 140 -118 b 194 -131 163 -106 181 -110 b 365 -224 231 -193 288 -224 b 542 -40 483 -224 542 -162 l 542 39 b 347 4 469 15 404 4 b 67 279 160 4 67 96 m 522 603 b 381 624 479 617 432 624 b 190 446 254 624 190 564 l 190 282 b 364 118 190 172 249 118 b 542 149 413 118 472 128 l 542 575 b 522 603 542 592 540 596 "},"Ġ":{"ha":914,"x_min":0,"x_max":0,"o":"m 467 1228 b 525 1168 513 1228 525 1214 l 525 1158 b 467 1099 525 1113 513 1099 l 458 1099 b 399 1158 413 1099 399 1113 l 399 1168 b 458 1228 399 1214 413 1228 m 814 525 b 851 488 842 525 851 515 l 851 310 b 463 -21 851 110 708 -21 b 74 335 214 -21 74 113 l 74 651 b 463 1007 74 874 214 1007 b 836 771 660 1007 785 928 b 813 724 843 747 836 732 l 756 704 b 708 726 729 694 718 700 b 463 882 674 832 600 882 b 208 653 297 882 208 799 l 208 335 b 463 104 208 189 300 104 b 718 310 624 104 718 186 l 718 400 l 478 400 b 442 436 450 400 442 408 l 442 489 b 478 525 442 515 450 525 "},"ġ":{"ha":747,"x_min":0,"x_max":0,"o":"m 389 967 b 449 907 435 967 449 953 l 449 897 b 389 838 449 851 435 838 l 382 838 b 322 897 336 838 322 851 l 322 907 b 382 967 322 953 336 967 m 67 450 b 372 738 67 642 168 738 b 614 694 471 738 551 724 b 667 618 658 674 667 664 l 667 -35 b 368 -335 667 -235 567 -335 b 88 -193 233 -335 139 -287 b 100 -140 72 -169 76 -153 l 140 -118 b 194 -131 163 -106 181 -110 b 365 -224 231 -193 288 -224 b 542 -40 483 -224 542 -162 l 542 39 b 347 4 469 15 404 4 b 67 279 160 4 67 96 m 522 603 b 381 624 479 617 432 624 b 190 446 254 624 190 564 l 190 282 b 364 118 190 172 249 118 b 542 149 413 118 472 128 l 542 575 b 522 603 542 592 540 596 "},"Ģ":{"ha":914,"x_min":0,"x_max":0,"o":"m 814 525 b 851 488 842 525 851 515 l 851 310 b 463 -21 851 110 708 -21 b 74 335 214 -21 74 113 l 74 651 b 463 1007 74 874 214 1007 b 836 771 660 1007 785 928 b 813 724 843 747 836 732 l 756 704 b 708 726 729 694 718 700 b 463 882 674 832 600 882 b 208 653 297 882 208 799 l 208 335 b 463 104 208 189 300 104 b 718 310 624 104 718 186 l 718 400 l 478 400 b 442 436 450 400 442 408 l 442 489 b 478 525 442 515 450 525 m 486 -319 b 447 -351 479 -340 465 -351 l 407 -351 b 385 -326 389 -351 383 -347 l 424 -128 b 464 -93 425 -100 436 -93 l 519 -93 b 550 -128 549 -93 558 -104 "},"ģ":{"ha":749,"x_min":0,"x_max":0,"o":"m 375 993 b 417 1024 382 1017 390 1024 l 449 1024 b 472 999 471 1024 476 1019 l 432 835 b 388 796 428 806 419 796 l 342 796 b 313 835 313 796 303 808 m 67 450 b 372 738 67 642 168 738 b 614 694 471 738 551 724 b 667 618 658 674 667 664 l 667 -35 b 368 -335 667 -235 567 -335 b 88 -193 233 -335 139 -287 b 100 -140 72 -169 76 -153 l 140 -118 b 194 -131 163 -106 181 -110 b 365 -224 231 -193 288 -224 b 542 -40 483 -224 542 -162 l 542 39 b 347 4 469 15 404 4 b 67 279 160 4 67 96 m 522 603 b 381 624 479 617 432 624 b 190 446 254 624 190 564 l 190 282 b 364 118 190 172 249 118 b 542 149 413 118 472 128 l 542 575 b 522 603 542 592 540 596 "},"Ĥ":{"ha":949,"x_min":0,"x_max":0,"o":"m 485 1257 b 546 1228 511 1257 518 1254 l 703 1085 b 686 1057 718 1067 713 1057 l 638 1057 b 583 1076 614 1057 596 1064 l 475 1175 l 363 1076 b 311 1057 350 1064 333 1057 l 265 1057 b 249 1085 239 1057 233 1067 l 407 1228 b 471 1257 433 1256 439 1257 m 810 986 b 846 950 838 986 846 976 l 846 36 b 810 0 846 10 838 0 l 749 0 b 713 36 721 0 713 10 l 713 438 l 238 438 l 238 36 b 200 0 238 10 228 0 l 139 0 b 103 36 113 0 103 10 l 103 950 b 139 986 103 976 113 986 l 200 986 b 238 950 228 986 238 976 l 238 563 l 713 563 l 713 950 b 749 986 713 976 721 986 "},"ĥ":{"ha":768,"x_min":0,"x_max":0,"o":"m 182 1288 b 240 1260 208 1288 214 1286 l 390 1121 b 375 1094 406 1103 401 1094 l 328 1094 b 276 1113 306 1094 289 1100 l 172 1208 l 65 1113 b 15 1094 53 1100 36 1094 l -29 1094 b -44 1121 -56 1094 -60 1103 l 107 1260 b 169 1288 133 1286 138 1288 m 201 1028 b 235 994 228 1028 235 1021 l 235 707 b 429 738 275 728 340 738 b 711 463 617 738 711 646 l 711 33 b 678 0 711 7 701 0 l 619 0 b 586 33 596 0 586 7 l 586 458 b 411 624 586 568 528 624 b 235 592 336 624 278 613 l 235 33 b 201 0 235 7 228 0 l 143 0 b 110 33 117 0 110 7 l 110 994 b 143 1028 110 1021 117 1028 "},"Ħ":{"ha":964,"x_min":0,"x_max":0,"o":"m 929 832 b 951 808 947 832 951 826 l 951 778 b 929 753 951 757 947 753 l 853 753 l 853 36 b 817 0 853 10 844 0 l 756 0 b 719 36 728 0 719 10 l 719 438 l 244 438 l 244 36 b 207 0 244 10 235 0 l 146 0 b 110 36 119 0 110 10 l 110 753 l 36 753 b 14 778 18 753 14 757 l 14 808 b 36 832 14 824 21 832 l 110 832 l 110 950 b 146 986 110 976 119 986 l 207 986 b 244 950 235 986 244 976 l 244 832 l 719 832 l 719 950 b 756 986 719 976 728 986 l 817 986 b 853 950 844 986 853 976 l 853 832 m 244 753 l 244 563 l 719 563 l 719 753 "},"ħ":{"ha":768,"x_min":0,"x_max":0,"o":"m 211 707 b 406 738 254 728 318 738 b 688 463 593 738 688 646 l 688 33 b 654 0 688 7 678 0 l 596 0 b 563 33 572 0 563 7 l 563 458 b 389 624 563 568 504 624 b 211 592 313 624 254 613 l 211 33 b 178 0 211 7 204 0 l 119 0 b 88 33 96 0 88 10 l 88 843 l 26 843 b 4 868 11 843 4 851 l 4 894 b 26 918 4 910 11 918 l 88 918 l 88 994 b 119 1028 88 1018 96 1028 l 178 1028 b 211 994 204 1028 211 1021 l 211 918 l 415 918 b 438 894 433 918 438 913 l 438 868 b 415 843 438 847 433 843 l 211 843 "},"Ĩ":{"ha":340,"x_min":0,"x_max":0,"o":"m 358 1233 b 379 1213 372 1233 379 1226 b 267 1067 379 1111 344 1067 b 161 1111 235 1067 199 1082 b 74 1154 124 1140 94 1154 b 28 1088 43 1154 28 1132 b 8 1067 28 1074 21 1067 l -28 1067 b -49 1088 -42 1067 -49 1074 b 63 1233 -49 1185 -11 1233 b 258 1146 147 1233 206 1146 b 303 1213 288 1146 303 1168 b 322 1233 303 1226 310 1233 m 103 950 b 139 986 103 976 113 986 l 200 986 b 238 950 228 986 238 976 l 238 36 b 200 0 238 10 228 0 l 139 0 b 103 36 113 0 103 10 "},"ĩ":{"ha":296,"x_min":0,"x_max":0,"o":"m 294 1000 b 313 979 307 1000 313 993 b 221 833 313 874 283 833 b 143 875 194 833 168 847 b 81 915 118 901 97 915 b 43 856 56 915 43 896 b 26 833 43 840 38 833 l -7 833 b -25 856 -19 833 -25 840 b 68 1000 -25 961 7 1000 b 149 958 97 1000 124 986 b 210 917 174 931 194 917 b 246 979 233 917 246 938 b 263 1000 246 993 251 1000 m 178 717 b 210 683 201 717 210 707 l 210 33 b 178 0 210 10 201 0 l 119 0 b 86 33 93 0 86 7 l 86 683 b 119 717 86 710 93 717 "},"Ī":{"ha":340,"x_min":0,"x_max":0,"o":"m 332 1193 b 364 1163 356 1193 364 1186 l 364 1135 b 332 1103 364 1111 356 1103 l 8 1103 b -24 1135 -18 1103 -24 1111 l -24 1163 b 8 1193 -24 1183 -12 1193 m 103 950 b 139 986 103 976 113 986 l 200 986 b 238 950 228 986 238 976 l 238 36 b 200 0 238 10 228 0 l 139 0 b 103 36 113 0 103 10 "},"ī":{"ha":296,"x_min":0,"x_max":0,"o":"m 249 943 b 268 913 265 943 268 939 l 268 886 b 249 856 268 863 265 856 l 47 856 b 28 886 35 856 28 865 l 28 913 b 47 943 28 933 35 943 m 178 717 b 210 683 201 717 210 707 l 210 33 b 178 0 210 10 201 0 l 119 0 b 86 33 93 0 86 7 l 86 683 b 119 717 86 710 93 717 "},"Ĭ":{"ha":340,"x_min":0,"x_max":0,"o":"m 390 1204 b 176 1058 358 1107 288 1058 b -35 1204 67 1058 -3 1107 b -19 1236 -39 1219 -35 1229 l 24 1253 b 57 1240 39 1257 50 1253 b 176 1149 75 1179 114 1149 b 297 1240 239 1149 279 1179 b 326 1253 303 1253 313 1257 l 375 1236 b 390 1204 390 1229 394 1218 m 110 950 b 146 986 110 976 119 986 l 207 986 b 244 950 235 986 244 976 l 244 36 b 207 0 244 10 235 0 l 146 0 b 110 36 119 0 110 10 "},"ĭ":{"ha":296,"x_min":0,"x_max":0,"o":"m 328 988 b 343 957 343 981 347 971 b 156 813 315 861 253 813 b -31 957 57 813 -4 861 b -17 988 -35 972 -31 982 l 26 1003 b 60 992 44 1007 56 1004 b 156 906 72 935 104 906 b 251 992 204 906 236 935 b 279 1004 256 1006 265 1010 m 185 717 b 217 683 208 717 217 707 l 217 33 b 185 0 217 10 208 0 l 126 0 b 93 33 100 0 93 7 l 93 683 b 126 717 93 710 100 717 "},"Į":{"ha":340,"x_min":0,"x_max":0,"o":"m 314 -268 b 313 -292 318 -278 318 -286 b 185 -342 278 -325 235 -342 b 69 -265 119 -342 81 -317 b 169 0 51 -190 85 -101 b 131 36 140 0 131 10 l 131 950 b 167 986 131 976 140 986 l 228 986 b 265 950 256 986 265 976 l 265 36 b 256 4 265 22 263 11 b 176 -215 188 -85 164 -167 b 224 -249 185 -237 200 -249 b 279 -226 244 -249 264 -242 b 300 -232 289 -219 296 -221 "},"į":{"ha":297,"x_min":0,"x_max":0,"o":"m 153 835 b 86 901 103 835 86 850 l 86 913 b 153 979 86 963 103 979 l 161 979 b 228 913 213 979 228 963 l 228 901 b 161 835 228 851 213 835 m 268 -265 b 268 -290 274 -275 274 -283 b 156 -340 240 -324 203 -340 b 43 -256 89 -340 51 -312 b 124 1 32 -178 69 -71 b 94 33 104 1 94 13 l 94 683 b 128 717 94 710 101 717 l 186 717 b 219 683 213 717 219 710 l 219 33 b 213 7 219 21 217 11 b 150 -210 169 -61 143 -153 b 192 -250 151 -233 171 -250 b 233 -228 208 -250 222 -243 b 256 -232 243 -222 250 -224 "},"İ":{"ha":340,"x_min":0,"x_max":0,"o":"m 174 1214 b 233 1154 219 1214 233 1200 l 233 1144 b 174 1085 233 1099 219 1085 l 167 1085 b 107 1144 121 1085 107 1099 l 107 1154 b 167 1214 107 1200 121 1214 m 103 950 b 139 986 103 976 113 986 l 200 986 b 238 950 228 986 238 976 l 238 36 b 200 0 238 10 228 0 l 139 0 b 103 36 113 0 103 10 "},"ı":{"ha":297,"x_min":0,"x_max":0,"o":"m 178 717 b 211 683 204 717 211 710 l 211 33 b 178 0 211 7 204 0 l 119 0 b 86 33 93 0 86 7 l 86 683 b 119 717 86 710 93 717 "},"Ĳ":{"ha":1140,"x_min":0,"x_max":0,"o":"m 103 950 b 139 986 103 976 113 986 l 200 986 b 238 950 228 986 238 976 l 238 36 b 200 0 238 10 228 0 l 139 0 b 103 36 113 0 103 10 m 1008 986 b 1044 950 1035 986 1044 976 l 1044 317 b 700 -21 1044 106 922 -21 b 368 226 524 -21 414 61 b 390 274 361 250 368 265 l 449 294 b 496 271 472 301 488 294 b 700 104 525 160 585 104 b 910 315 838 104 910 181 l 910 950 b 946 986 910 976 918 986 "},"ĳ":{"ha":635,"x_min":0,"x_max":0,"o":"m 153 979 b 219 913 204 979 219 963 l 219 901 b 153 835 219 851 204 835 l 144 835 b 78 901 94 835 78 850 l 78 913 b 144 979 78 963 94 979 m 490 979 b 556 913 540 979 556 963 l 556 901 b 490 835 556 851 540 835 l 481 835 b 414 901 431 835 414 850 l 414 913 b 481 979 414 963 431 979 m 178 717 b 211 683 204 717 211 710 l 211 33 b 178 0 211 7 204 0 l 119 0 b 86 33 93 0 86 7 l 86 683 b 119 717 86 710 93 717 m 514 717 b 547 683 540 717 547 710 l 547 -11 b 246 -319 547 -212 456 -319 b 213 -286 222 -319 213 -312 l 213 -237 b 246 -204 213 -214 222 -204 b 424 -8 375 -204 424 -137 l 424 683 b 457 717 424 710 433 717 "},"Ĵ":{"ha":797,"x_min":0,"x_max":0,"o":"m 654 1257 b 715 1228 682 1257 689 1254 l 872 1085 b 856 1057 889 1067 883 1057 l 807 1057 b 754 1076 783 1057 767 1064 l 644 1175 l 533 1076 b 482 1057 521 1064 504 1057 l 436 1057 b 419 1085 410 1057 404 1067 l 576 1228 b 642 1257 604 1256 608 1257 m 676 986 b 711 950 703 986 711 976 l 711 317 b 368 -21 711 106 590 -21 b 36 226 192 -21 82 61 b 58 274 29 250 36 265 l 117 294 b 164 271 140 301 156 294 b 368 104 193 160 253 104 b 578 315 506 104 578 181 l 578 950 b 614 986 578 976 586 986 "},"ĵ":{"ha":299,"x_min":0,"x_max":0,"o":"m 158 1000 b 218 972 185 1000 193 1000 l 356 832 b 339 806 371 814 365 806 l 292 806 b 239 824 268 806 250 811 l 149 921 l 56 824 b 6 806 43 811 26 806 l -40 806 b -56 832 -67 806 -71 814 l 82 972 b 146 1000 108 999 113 1000 m 178 717 b 211 683 204 717 211 710 l 211 -11 b -90 -319 211 -212 119 -319 b -124 -286 -114 -319 -124 -312 l -124 -237 b -90 -204 -124 -214 -114 -204 b 88 -8 39 -204 88 -137 l 88 683 b 121 717 88 710 97 717 "},"Ķ":{"ha":857,"x_min":0,"x_max":0,"o":"m 831 38 b 811 0 843 13 838 0 l 750 0 b 678 32 706 0 690 6 l 531 329 b 346 439 488 413 447 439 l 238 439 l 238 36 b 200 0 238 10 228 0 l 139 0 b 103 36 113 0 103 10 l 103 950 b 139 986 103 976 113 986 l 200 986 b 238 950 228 986 238 976 l 238 561 l 335 561 l 360 561 l 656 956 b 729 986 676 982 686 986 l 797 986 b 815 951 821 986 831 968 l 494 535 b 654 378 560 513 614 460 m 456 -319 b 417 -351 449 -343 439 -351 l 378 -351 b 356 -326 357 -351 351 -347 l 393 -128 b 433 -93 394 -100 406 -93 l 489 -93 b 521 -128 518 -93 529 -104 "},"ķ":{"ha":714,"x_min":0,"x_max":0,"o":"m 681 39 b 660 0 696 11 692 0 l 606 0 b 549 31 568 0 561 4 l 453 232 b 328 308 426 288 393 308 l 211 308 l 211 35 b 176 0 211 8 203 0 l 122 0 b 88 35 96 0 88 8 l 88 994 b 122 1028 88 1021 96 1028 l 176 1028 b 211 994 203 1028 211 1021 l 211 424 l 313 424 l 324 424 l 531 692 b 596 717 547 715 556 717 l 649 717 b 669 678 683 717 690 704 l 447 400 b 558 286 492 383 529 346 m 394 -287 b 353 -318 385 -311 376 -318 l 321 -318 b 297 -292 299 -318 293 -312 l 329 -110 b 372 -72 333 -81 343 -72 l 419 -72 b 449 -110 447 -72 457 -85 "},"ĸ":{"ha":678,"x_min":0,"x_max":0,"o":"m 647 40 b 626 0 667 14 660 0 l 572 0 b 503 26 538 0 515 8 l 307 303 l 211 196 l 211 35 b 176 0 211 8 203 0 l 121 0 b 86 35 94 0 86 8 l 86 683 b 121 717 86 710 94 717 l 176 717 b 211 683 203 717 211 710 l 211 368 l 497 692 b 563 717 515 714 524 717 l 615 717 b 636 678 650 717 657 704 l 389 399 "},"Ĺ":{"ha":729,"x_min":0,"x_max":0,"o":"m 236 1250 b 297 1249 263 1265 282 1265 l 325 1215 b 319 1176 340 1197 342 1185 l 76 1061 b 33 1063 56 1053 40 1053 l 18 1083 b 21 1118 3 1101 4 1108 m 200 986 b 238 950 228 986 238 976 l 238 125 l 674 125 b 711 89 701 125 711 115 l 711 36 b 674 0 711 10 701 0 l 139 0 b 103 36 113 0 103 10 l 103 950 b 139 986 103 976 113 986 "},"ĺ":{"ha":307,"x_min":0,"x_max":0,"o":"m 214 1243 b 271 1238 238 1257 257 1256 l 301 1200 b 296 1161 318 1178 317 1169 l 90 1074 b 49 1076 69 1065 56 1067 l 29 1101 b 33 1138 18 1118 19 1131 m 232 33 b 199 0 232 7 222 0 l 140 0 b 107 33 117 0 107 7 l 107 994 b 140 1028 107 1021 117 1028 l 199 1028 b 232 994 222 1028 232 1021 "},"Ļ":{"ha":729,"x_min":0,"x_max":0,"o":"m 200 986 b 238 950 228 986 238 976 l 238 125 l 674 125 b 711 89 701 125 711 115 l 711 36 b 674 0 711 10 701 0 l 139 0 b 103 36 113 0 103 10 l 103 950 b 139 986 103 976 113 986 m 404 -319 b 367 -351 397 -340 385 -351 l 326 -351 b 304 -326 306 -351 300 -347 l 342 -128 b 382 -93 343 -104 357 -93 l 438 -93 b 469 -128 467 -93 478 -104 "},"ļ":{"ha":307,"x_min":0,"x_max":0,"o":"m 217 33 b 183 0 217 7 207 0 l 126 0 b 93 33 100 0 93 7 l 93 994 b 126 1028 93 1021 100 1028 l 183 1028 b 217 994 207 1028 217 1021 m 158 -275 b 117 -306 149 -299 140 -306 l 85 -306 b 61 -279 63 -306 60 -301 l 94 -92 b 138 -54 96 -62 108 -54 l 183 -54 b 213 -92 211 -54 221 -67 "},"Ľ":{"ha":729,"x_min":0,"x_max":0,"o":"m 200 986 b 238 950 228 986 238 976 l 238 125 l 674 125 b 711 89 701 125 711 115 l 711 36 b 674 0 711 10 701 0 l 139 0 b 103 36 113 0 103 10 l 103 950 b 139 986 103 976 113 986 m 531 701 b 493 672 524 682 511 672 l 463 672 b 442 694 444 672 440 676 l 483 953 b 522 986 485 979 496 986 l 574 986 b 603 951 601 986 611 975 "},"ľ":{"ha":317,"x_min":0,"x_max":0,"o":"m 215 33 b 182 0 215 7 206 0 l 125 0 b 92 33 99 0 92 7 l 92 994 b 125 1028 92 1021 99 1028 l 182 1028 b 215 994 206 1028 215 1021 m 404 775 b 367 746 394 753 389 746 l 338 746 b 315 768 317 746 314 750 l 350 994 b 389 1028 354 1021 363 1028 l 440 1028 b 471 993 469 1028 479 1017 "},"Ŀ":{"ha":729,"x_min":0,"x_max":0,"o":"m 200 986 b 238 950 228 986 238 976 l 238 125 l 674 125 b 711 89 701 125 711 115 l 711 36 b 674 0 711 10 701 0 l 139 0 b 103 36 113 0 103 10 l 103 950 b 139 986 103 976 113 986 m 501 592 b 571 522 556 592 571 574 l 571 511 b 501 440 571 457 556 440 l 492 440 b 422 511 438 440 422 457 l 422 522 b 492 592 422 574 440 592 "},"ŀ":{"ha":492,"x_min":0,"x_max":0,"o":"m 215 33 b 182 0 215 7 206 0 l 125 0 b 92 33 99 0 92 7 l 92 994 b 125 1028 92 1021 99 1028 l 182 1028 b 215 994 206 1028 215 1021 m 406 597 b 476 526 460 597 476 581 l 476 517 b 406 446 476 463 460 446 l 397 446 b 326 517 343 446 326 463 l 326 526 b 397 597 326 581 343 597 "},"Ł":{"ha":772,"x_min":0,"x_max":0,"o":"m 728 125 b 765 89 756 125 765 115 l 765 36 b 728 0 765 10 756 0 l 193 0 b 157 36 165 0 157 10 l 157 379 l 63 336 b 28 347 47 326 36 331 l 8 386 b 18 418 0 401 3 411 l 157 483 l 157 950 b 193 986 157 976 165 986 l 254 986 b 290 950 282 986 290 976 l 290 544 l 546 665 b 583 653 561 672 574 668 l 601 613 b 589 582 608 597 604 588 l 290 440 l 290 125 "},"ł":{"ha":426,"x_min":0,"x_max":0,"o":"m 422 607 b 414 575 432 593 429 582 l 282 500 l 282 33 b 249 0 282 7 275 0 l 190 0 b 158 33 167 0 158 10 l 158 433 l 82 389 b 44 397 65 381 53 383 l 24 433 b 33 467 17 449 21 460 l 158 538 l 158 994 b 190 1028 158 1018 167 1028 l 249 1028 b 282 994 275 1028 282 1021 l 282 604 l 365 653 b 403 643 381 660 393 657 "},"Ń":{"ha":963,"x_min":0,"x_max":0,"o":"m 547 1250 b 608 1249 575 1265 596 1265 l 636 1215 b 632 1176 651 1197 650 1185 l 388 1061 b 346 1063 367 1053 353 1053 l 329 1083 b 332 1118 317 1099 318 1110 m 824 986 b 860 950 850 986 860 976 l 860 36 b 824 0 860 10 850 0 l 763 0 b 725 18 746 0 733 6 l 329 594 b 258 725 307 628 283 671 l 217 808 l 210 808 b 222 713 210 807 214 775 b 233 550 229 650 233 596 l 233 36 b 196 0 233 10 224 0 l 139 0 b 103 36 113 0 103 10 l 103 950 b 139 986 103 976 113 986 l 200 986 b 236 968 217 986 229 981 l 626 401 b 704 265 651 364 678 319 b 746 179 731 211 744 182 l 753 179 b 742 279 753 182 749 215 b 731 447 735 342 731 399 l 731 950 b 767 986 731 976 739 986 "},"ń":{"ha":765,"x_min":0,"x_max":0,"o":"m 449 1006 b 510 1003 475 1021 494 1021 l 538 969 b 532 932 554 950 553 940 l 289 815 b 246 818 268 808 253 808 l 231 838 b 233 874 218 854 218 867 m 138 690 b 403 738 214 722 303 738 b 685 463 590 738 685 646 l 685 33 b 651 0 685 7 675 0 l 593 0 b 560 33 569 0 560 7 l 560 458 b 386 624 560 568 501 624 b 225 599 331 624 276 615 b 208 574 214 594 208 586 l 208 33 b 175 0 208 7 201 0 l 117 0 b 85 33 93 0 85 10 l 85 613 b 138 690 85 657 94 672 "},"Ņ":{"ha":963,"x_min":0,"x_max":0,"o":"m 824 986 b 860 950 850 986 860 976 l 860 36 b 824 0 860 10 850 0 l 763 0 b 725 18 746 0 733 6 l 329 594 b 258 725 307 628 283 671 l 217 808 l 210 808 b 222 713 210 807 214 775 b 233 550 229 650 233 596 l 233 36 b 196 0 233 10 224 0 l 139 0 b 103 36 113 0 103 10 l 103 950 b 139 986 103 976 113 986 l 200 986 b 236 968 217 986 229 981 l 626 401 b 704 265 651 364 678 319 b 746 179 731 211 744 182 l 753 179 b 742 279 753 182 749 215 b 731 447 735 342 731 399 l 731 950 b 767 986 731 976 739 986 m 492 -319 b 453 -351 485 -343 475 -351 l 414 -351 b 392 -326 393 -351 388 -347 l 429 -128 b 469 -93 431 -100 442 -93 l 525 -93 b 557 -128 554 -93 565 -104 "},"ņ":{"ha":765,"x_min":0,"x_max":0,"o":"m 138 690 b 403 738 214 722 303 738 b 685 463 590 738 685 646 l 685 33 b 651 0 685 7 675 0 l 593 0 b 560 33 569 0 560 7 l 560 458 b 386 624 560 568 501 624 b 225 599 331 624 276 615 b 208 574 214 594 208 586 l 208 33 b 175 0 208 7 201 0 l 117 0 b 85 33 93 0 85 10 l 85 613 b 138 690 85 657 94 672 m 399 -272 b 357 -303 392 -296 383 -303 l 325 -303 b 301 -278 303 -303 297 -299 l 333 -92 b 376 -54 338 -62 347 -54 l 424 -54 b 453 -92 451 -54 461 -67 "},"Ň":{"ha":963,"x_min":0,"x_max":0,"o":"m 690 1256 b 706 1228 717 1256 721 1243 l 550 1085 b 489 1056 524 1058 517 1056 l 475 1056 b 411 1085 443 1056 438 1057 l 254 1228 b 269 1256 239 1243 243 1256 l 315 1256 b 367 1236 338 1256 354 1249 l 479 1138 l 588 1236 b 642 1256 600 1249 618 1256 m 824 986 b 860 950 850 986 860 976 l 860 36 b 824 0 860 10 850 0 l 763 0 b 725 18 746 0 733 6 l 329 594 b 258 725 307 628 283 671 l 217 808 l 210 808 b 222 713 210 807 214 775 b 233 550 229 650 233 596 l 233 36 b 196 0 233 10 224 0 l 139 0 b 103 36 113 0 103 10 l 103 950 b 139 986 103 976 113 986 l 200 986 b 236 968 217 986 229 981 l 626 401 b 704 265 651 364 678 319 b 746 179 731 211 744 182 l 753 179 b 742 279 753 182 749 215 b 731 447 735 342 731 399 l 731 950 b 767 986 731 976 739 986 "},"ň":{"ha":765,"x_min":0,"x_max":0,"o":"m 574 985 b 588 958 599 985 603 976 l 444 826 b 389 800 421 803 415 800 l 376 800 b 318 826 349 800 342 803 l 174 960 b 188 985 161 972 164 985 l 231 985 b 278 967 251 985 267 979 l 381 875 l 479 967 b 529 985 490 979 507 985 m 138 690 b 403 738 214 722 303 738 b 685 463 590 738 685 646 l 685 33 b 651 0 685 7 675 0 l 593 0 b 560 33 569 0 560 7 l 560 458 b 386 624 560 568 501 624 b 225 599 331 624 276 615 b 208 574 214 594 208 586 l 208 33 b 175 0 208 7 201 0 l 117 0 b 85 33 93 0 85 10 l 85 613 b 138 690 85 657 94 672 "},"ŉ":{"ha":765,"x_min":0,"x_max":0,"o":"m 144 772 b 104 749 132 751 126 749 l 74 749 b 57 772 56 749 51 754 l 147 999 b 186 1028 154 1022 160 1028 l 244 1028 b 267 993 275 1028 282 1017 m 140 690 b 406 738 217 722 306 738 b 688 463 593 738 688 646 l 688 33 b 654 0 688 7 678 0 l 596 0 b 563 33 572 0 563 7 l 563 458 b 389 624 563 568 504 624 b 228 599 333 624 279 615 b 211 574 217 594 211 586 l 211 33 b 178 0 211 7 204 0 l 119 0 b 88 33 96 0 88 10 l 88 613 b 140 690 88 657 97 672 "},"Ŋ":{"ha":963,"x_min":0,"x_max":0,"o":"m 824 986 b 860 950 850 986 860 976 l 860 -14 b 542 -319 860 -208 749 -319 b 507 -286 515 -319 507 -312 l 507 -237 b 542 -204 507 -211 515 -204 b 731 -10 668 -204 731 -139 l 731 13 l 329 594 b 258 725 307 628 283 671 l 217 808 l 210 808 b 233 561 210 800 233 660 l 233 36 b 196 0 233 10 224 0 l 139 0 b 103 36 113 0 103 10 l 103 950 b 139 986 103 976 113 986 l 200 986 b 236 968 217 986 229 981 l 626 401 b 704 265 651 364 678 319 b 746 179 731 211 744 182 l 753 179 b 742 279 753 182 749 215 b 731 447 735 342 731 399 l 731 950 b 767 986 731 976 739 986 "},"ŋ":{"ha":765,"x_min":0,"x_max":0,"o":"m 138 690 b 403 738 214 722 303 738 b 685 463 590 738 685 646 l 685 -22 b 375 -319 685 -211 576 -319 b 343 -287 351 -319 343 -311 l 343 -242 b 375 -208 343 -215 351 -208 b 560 -18 499 -208 560 -144 l 560 458 b 386 624 560 568 501 624 b 225 599 331 624 276 615 b 208 574 214 594 208 586 l 208 33 b 175 0 208 7 201 0 l 117 0 b 85 33 93 0 85 10 l 85 613 b 138 690 85 657 94 672 "},"Ō":{"ha":925,"x_min":0,"x_max":0,"o":"m 625 1207 b 657 1176 649 1207 657 1200 l 657 1149 b 625 1117 657 1125 651 1117 l 300 1117 b 269 1149 276 1117 269 1125 l 269 1176 b 300 1207 269 1200 278 1207 m 74 651 b 463 1007 74 874 214 1007 b 851 651 711 1007 851 874 l 851 335 b 463 -21 851 113 711 -21 b 74 335 214 -21 74 113 m 717 651 b 463 882 717 800 625 882 b 208 651 300 882 208 800 l 208 335 b 463 104 208 186 300 104 b 717 335 625 104 717 186 "},"ō":{"ha":751,"x_min":0,"x_max":0,"o":"m 524 938 b 553 907 547 938 553 931 l 553 881 b 524 851 553 857 547 851 l 226 851 b 197 881 204 851 197 857 l 197 907 b 226 938 197 931 206 938 m 64 471 b 375 738 64 638 181 738 b 688 471 574 738 688 638 l 688 244 b 375 -21 688 79 574 -21 b 64 244 181 -21 64 79 m 564 472 b 375 625 564 568 493 625 b 188 472 258 625 188 568 l 188 244 b 375 92 188 149 258 92 b 564 244 493 92 564 149 "},"Ŏ":{"ha":925,"x_min":0,"x_max":0,"o":"m 676 1218 b 463 1072 644 1121 574 1072 b 251 1218 353 1072 283 1121 b 267 1250 247 1233 251 1243 l 310 1267 b 343 1254 325 1271 336 1267 b 463 1163 361 1193 400 1163 b 583 1254 525 1163 565 1193 b 613 1267 589 1267 599 1271 l 661 1250 b 676 1218 676 1243 681 1232 m 74 651 b 463 1007 74 874 214 1007 b 851 651 711 1007 851 874 l 851 335 b 463 -21 851 113 711 -21 b 74 335 214 -21 74 113 m 717 651 b 463 882 717 800 625 882 b 208 651 300 882 208 800 l 208 335 b 463 104 208 186 300 104 b 717 335 625 104 717 186 "},"ŏ":{"ha":751,"x_min":0,"x_max":0,"o":"m 589 957 b 375 811 557 860 485 811 b 164 957 264 811 193 860 b 178 989 160 972 164 982 l 222 1006 b 256 993 238 1010 249 1006 b 375 901 274 932 314 901 b 496 993 438 901 478 932 b 525 1006 501 1006 511 1010 l 574 989 b 589 957 589 982 593 971 m 64 471 b 375 738 64 638 181 738 b 688 471 574 738 688 638 l 688 244 b 375 -21 688 79 574 -21 b 64 244 181 -21 64 79 m 564 472 b 375 625 564 568 493 625 b 188 472 258 625 188 568 l 188 244 b 375 92 188 149 258 92 b 564 244 493 92 564 149 "},"Ő":{"ha":925,"x_min":0,"x_max":0,"o":"m 378 1253 b 433 1275 392 1274 410 1282 l 472 1263 b 482 1225 496 1254 499 1242 l 335 1086 b 296 1072 319 1072 307 1068 l 276 1079 b 265 1113 257 1085 253 1096 m 615 1253 b 671 1275 631 1274 650 1282 l 713 1263 b 724 1225 738 1253 742 1240 l 567 1082 b 526 1068 551 1069 538 1064 l 507 1075 b 496 1108 486 1079 483 1090 m 74 651 b 463 1007 74 874 214 1007 b 851 651 711 1007 851 874 l 851 335 b 463 -21 851 113 711 -21 b 74 335 214 -21 74 113 m 717 651 b 463 882 717 800 625 882 b 208 651 300 882 208 800 l 208 335 b 463 104 208 186 300 104 b 717 335 625 104 717 186 "},"ő":{"ha":751,"x_min":0,"x_max":0,"o":"m 296 963 b 347 983 310 981 326 988 l 383 971 b 393 938 404 964 407 953 l 257 810 b 221 797 243 797 231 793 l 203 803 b 193 833 186 808 183 818 m 517 961 b 568 982 531 981 547 988 l 606 971 b 615 936 629 961 633 950 l 469 807 b 433 794 454 794 443 790 l 415 800 b 406 831 397 804 393 815 m 64 471 b 375 738 64 638 181 738 b 688 471 574 738 688 638 l 688 244 b 375 -21 688 79 574 -21 b 64 244 181 -21 64 79 m 564 472 b 375 625 564 568 493 625 b 188 472 258 625 188 568 l 188 244 b 375 92 188 149 258 92 b 564 244 493 92 564 149 "},"Œ":{"ha":1182,"x_min":0,"x_max":0,"o":"m 1096 125 b 1133 89 1124 125 1133 115 l 1133 36 b 1096 0 1133 10 1124 0 l 618 0 b 463 -21 572 -14 521 -21 b 74 335 214 -21 74 113 l 74 651 b 463 1007 74 874 214 1007 b 618 986 522 1007 574 1000 l 1081 986 b 1117 950 1107 986 1117 976 l 1117 897 b 1081 861 1117 871 1107 861 l 715 861 l 715 561 l 1015 561 b 1051 525 1043 561 1051 553 l 1051 474 b 1015 436 1051 446 1043 436 l 715 436 l 715 125 m 208 335 b 463 104 208 186 300 104 b 581 122 511 104 551 110 l 581 864 b 463 882 549 876 508 882 b 208 651 300 882 208 800 "},"œ":{"ha":1143,"x_min":0,"x_max":0,"o":"m 579 633 b 801 738 622 703 697 738 b 1090 451 996 738 1090 625 l 1090 369 b 1039 321 1090 338 1074 321 l 639 321 l 639 253 b 800 88 639 143 693 88 b 965 182 883 88 928 119 b 1019 196 979 203 997 207 l 1057 175 b 1069 121 1081 163 1085 144 b 799 -21 1015 28 939 -21 b 578 81 694 -21 621 13 b 351 -21 533 13 458 -21 b 65 244 169 -21 65 78 l 65 472 b 351 738 65 638 169 738 b 579 633 460 738 536 703 m 965 458 b 801 632 965 574 911 632 b 639 458 693 632 639 574 l 639 417 l 965 417 m 514 472 b 351 625 514 568 456 625 b 190 472 250 625 190 568 l 190 244 b 351 92 190 149 250 92 b 514 244 453 92 514 149 "},"Ŕ":{"ha":899,"x_min":0,"x_max":0,"o":"m 510 1250 b 571 1249 536 1265 557 1264 l 599 1215 b 593 1176 614 1197 615 1185 l 350 1061 b 308 1063 329 1053 315 1053 l 292 1083 b 294 1118 276 1101 278 1108 m 529 986 b 829 690 717 986 829 878 b 625 414 829 542 754 443 b 694 336 650 400 674 374 l 849 38 b 829 0 861 13 856 0 l 768 0 b 696 32 722 0 708 6 l 569 286 b 386 396 529 369 488 396 l 238 396 l 238 36 b 200 0 238 10 228 0 l 139 0 b 103 36 113 0 103 10 l 103 950 b 139 986 103 976 113 986 m 689 690 b 517 861 689 800 626 861 l 238 861 l 238 521 l 517 521 b 689 690 626 521 689 583 "},"ŕ":{"ha":481,"x_min":0,"x_max":0,"o":"m 350 1006 b 413 1003 378 1019 399 1018 l 439 969 b 435 932 454 951 453 939 l 190 815 b 149 817 169 807 156 807 l 133 838 b 135 874 121 853 121 865 m 392 738 l 436 738 b 469 704 463 738 469 728 l 469 657 b 436 624 469 633 463 624 l 388 624 b 228 600 332 624 279 615 b 208 572 215 596 208 586 l 208 33 b 175 0 208 7 201 0 l 117 0 b 85 33 93 0 85 10 l 85 617 b 138 694 85 661 94 676 b 392 738 207 721 292 736 "},"Ŗ":{"ha":899,"x_min":0,"x_max":0,"o":"m 529 986 b 829 690 717 986 829 878 b 625 414 829 542 754 443 b 694 336 650 400 674 374 l 849 38 b 829 0 861 13 856 0 l 768 0 b 696 32 722 0 708 6 l 569 286 b 386 396 529 369 488 396 l 238 396 l 238 36 b 200 0 238 10 228 0 l 139 0 b 103 36 113 0 103 10 l 103 950 b 139 986 103 976 113 986 m 689 690 b 517 861 689 800 626 861 l 238 861 l 238 521 l 517 521 b 689 690 626 521 689 583 m 475 -319 b 436 -351 468 -340 454 -351 l 396 -351 b 375 -326 378 -351 371 -347 l 413 -128 b 453 -93 414 -100 425 -93 l 508 -93 b 539 -128 538 -93 547 -104 "},"ŗ":{"ha":481,"x_min":0,"x_max":0,"o":"m 393 738 l 438 738 b 471 704 464 738 471 728 l 471 657 b 438 624 471 633 464 624 l 389 624 b 229 600 333 624 281 615 b 210 572 217 596 210 586 l 210 33 b 176 0 210 7 203 0 l 118 0 b 86 33 94 0 86 10 l 86 617 b 139 694 86 661 96 676 b 393 738 208 721 293 736 m 154 -279 b 113 -311 149 -300 135 -311 l 79 -311 b 56 -285 57 -311 54 -307 l 88 -94 b 131 -57 89 -65 101 -57 l 178 -57 b 207 -94 206 -57 215 -69 "},"Ř":{"ha":899,"x_min":0,"x_max":0,"o":"m 653 1256 b 668 1228 679 1256 683 1243 l 511 1085 b 451 1056 485 1058 478 1056 l 438 1056 b 372 1085 404 1056 400 1057 l 217 1228 b 232 1256 201 1243 204 1256 l 278 1256 b 329 1236 300 1256 317 1249 l 442 1138 l 550 1236 b 603 1256 563 1249 579 1256 m 529 986 b 829 690 717 986 829 878 b 625 414 829 542 754 443 b 694 336 650 400 674 374 l 849 38 b 829 0 861 13 856 0 l 768 0 b 696 32 722 0 708 6 l 569 286 b 386 396 529 369 488 396 l 238 396 l 238 36 b 200 0 238 10 228 0 l 139 0 b 103 36 113 0 103 10 l 103 950 b 139 986 103 976 113 986 m 689 690 b 517 861 689 800 626 861 l 238 861 l 238 521 l 517 521 b 689 690 626 521 689 583 "},"ř":{"ha":481,"x_min":0,"x_max":0,"o":"m 496 983 b 510 958 519 983 525 975 l 367 826 b 311 799 340 800 335 799 l 299 799 b 239 826 269 799 263 800 l 94 958 b 108 983 82 975 86 983 l 151 983 b 199 967 172 983 188 978 l 301 875 l 401 967 b 450 983 411 978 428 983 m 411 738 l 456 738 b 489 704 482 738 489 728 l 489 657 b 456 624 489 633 482 624 l 407 624 b 247 600 351 624 299 615 b 228 572 235 596 228 586 l 228 33 b 194 0 228 7 221 0 l 136 0 b 104 33 113 0 104 10 l 104 617 b 157 694 104 661 114 676 b 411 738 226 721 311 736 "},"Ś":{"ha":874,"x_min":0,"x_max":0,"o":"m 510 1264 b 571 1261 538 1279 558 1279 l 599 1228 b 594 1190 614 1210 613 1197 l 350 1074 b 308 1076 329 1065 315 1067 l 292 1096 b 294 1132 279 1111 281 1124 m 71 713 b 440 1007 71 890 206 1007 b 804 794 629 1007 733 940 b 785 746 815 772 808 756 l 726 719 b 679 738 700 708 692 711 b 440 878 629 833 563 878 b 208 721 286 878 208 825 b 322 589 208 647 253 610 b 475 561 374 572 408 568 b 668 519 554 551 600 546 b 750 471 703 506 729 489 b 824 281 790 433 824 368 b 439 -21 824 93 685 -21 b 60 217 235 -21 122 56 b 83 264 50 243 56 254 l 140 285 b 188 263 164 294 176 289 b 439 106 233 158 317 106 b 689 278 606 106 689 163 b 613 396 689 335 664 374 b 443 433 561 417 521 424 b 272 463 371 440 338 446 b 192 493 239 469 213 481 b 71 713 128 528 65 596 "},"ś":{"ha":694,"x_min":0,"x_max":0,"o":"m 426 1006 b 489 1003 454 1021 475 1021 l 515 969 b 511 932 531 951 529 939 l 268 815 b 225 818 247 808 232 808 l 210 838 b 211 874 197 853 197 865 m 72 522 b 351 738 72 656 169 738 b 642 588 499 738 596 688 b 625 539 653 565 647 549 l 578 519 b 532 535 551 508 547 513 b 354 625 503 594 454 625 b 196 525 249 625 196 592 b 385 415 196 443 250 426 b 592 358 476 406 546 388 b 660 201 638 329 660 276 b 369 -21 660 64 558 -21 b 65 150 210 -21 108 36 b 86 194 56 172 63 188 l 133 211 b 178 190 154 218 168 211 b 365 90 204 124 267 90 b 539 196 481 90 539 125 b 354 306 539 274 486 293 b 196 338 286 313 251 318 b 131 374 168 347 146 358 b 72 522 99 401 72 454 "},"Ŝ":{"ha":874,"x_min":0,"x_max":0,"o":"m 456 1269 b 515 1240 483 1269 489 1268 l 672 1097 b 656 1071 688 1082 683 1071 l 607 1071 b 554 1089 583 1071 565 1076 l 444 1188 l 333 1089 b 282 1071 321 1076 304 1071 l 236 1071 b 219 1097 210 1071 204 1079 l 376 1240 b 442 1269 404 1268 408 1269 m 71 713 b 440 1007 71 890 206 1007 b 804 794 629 1007 733 940 b 785 746 815 772 808 756 l 726 719 b 679 738 700 708 692 711 b 440 878 629 833 563 878 b 208 721 286 878 208 825 b 322 589 208 647 253 610 b 475 561 374 572 408 568 b 668 519 554 551 600 546 b 750 471 703 506 729 489 b 824 281 790 433 824 368 b 439 -21 824 93 685 -21 b 60 217 235 -21 122 56 b 83 264 50 243 56 254 l 140 285 b 188 263 164 294 176 289 b 439 106 233 158 317 106 b 689 278 606 106 689 163 b 613 396 689 335 664 374 b 443 433 561 417 521 424 b 272 463 371 440 338 446 b 192 493 239 469 213 481 b 71 713 128 528 65 596 "},"ŝ":{"ha":694,"x_min":0,"x_max":0,"o":"m 371 1001 b 431 972 399 1001 403 1000 l 585 832 b 568 806 600 814 594 806 l 521 806 b 468 824 497 806 481 811 l 361 921 l 253 824 b 201 806 240 811 224 806 l 157 806 b 142 832 131 806 126 819 l 294 972 b 358 1001 322 999 329 1001 m 72 522 b 351 738 72 656 169 738 b 642 588 499 738 596 688 b 625 539 653 565 647 549 l 578 519 b 532 535 551 508 547 513 b 354 625 503 594 454 625 b 196 525 249 625 196 592 b 385 415 196 443 250 426 b 592 358 476 406 546 388 b 660 201 638 329 660 276 b 369 -21 660 64 558 -21 b 65 150 210 -21 108 36 b 86 194 56 172 63 188 l 133 211 b 178 190 154 218 168 211 b 365 90 204 124 267 90 b 539 196 481 90 539 125 b 354 306 539 274 486 293 b 196 338 286 313 251 318 b 131 374 168 347 146 358 b 72 522 99 401 72 454 "},"Ş":{"ha":874,"x_min":0,"x_max":0,"o":"m 474 561 b 667 519 553 551 599 546 b 750 471 701 506 729 489 b 824 281 792 433 824 368 b 492 -18 824 108 707 -1 l 464 -93 b 492 -92 469 -92 479 -92 b 608 -210 565 -92 614 -142 b 433 -343 601 -300 532 -343 b 328 -319 392 -343 357 -335 b 308 -287 315 -314 308 -303 l 307 -254 b 325 -240 307 -239 313 -233 b 418 -268 354 -258 385 -268 b 501 -203 474 -268 501 -246 b 429 -153 501 -171 478 -154 b 389 -157 414 -153 400 -154 b 372 -129 368 -158 363 -150 l 415 -21 b 60 217 226 -15 119 61 b 82 264 50 243 56 254 l 139 285 b 186 263 165 294 175 289 b 438 106 232 158 315 106 b 689 278 606 106 689 163 b 583 407 689 349 649 385 b 442 433 535 422 503 426 b 271 463 369 440 336 446 b 190 493 238 469 211 481 b 69 713 126 528 64 596 b 439 1007 69 890 206 1007 b 804 794 628 1007 732 940 b 783 746 814 772 807 756 l 725 719 b 678 738 701 708 693 711 b 439 878 629 832 561 878 b 207 721 285 878 207 825 b 321 589 207 647 251 610 b 474 561 372 572 407 568 "},"ş":{"ha":694,"x_min":0,"x_max":0,"o":"m 72 522 b 351 738 72 656 169 738 b 642 588 499 738 596 688 b 625 539 653 565 647 549 l 578 519 b 532 535 551 508 547 513 b 354 625 503 594 454 625 b 196 525 249 625 196 592 b 385 415 196 443 250 426 b 592 358 476 406 546 388 b 660 201 638 329 660 276 b 407 -18 660 75 574 -7 l 376 -99 b 403 -96 386 -97 394 -96 b 518 -210 474 -96 522 -143 b 347 -337 511 -299 442 -337 b 242 -317 307 -337 271 -331 b 224 -285 229 -310 224 -299 l 222 -253 b 239 -240 222 -242 228 -235 b 332 -267 268 -258 300 -267 b 413 -204 386 -267 413 -246 b 342 -156 413 -174 389 -157 b 301 -160 326 -156 314 -157 b 286 -132 283 -161 279 -153 l 333 -19 b 65 150 194 -11 106 46 b 86 194 56 172 63 188 l 133 211 b 178 190 154 218 168 211 b 365 90 204 124 267 90 b 539 196 481 90 539 125 b 354 306 539 274 486 293 b 196 338 286 313 251 318 b 131 374 168 347 146 358 b 72 522 99 401 72 454 "},"Š":{"ha":874,"x_min":0,"x_max":0,"o":"m 653 1269 b 668 1242 679 1269 683 1257 l 513 1099 b 451 1069 486 1071 481 1069 l 438 1069 b 374 1099 406 1069 400 1071 l 217 1242 b 232 1269 201 1254 206 1269 l 278 1269 b 329 1250 300 1269 317 1263 l 442 1151 l 550 1250 b 604 1269 563 1263 581 1269 m 71 713 b 440 1007 71 890 206 1007 b 804 794 629 1007 733 940 b 785 746 815 772 808 756 l 726 719 b 679 738 700 708 692 711 b 440 878 629 833 563 878 b 208 721 286 878 208 825 b 322 589 208 647 253 610 b 475 561 374 572 408 568 b 668 519 554 551 600 546 b 750 471 703 506 729 489 b 824 281 790 433 824 368 b 439 -21 824 93 685 -21 b 60 217 235 -21 122 56 b 83 264 50 243 56 254 l 140 285 b 188 263 164 294 176 289 b 439 106 233 158 317 106 b 689 278 606 106 689 163 b 613 396 689 335 664 374 b 443 433 561 417 521 424 b 272 463 371 440 338 446 b 192 493 239 469 213 481 b 71 713 128 528 65 596 "},"š":{"ha":694,"x_min":0,"x_max":0,"o":"m 550 979 b 564 954 574 979 576 967 l 422 825 b 368 799 399 801 394 799 l 356 799 b 297 825 328 799 321 801 l 156 954 b 168 979 143 967 146 979 l 211 979 b 258 963 231 979 246 974 l 358 872 l 457 963 b 506 979 468 974 485 979 m 72 522 b 351 738 72 656 169 738 b 642 588 499 738 596 688 b 625 539 653 565 647 549 l 578 519 b 532 535 551 508 547 513 b 354 625 503 594 454 625 b 196 525 249 625 196 592 b 385 415 196 443 250 426 b 592 358 476 406 546 388 b 660 201 638 329 660 276 b 369 -21 660 64 558 -21 b 65 150 210 -21 108 36 b 86 194 56 172 63 188 l 133 211 b 178 190 154 218 168 211 b 365 90 204 124 267 90 b 539 196 481 90 539 125 b 354 306 539 274 486 293 b 196 338 286 313 251 318 b 131 374 168 347 146 358 b 72 522 99 401 72 454 "},"Ť":{"ha":769,"x_min":0,"x_max":0,"o":"m 593 1256 b 608 1228 619 1256 624 1243 l 453 1085 b 392 1056 426 1058 419 1056 l 378 1056 b 314 1085 346 1056 340 1057 l 157 1228 b 172 1256 142 1243 146 1256 l 218 1256 b 269 1236 240 1256 257 1249 l 382 1138 l 490 1236 b 544 1256 503 1249 521 1256 m 714 986 b 750 950 740 986 750 976 l 750 897 b 714 861 750 871 740 861 l 451 861 l 451 36 b 415 0 451 10 443 0 l 354 0 b 318 36 326 0 318 10 l 318 861 l 56 861 b 19 897 28 861 19 871 l 19 950 b 56 986 19 976 28 986 "},"ť":{"ha":517,"x_min":0,"x_max":0,"o":"m 471 801 b 433 771 464 778 456 771 l 404 771 b 383 794 386 771 382 774 l 413 994 b 451 1028 414 1021 425 1028 l 503 1028 b 532 994 531 1028 540 1017 m 249 883 b 282 850 272 883 282 876 l 282 717 l 464 717 b 496 683 488 717 496 707 l 496 635 b 464 601 496 611 488 601 l 282 601 l 282 278 b 319 133 282 204 294 157 b 461 97 344 110 392 97 b 496 64 488 97 496 90 l 496 14 b 461 -19 496 -10 488 -18 b 226 40 349 -22 271 -3 b 158 275 181 82 158 160 l 158 601 l 43 601 b 10 635 19 601 10 611 l 10 683 b 43 717 10 710 19 717 l 158 717 l 158 850 b 190 883 158 876 167 883 "},"Ŧ":{"ha":796,"x_min":0,"x_max":0,"o":"m 728 986 b 764 950 754 986 764 976 l 764 897 b 728 861 764 871 754 861 l 465 861 l 465 504 l 647 504 b 669 481 663 504 669 496 l 669 432 b 647 407 669 415 663 407 l 465 407 l 465 36 b 429 0 465 10 456 0 l 368 0 b 331 36 340 0 331 10 l 331 407 l 150 407 b 128 432 132 407 128 411 l 128 481 b 150 504 128 496 135 504 l 331 504 l 331 861 l 69 861 b 33 897 42 861 33 871 l 33 950 b 69 986 33 976 42 986 "},"ŧ":{"ha":525,"x_min":0,"x_max":0,"o":"m 256 885 b 289 851 282 885 289 875 l 289 718 l 469 718 b 503 685 496 718 503 708 l 503 636 b 469 603 503 610 496 603 l 289 603 l 289 413 l 433 413 b 456 389 449 413 456 404 l 456 349 b 433 325 456 331 450 325 l 289 325 l 289 276 b 326 133 289 203 301 156 b 468 99 351 110 399 99 b 501 65 492 99 501 89 l 501 15 b 468 -18 501 -8 492 -18 b 232 42 356 -21 278 -1 b 164 275 186 83 164 161 l 164 325 l 60 325 b 38 349 43 325 38 331 l 38 389 b 60 413 38 404 44 413 l 164 413 l 164 603 l 50 603 b 17 636 24 603 17 610 l 17 685 b 50 718 17 708 24 718 l 164 718 l 164 851 b 197 885 164 875 171 885 "},"Ũ":{"ha":951,"x_min":0,"x_max":0,"o":"m 663 1233 b 685 1213 678 1233 685 1226 b 572 1067 685 1111 650 1067 b 467 1111 540 1067 504 1082 b 379 1154 429 1140 400 1154 b 333 1088 349 1154 333 1132 b 314 1067 333 1074 326 1067 l 278 1067 b 257 1088 264 1067 257 1074 b 368 1233 257 1185 294 1233 b 564 1146 453 1233 511 1146 b 608 1213 593 1146 608 1168 b 628 1233 608 1226 615 1233 m 229 336 b 475 104 229 190 314 104 b 721 336 636 104 721 190 l 721 950 b 758 986 721 976 731 986 l 819 986 b 856 950 846 986 856 976 l 856 338 b 475 -21 856 115 724 -21 b 96 338 229 -21 96 115 l 96 950 b 132 986 96 976 104 986 l 193 986 b 229 950 221 986 229 976 "},"ũ":{"ha":765,"x_min":0,"x_max":0,"o":"m 568 992 b 589 971 582 992 589 985 b 476 825 589 869 554 825 b 372 868 444 825 410 839 b 285 911 335 897 306 911 b 239 846 254 911 239 889 b 219 825 239 832 232 825 l 183 825 b 163 846 169 825 163 832 b 274 992 163 943 200 992 b 383 949 308 992 346 978 b 468 904 421 919 449 904 b 514 971 499 904 514 926 b 533 992 514 985 521 992 m 647 717 b 681 683 674 717 681 710 l 681 104 b 628 26 681 60 671 44 b 363 -21 543 -6 456 -21 b 81 254 175 -21 81 71 l 81 683 b 114 717 81 710 88 717 l 172 717 b 204 683 196 717 204 707 l 204 258 b 379 93 204 149 263 93 b 536 117 433 93 485 101 b 557 149 550 124 557 133 l 557 683 b 590 717 557 710 567 717 "},"Ū":{"ha":951,"x_min":0,"x_max":0,"o":"m 638 1193 b 669 1163 661 1193 669 1186 l 669 1135 b 638 1103 669 1111 661 1103 l 313 1103 b 282 1135 289 1103 282 1111 l 282 1163 b 313 1193 282 1186 290 1193 m 229 336 b 475 104 229 190 314 104 b 721 336 636 104 721 190 l 721 950 b 758 986 721 976 731 986 l 819 986 b 856 950 846 986 856 976 l 856 338 b 475 -21 856 115 724 -21 b 96 338 229 -21 96 115 l 96 950 b 132 986 96 976 104 986 l 193 986 b 229 950 221 986 229 976 "},"ū":{"ha":765,"x_min":0,"x_max":0,"o":"m 543 947 b 575 915 567 947 575 939 l 575 888 b 543 857 575 864 569 857 l 218 857 b 188 888 194 857 188 864 l 188 915 b 218 947 188 939 196 947 m 647 717 b 681 683 674 717 681 710 l 681 104 b 628 26 681 60 671 44 b 363 -21 543 -6 456 -21 b 81 254 175 -21 81 71 l 81 683 b 114 717 81 710 88 717 l 172 717 b 204 683 196 717 204 707 l 204 258 b 379 93 204 149 263 93 b 536 117 433 93 485 101 b 557 149 550 124 557 133 l 557 683 b 590 717 557 710 567 717 "},"Ŭ":{"ha":951,"x_min":0,"x_max":0,"o":"m 689 1204 b 475 1058 657 1107 586 1058 b 264 1204 365 1058 296 1107 b 279 1236 260 1219 264 1229 l 322 1253 b 356 1240 338 1257 349 1253 b 475 1149 374 1179 414 1149 b 596 1240 538 1149 578 1179 b 625 1253 601 1253 611 1257 l 674 1236 b 689 1204 689 1229 693 1218 m 229 336 b 475 104 229 190 314 104 b 721 336 636 104 721 190 l 721 950 b 758 986 721 976 731 986 l 819 986 b 856 950 846 986 856 976 l 856 338 b 475 -21 856 115 724 -21 b 96 338 229 -21 96 115 l 96 950 b 132 986 96 976 104 986 l 193 986 b 229 950 221 986 229 976 "},"ŭ":{"ha":765,"x_min":0,"x_max":0,"o":"m 594 957 b 381 811 563 860 490 811 b 169 957 269 811 199 860 b 183 989 165 972 169 982 l 228 1006 b 261 993 243 1010 254 1006 b 381 901 279 932 319 901 b 501 993 443 901 483 932 b 531 1006 507 1006 517 1010 l 579 989 b 594 957 594 982 599 971 m 647 717 b 681 683 674 717 681 710 l 681 104 b 628 26 681 60 671 44 b 363 -21 543 -6 456 -21 b 81 254 175 -21 81 71 l 81 683 b 114 717 81 710 88 717 l 172 717 b 204 683 196 717 204 707 l 204 258 b 379 93 204 149 263 93 b 536 117 433 93 485 101 b 557 149 550 124 557 133 l 557 683 b 590 717 557 710 567 717 "},"Ů":{"ha":951,"x_min":0,"x_max":0,"o":"m 335 1172 b 482 1314 335 1257 394 1314 b 624 1172 567 1314 624 1257 b 482 1032 624 1089 567 1032 b 335 1172 394 1032 335 1089 m 539 1115 b 482 1251 583 1160 556 1260 b 399 1172 431 1251 399 1221 b 482 1094 399 1124 431 1094 b 539 1115 506 1094 524 1101 m 229 336 b 475 104 229 190 314 104 b 721 336 636 104 721 190 l 721 950 b 758 986 721 976 731 986 l 819 986 b 856 950 846 986 856 976 l 856 338 b 475 -21 856 115 724 -21 b 96 338 229 -21 96 115 l 96 950 b 132 986 96 976 104 986 l 193 986 b 229 950 221 986 229 976 "},"ů":{"ha":765,"x_min":0,"x_max":0,"o":"m 238 899 b 385 1042 238 983 297 1042 b 528 899 469 1042 528 983 b 385 758 528 815 469 758 b 238 899 297 758 238 815 m 464 899 b 385 978 464 947 433 978 b 301 899 335 978 301 947 b 385 821 301 853 335 821 b 464 899 431 821 464 853 m 647 717 b 681 683 674 717 681 710 l 681 104 b 628 26 681 60 671 44 b 363 -21 543 -6 456 -21 b 81 254 175 -21 81 71 l 81 683 b 114 717 81 710 88 717 l 172 717 b 204 683 196 717 204 707 l 204 258 b 379 93 204 149 263 93 b 536 117 433 93 485 101 b 557 149 550 124 557 133 l 557 683 b 590 717 557 710 567 717 "},"Ű":{"ha":951,"x_min":0,"x_max":0,"o":"m 390 1239 b 446 1261 404 1260 422 1268 l 485 1249 b 494 1211 508 1240 511 1228 l 347 1072 b 308 1058 332 1058 319 1054 l 289 1065 b 278 1099 269 1071 265 1082 m 628 1239 b 683 1261 643 1260 663 1268 l 725 1249 b 736 1211 750 1239 754 1226 l 579 1068 b 539 1054 564 1056 550 1050 l 519 1061 b 508 1094 499 1065 496 1076 m 229 336 b 475 104 229 190 314 104 b 721 336 636 104 721 190 l 721 950 b 758 986 721 976 731 986 l 819 986 b 856 950 846 986 856 976 l 856 338 b 475 -21 856 115 724 -21 b 96 338 229 -21 96 115 l 96 950 b 132 986 96 976 104 986 l 193 986 b 229 950 221 986 229 976 "},"ű":{"ha":765,"x_min":0,"x_max":0,"o":"m 294 983 b 351 1006 310 1006 329 1013 l 390 993 b 400 957 411 986 415 974 l 253 818 b 214 804 238 804 225 800 l 194 810 b 183 843 175 815 171 826 m 535 983 b 590 1006 550 1004 569 1011 l 632 993 b 642 956 657 983 660 971 l 483 815 b 443 801 468 801 454 797 l 424 807 b 413 840 403 814 400 825 m 647 717 b 681 683 674 717 681 710 l 681 104 b 628 26 681 60 671 44 b 363 -21 543 -6 456 -21 b 81 254 175 -21 81 71 l 81 683 b 114 717 81 710 88 717 l 172 717 b 204 683 196 717 204 707 l 204 258 b 379 93 204 149 263 93 b 536 117 433 93 485 101 b 557 149 550 124 557 133 l 557 683 b 590 717 557 710 567 717 "},"Ų":{"ha":951,"x_min":0,"x_max":0,"o":"m 819 986 b 856 950 846 986 856 976 l 856 338 b 736 56 856 213 815 118 b 568 -215 615 -54 556 -167 b 615 -249 576 -237 592 -249 b 671 -226 636 -249 656 -242 b 692 -232 681 -219 688 -221 l 706 -268 b 704 -292 710 -278 710 -286 b 576 -342 669 -325 628 -342 b 461 -265 511 -342 474 -317 b 581 -8 444 -197 493 -99 b 475 -21 550 -17 515 -21 b 96 338 229 -21 96 115 l 96 950 b 132 986 96 976 104 986 l 193 986 b 229 950 221 986 229 976 l 229 336 b 475 104 229 190 314 104 b 721 336 636 104 721 190 l 721 950 b 758 986 721 976 731 986 "},"ų":{"ha":765,"x_min":0,"x_max":0,"o":"m 647 717 b 681 683 674 717 681 710 l 681 104 b 663 47 681 78 675 60 b 564 -103 618 -1 585 -51 b 542 -215 542 -154 535 -192 b 588 -249 549 -237 564 -249 b 643 -226 608 -249 628 -242 b 664 -232 653 -219 660 -221 l 679 -268 b 676 -292 683 -279 682 -287 b 549 -342 643 -325 600 -342 b 435 -265 483 -342 446 -317 b 544 3 417 -197 460 -85 b 363 -21 493 -12 432 -21 b 81 254 175 -21 81 71 l 81 683 b 114 717 81 710 88 717 l 172 717 b 204 683 196 717 204 707 l 204 258 b 379 93 204 149 263 93 b 536 117 433 93 485 101 b 557 149 550 124 557 133 l 557 683 b 590 717 557 710 567 717 "},"Ŵ":{"ha":1236,"x_min":0,"x_max":0,"o":"m 639 1257 b 700 1228 667 1257 674 1254 l 857 1085 b 840 1057 872 1067 867 1057 l 792 1057 b 738 1076 768 1057 750 1064 l 629 1175 l 517 1076 b 465 1057 504 1064 488 1057 l 419 1057 b 403 1085 393 1057 388 1067 l 561 1228 b 625 1257 588 1256 593 1257 m 1185 986 b 1210 950 1211 986 1215 976 l 969 31 b 924 0 964 7 951 0 l 865 0 b 819 29 839 0 824 10 l 653 647 b 628 792 640 693 632 742 l 619 792 b 593 647 615 743 607 696 l 425 31 b 379 0 419 10 404 0 l 321 0 b 275 29 294 0 279 10 l 36 950 b 60 986 29 976 33 986 l 133 986 b 182 954 165 986 176 981 l 326 353 b 350 186 335 311 343 256 l 357 186 b 386 351 368 267 378 322 l 550 943 b 599 975 557 964 572 975 l 657 975 b 706 943 683 975 700 964 l 868 351 b 897 186 882 297 892 243 l 904 186 b 929 350 911 257 919 311 l 1072 954 b 1121 986 1078 981 1089 986 "},"ŵ":{"ha":1018,"x_min":0,"x_max":0,"o":"m 526 1000 b 586 972 554 1000 560 999 l 739 832 b 724 806 754 819 750 806 l 676 806 b 624 824 651 806 633 811 l 517 919 l 407 824 b 357 806 394 811 378 806 l 313 806 b 296 832 286 806 281 814 l 450 972 b 514 1000 476 999 482 1000 m 964 717 b 992 678 996 717 1001 707 l 794 26 b 750 -3 790 7 775 -3 l 713 -3 b 665 26 689 -3 672 7 l 542 436 b 515 565 528 486 517 560 l 510 565 b 483 436 508 563 497 486 l 360 26 b 314 -3 354 7 339 -3 l 278 -3 b 232 26 253 -3 238 7 l 38 678 b 65 717 26 707 32 717 l 107 717 b 165 683 147 717 160 711 l 269 307 b 288 215 275 286 281 256 b 297 151 293 175 296 154 l 303 151 b 315 217 304 156 308 176 b 335 308 322 256 328 286 l 449 672 b 504 707 458 701 465 707 l 529 707 b 583 674 567 707 574 701 l 699 311 b 721 214 706 286 714 254 b 731 151 728 174 731 153 l 738 151 b 747 213 739 153 742 174 b 764 310 751 250 757 283 l 868 683 b 928 717 875 711 888 717 "},"Ŷ":{"ha":881,"x_min":0,"x_max":0,"o":"m 457 1257 b 518 1228 485 1257 492 1254 l 675 1085 b 658 1057 690 1067 685 1057 l 610 1057 b 556 1076 586 1057 568 1064 l 447 1175 l 336 1076 b 285 1057 324 1064 306 1057 l 239 1057 b 222 1085 211 1057 206 1067 l 379 1228 b 444 1257 407 1256 411 1257 m 844 986 b 864 950 871 986 878 974 l 511 394 l 511 36 b 475 0 511 10 503 0 l 414 0 b 378 36 386 0 378 10 l 378 397 l 25 950 b 44 986 13 968 18 986 l 119 986 b 190 954 164 986 174 983 l 446 533 l 704 954 b 775 986 721 983 729 986 "},"ŷ":{"ha":768,"x_min":0,"x_max":0,"o":"m 394 1000 b 454 972 422 1000 428 999 l 607 832 b 592 806 622 814 618 806 l 543 806 b 490 824 519 806 501 811 l 385 919 l 275 824 b 225 806 263 811 246 806 l 181 806 b 164 832 154 806 149 814 l 318 972 b 381 1000 344 999 349 1000 m 651 717 b 685 683 678 717 685 710 l 685 -35 b 385 -335 685 -235 585 -335 b 103 -193 250 -335 157 -287 b 117 -140 88 -169 93 -153 l 157 -118 b 211 -131 183 -106 194 -108 b 383 -224 247 -193 304 -224 b 561 -40 501 -224 561 -162 l 561 35 b 367 6 490 15 425 6 b 85 281 179 6 85 97 l 85 683 b 118 717 85 710 92 717 l 176 717 b 208 683 200 717 208 707 l 208 285 b 383 119 208 175 267 119 b 561 149 439 119 499 129 l 561 683 b 594 717 561 710 571 717 "},"Ÿ":{"ha":881,"x_min":0,"x_max":0,"o":"m 315 1215 b 374 1158 360 1215 374 1201 l 374 1146 b 315 1089 374 1103 360 1089 l 306 1089 b 249 1146 263 1089 249 1103 l 249 1158 b 306 1215 249 1201 263 1215 m 589 1215 b 646 1158 632 1215 646 1201 l 646 1146 b 589 1089 646 1103 632 1089 l 581 1089 b 521 1146 535 1089 521 1103 l 521 1158 b 581 1215 521 1201 536 1215 m 844 986 b 864 950 871 986 878 974 l 511 394 l 511 36 b 475 0 511 10 503 0 l 414 0 b 378 36 386 0 378 10 l 378 397 l 25 950 b 44 986 13 968 18 986 l 119 986 b 190 954 164 986 174 983 l 446 533 l 704 954 b 775 986 721 983 729 986 "},"Ź":{"ha":800,"x_min":0,"x_max":0,"o":"m 472 1250 b 533 1249 499 1265 519 1264 l 561 1215 b 557 1176 576 1197 575 1185 l 313 1061 b 271 1063 292 1053 278 1053 l 254 1083 b 257 1118 242 1099 243 1110 m 708 986 b 744 950 735 986 744 976 l 744 899 b 732 860 744 882 740 869 l 214 125 l 719 125 b 756 89 747 125 756 117 l 756 36 b 719 0 756 10 747 0 l 83 0 b 46 36 56 0 46 10 l 46 88 b 60 128 46 103 50 115 l 576 861 l 89 861 b 53 897 63 861 53 871 l 53 950 b 89 986 53 976 63 986 "},"ź":{"ha":643,"x_min":0,"x_max":0,"o":"m 386 1006 b 449 1003 414 1019 435 1018 l 475 969 b 471 932 490 951 489 939 l 226 815 b 185 817 206 807 192 807 l 169 838 b 171 874 157 853 157 865 m 568 113 b 600 79 592 113 600 103 l 600 33 b 568 0 600 10 592 0 l 75 0 b 42 33 49 0 42 7 l 42 79 b 54 114 42 92 46 103 l 433 604 l 81 604 b 49 638 57 604 49 614 l 49 683 b 81 717 49 707 57 717 l 561 717 b 594 683 588 717 594 710 l 594 638 b 582 600 594 626 590 614 l 200 113 "},"Ż":{"ha":800,"x_min":0,"x_max":0,"o":"m 411 1214 b 471 1154 457 1214 471 1200 l 471 1144 b 411 1085 471 1099 457 1085 l 404 1085 b 344 1144 358 1085 344 1099 l 344 1154 b 404 1214 344 1200 358 1214 m 708 986 b 744 950 735 986 744 976 l 744 899 b 732 860 744 882 740 869 l 214 125 l 719 125 b 756 89 747 125 756 117 l 756 36 b 719 0 756 10 747 0 l 83 0 b 46 36 56 0 46 10 l 46 88 b 60 128 46 103 50 115 l 576 861 l 89 861 b 53 897 63 861 53 871 l 53 950 b 89 986 53 976 63 986 "},"ż":{"ha":643,"x_min":0,"x_max":0,"o":"m 325 967 b 385 907 371 967 385 953 l 385 897 b 325 838 385 851 371 838 l 318 838 b 258 897 272 838 258 851 l 258 907 b 318 967 258 953 272 967 m 568 113 b 600 79 592 113 600 103 l 600 33 b 568 0 600 10 592 0 l 75 0 b 42 33 49 0 42 7 l 42 79 b 54 114 42 92 46 103 l 433 604 l 81 604 b 49 638 57 604 49 614 l 49 683 b 81 717 49 707 57 717 l 561 717 b 594 683 588 717 594 710 l 594 638 b 582 600 594 626 590 614 l 200 113 "},"Ž":{"ha":800,"x_min":0,"x_max":0,"o":"m 615 1256 b 631 1228 642 1256 646 1243 l 475 1085 b 414 1056 447 1058 440 1056 l 400 1056 b 336 1085 368 1056 363 1057 l 179 1228 b 194 1256 164 1243 168 1256 l 240 1256 b 292 1236 263 1256 279 1249 l 404 1138 l 513 1236 b 567 1256 525 1249 543 1256 m 708 986 b 744 950 735 986 744 976 l 744 899 b 732 860 744 882 740 869 l 214 125 l 719 125 b 756 89 747 125 756 117 l 756 36 b 719 0 756 10 747 0 l 83 0 b 46 36 56 0 46 10 l 46 88 b 60 128 46 103 50 115 l 576 861 l 89 861 b 53 897 63 861 53 871 l 53 950 b 89 986 53 976 63 986 "},"ž":{"ha":643,"x_min":0,"x_max":0,"o":"m 508 978 b 522 953 532 978 538 965 l 382 824 b 328 797 358 800 351 797 l 315 797 b 257 824 286 797 279 800 l 115 953 b 129 978 100 969 106 978 l 171 978 b 218 961 190 978 206 972 l 318 871 l 417 961 b 464 978 426 972 443 978 m 568 113 b 600 79 592 113 600 103 l 600 33 b 568 0 600 10 592 0 l 75 0 b 42 33 49 0 42 7 l 42 79 b 54 114 42 92 46 103 l 433 604 l 81 604 b 49 638 57 604 49 614 l 49 683 b 81 717 49 707 57 717 l 561 717 b 594 683 588 717 594 710 l 594 638 b 582 600 594 626 590 614 l 200 113 "},"ſ":{"ha":383,"x_min":0,"x_max":0,"o":"m 143 743 b 447 1028 143 939 236 1028 b 481 994 474 1028 481 1021 l 481 946 b 447 913 481 922 474 913 b 268 733 314 913 268 863 l 268 33 b 233 0 268 7 260 0 l 178 0 b 143 33 151 0 143 7 l 143 601 l 47 601 b 15 635 24 601 15 611 l 15 683 b 47 717 15 707 24 717 l 143 717 "},"ƒ":{"ha":628,"x_min":0,"x_max":0,"o":"m 267 736 b 576 1028 288 926 376 1028 b 610 994 600 1028 610 1021 l 610 946 b 576 913 610 922 600 913 b 392 731 453 913 404 851 l 372 554 l 542 554 b 575 521 568 554 575 544 l 575 472 b 542 439 575 446 568 439 l 361 439 l 313 -12 b 4 -306 294 -201 204 -306 b -31 -272 -22 -306 -31 -299 l -31 -224 b 4 -190 -31 -197 -22 -190 b 189 -8 126 -190 176 -126 l 236 439 l 76 439 b 43 472 53 439 43 446 l 43 521 b 76 554 43 544 53 554 l 249 554 "},"Ǻ":{"ha":900,"x_min":0,"x_max":0,"o":"m 535 1332 b 593 1331 560 1344 579 1343 l 618 1304 b 613 1278 631 1292 629 1282 l 383 1194 b 344 1196 364 1188 351 1189 l 329 1211 b 340 1243 318 1224 322 1233 m 317 1035 b 467 1178 317 1118 379 1178 b 613 1035 551 1178 613 1118 b 546 931 613 986 590 951 l 899 36 b 875 0 908 13 901 0 l 819 0 b 753 32 775 0 763 6 l 665 263 l 258 263 l 169 32 b 103 0 160 6 147 0 l 54 0 b 31 36 28 0 21 13 l 385 931 b 317 1035 339 951 317 986 m 543 1039 b 467 1114 543 1083 511 1114 b 386 1039 418 1114 386 1083 b 467 968 386 999 421 968 b 543 1039 511 968 543 999 m 517 672 b 483 789 504 704 493 743 b 465 861 472 835 467 858 l 457 861 b 442 792 456 860 451 838 b 410 674 432 746 421 706 l 297 374 l 626 374 "},"ǻ":{"ha":717,"x_min":0,"x_max":0,"o":"m 417 1243 b 474 1240 442 1254 461 1253 l 499 1217 b 494 1188 515 1201 515 1194 l 267 1101 b 228 1103 247 1096 235 1096 l 213 1118 b 214 1144 200 1131 201 1139 m 211 932 b 358 1074 211 1017 271 1074 b 501 932 443 1074 501 1017 b 358 792 501 849 443 792 b 211 932 271 792 211 849 m 417 876 b 358 1011 461 919 432 1018 b 275 932 308 1011 275 981 b 358 854 275 886 308 854 b 417 876 382 854 401 861 m 72 592 b 354 738 122 689 217 738 b 642 457 564 738 642 631 l 642 94 b 592 15 642 46 631 32 b 353 -21 536 -8 457 -21 b 114 33 238 -21 157 -3 b 49 200 71 68 49 124 b 358 418 49 361 135 418 b 517 408 408 418 461 415 l 517 461 b 351 626 517 568 474 626 b 179 542 271 626 214 599 b 133 525 163 519 160 515 l 90 544 b 72 592 67 554 61 569 m 517 306 b 344 317 443 313 385 317 b 174 200 217 317 174 282 b 342 83 174 121 213 83 b 496 100 413 83 464 89 b 517 131 510 106 517 115 "},"Ǽ":{"ha":1171,"x_min":0,"x_max":0,"o":"m 919 1250 b 981 1249 947 1265 968 1265 l 1008 1215 b 1004 1176 1024 1197 1022 1185 l 760 1061 b 718 1063 739 1053 725 1053 l 703 1083 b 704 1118 690 1099 690 1110 m 1099 125 b 1135 89 1126 125 1135 115 l 1135 36 b 1099 0 1135 10 1126 0 l 635 0 b 597 36 607 0 597 10 l 597 226 l 275 226 l 160 32 b 92 0 144 8 135 0 l 35 0 b 10 36 10 0 1 13 l 582 956 b 628 986 597 979 604 986 l 1082 986 b 1118 950 1110 986 1118 976 l 1118 897 b 1082 861 1118 871 1110 861 l 728 861 l 728 561 l 1018 561 b 1054 525 1044 561 1054 553 l 1054 474 b 1018 436 1054 446 1044 436 l 728 436 l 728 125 m 597 761 l 342 338 l 597 338 "},"ǽ":{"ha":1101,"x_min":0,"x_max":0,"o":"m 608 1010 b 669 1008 635 1025 654 1025 l 696 975 b 692 936 711 957 710 944 l 449 821 b 406 822 428 813 413 813 l 390 843 b 392 879 378 858 378 871 m 74 592 b 333 738 124 689 210 738 b 542 636 433 738 503 704 b 761 738 585 704 658 738 b 1049 451 956 738 1049 625 l 1049 369 b 999 321 1049 338 1032 321 l 599 321 l 599 253 b 760 88 599 143 653 88 b 925 182 843 88 888 119 b 978 196 942 206 954 208 l 1017 175 b 1029 121 1040 163 1044 144 b 758 -21 975 28 899 -21 b 564 49 672 -21 607 3 b 331 -21 504 3 426 -21 b 110 32 224 -21 150 -3 b 49 199 69 67 49 122 b 336 417 49 360 126 417 b 474 407 369 417 415 414 l 474 475 b 331 626 474 574 440 626 b 181 542 265 626 215 599 b 135 526 164 519 158 517 l 92 544 b 74 592 68 554 61 571 m 925 458 b 761 632 925 574 871 632 b 599 458 653 632 599 574 l 599 417 l 925 417 m 474 306 b 324 315 406 313 356 315 b 175 199 211 315 175 281 b 319 83 175 119 207 83 b 479 139 438 85 479 124 b 474 219 475 161 474 188 "},"Ǿ":{"ha":925,"x_min":0,"x_max":0,"o":"m 539 1264 b 601 1263 567 1279 588 1279 l 628 1229 b 624 1190 643 1211 642 1199 l 379 1075 b 338 1076 358 1067 344 1067 l 322 1097 b 324 1132 310 1113 310 1124 m 864 1044 b 871 1032 874 1044 875 1040 l 779 889 b 858 651 832 828 858 749 l 858 335 b 469 -21 858 113 719 -19 b 235 36 374 -21 294 -1 l 183 -46 b 158 -57 178 -53 169 -57 l 88 -57 b 81 -43 78 -57 76 -53 l 165 90 b 81 335 108 150 81 231 l 81 651 b 469 1007 81 874 221 1007 b 711 944 568 1007 649 986 l 768 1033 b 792 1044 774 1040 782 1044 m 642 833 b 469 882 596 865 539 882 b 215 651 307 882 215 800 l 215 335 b 250 221 215 288 226 250 m 306 147 b 469 104 349 118 404 104 b 724 335 632 104 724 186 l 724 651 b 694 757 724 694 714 729 "},"ǿ":{"ha":751,"x_min":0,"x_max":0,"o":"m 440 1006 b 501 1003 467 1019 488 1018 l 529 969 b 524 932 544 951 543 939 l 281 815 b 239 817 260 807 246 807 l 222 838 b 225 874 210 853 211 865 m 661 767 b 667 754 668 767 671 763 l 610 664 b 688 471 661 617 688 553 l 688 244 b 375 -21 688 79 574 -21 b 200 17 308 -21 250 -8 l 165 -37 b 140 -49 160 -44 151 -49 l 92 -49 b 86 -36 82 -49 79 -44 l 143 54 b 64 244 90 100 64 163 l 64 471 b 375 738 64 638 181 738 b 553 700 446 738 506 725 l 589 756 b 611 767 594 763 601 767 m 489 599 b 375 625 457 617 418 625 b 188 472 258 625 188 568 l 188 244 b 218 171 188 215 197 192 m 263 118 b 375 92 294 100 332 92 b 564 244 493 92 564 149 l 564 472 b 535 546 564 501 554 526 "},"Ș":{"ha":874,"x_min":0,"x_max":0,"o":"m 71 713 b 440 1007 71 890 206 1007 b 804 794 629 1007 733 940 b 785 746 815 772 808 756 l 726 719 b 679 738 700 708 692 711 b 440 878 629 833 563 878 b 208 721 286 878 208 825 b 322 589 208 647 253 610 b 475 561 374 572 408 568 b 668 519 554 551 600 546 b 750 471 703 506 729 489 b 824 281 790 433 824 368 b 439 -21 824 93 685 -21 b 60 217 235 -21 122 56 b 83 264 50 243 56 254 l 140 285 b 188 263 164 294 176 289 b 439 106 233 158 317 106 b 689 278 606 106 689 163 b 613 396 689 335 664 374 b 443 433 561 417 521 424 b 272 463 371 440 338 446 b 192 493 239 469 213 481 b 71 713 128 528 65 596 m 461 -325 b 422 -356 454 -346 440 -356 l 382 -356 b 361 -332 364 -356 357 -350 l 399 -133 b 439 -99 400 -106 410 -99 l 494 -99 b 526 -133 526 -99 533 -110 "},"ș":{"ha":694,"x_min":0,"x_max":0,"o":"m 72 522 b 351 738 72 656 169 738 b 642 588 499 738 596 688 b 625 539 653 565 647 549 l 578 519 b 532 535 551 508 547 513 b 354 625 503 594 454 625 b 196 525 249 625 196 592 b 385 415 196 443 250 426 b 592 358 476 406 546 388 b 660 201 638 329 660 276 b 369 -21 660 64 558 -21 b 65 150 210 -21 108 36 b 86 194 56 172 63 188 l 133 211 b 178 190 154 218 168 211 b 365 90 204 124 267 90 b 539 196 481 90 539 125 b 354 306 539 274 486 293 b 196 338 286 313 251 318 b 131 374 168 347 146 358 b 72 522 99 401 72 454 m 385 -278 b 343 -308 375 -301 367 -308 l 310 -308 b 286 -282 289 -308 285 -303 l 319 -104 b 363 -65 324 -75 333 -65 l 410 -65 b 438 -104 438 -65 447 -78 "},"Ț":{"ha":769,"x_min":0,"x_max":0,"o":"m 714 986 b 750 950 740 986 750 976 l 750 897 b 714 861 750 871 740 861 l 451 861 l 451 36 b 415 0 451 10 443 0 l 354 0 b 318 36 326 0 318 10 l 318 861 l 56 861 b 19 897 28 861 19 871 l 19 950 b 56 986 19 976 28 986 m 389 -319 b 350 -351 382 -343 372 -351 l 311 -351 b 289 -326 290 -351 285 -347 l 326 -128 b 367 -93 328 -100 339 -93 l 422 -93 b 454 -128 451 -93 463 -104 "},"ț":{"ha":517,"x_min":0,"x_max":0,"o":"m 249 883 b 282 850 272 883 282 876 l 282 717 l 464 717 b 496 683 488 717 496 707 l 496 635 b 464 601 496 611 488 601 l 282 601 l 282 278 b 319 133 282 204 294 157 b 461 97 344 110 392 97 b 496 64 488 97 496 90 l 496 14 b 461 -19 496 -10 488 -18 b 226 40 349 -22 271 -3 b 158 275 181 82 158 160 l 158 601 l 43 601 b 10 635 19 601 10 611 l 10 683 b 43 717 10 710 19 717 l 158 717 l 158 850 b 190 883 158 876 167 883 m 315 -319 b 276 -351 308 -340 294 -351 l 236 -351 b 214 -326 218 -351 213 -347 l 253 -128 b 293 -93 254 -100 265 -93 l 349 -93 b 379 -128 378 -93 388 -104 "},"ȷ":{"ha":299,"x_min":0,"x_max":0,"o":"m 178 717 b 211 683 204 717 211 710 l 211 -11 b -90 -319 211 -212 119 -319 b -124 -286 -114 -319 -124 -312 l -124 -237 b -90 -204 -124 -214 -114 -204 b 88 -8 39 -204 88 -137 l 88 683 b 121 717 88 710 97 717 "},"ˆ":{"ha":535,"x_min":0,"x_max":0,"o":"m 276 1013 b 338 983 304 1013 311 1010 l 494 840 b 478 813 510 828 504 813 l 429 813 b 375 832 406 813 388 819 l 267 931 l 154 832 b 103 813 142 819 125 813 l 57 813 b 42 840 31 813 26 828 l 199 983 b 263 1013 225 1011 231 1013 "},"ˇ":{"ha":461,"x_min":0,"x_max":0,"o":"m 442 1011 b 457 983 469 1011 472 999 l 301 840 b 240 811 275 814 268 811 l 226 811 b 163 840 194 811 189 813 l 6 983 b 19 1011 -10 999 -7 1011 l 67 1011 b 118 992 89 1011 106 1004 l 231 893 l 339 992 b 393 1011 351 1004 369 1011 "},"˘":{"ha":399,"x_min":0,"x_max":0,"o":"m 414 963 b 200 815 382 864 310 815 b -11 963 89 815 18 864 b 3 993 -17 978 -12 989 l 46 1010 b 81 999 64 1014 75 1011 b 200 907 97 938 138 907 b 321 999 263 907 303 938 b 349 1011 326 1011 336 1015 l 399 993 b 414 963 414 986 418 976 "},"˙":{"ha":300,"x_min":0,"x_max":0,"o":"m 154 971 b 214 913 200 971 214 958 l 214 903 b 154 843 214 857 200 843 l 146 843 b 86 903 100 843 86 857 l 86 913 b 146 971 86 958 100 971 "},"˚":{"ha":333,"x_min":0,"x_max":0,"o":"m 22 907 b 169 1050 22 992 82 1050 b 313 907 254 1050 313 992 b 169 767 313 824 254 767 b 22 907 82 767 22 824 m 249 907 b 169 986 249 956 218 986 b 86 907 119 986 86 956 b 169 829 86 861 119 829 b 249 907 215 829 249 861 "},"˛":{"ha":350,"x_min":0,"x_max":0,"o":"m 282 0 b 175 -215 199 -87 160 -171 b 221 -249 182 -237 197 -249 b 276 -226 243 -249 261 -242 b 297 -232 286 -219 293 -221 l 313 -268 b 310 -292 317 -279 315 -287 b 182 -342 276 -325 233 -342 b 68 -265 117 -342 79 -317 b 199 0 47 -192 97 -89 "},"˜":{"ha":424,"x_min":0,"x_max":0,"o":"m 404 997 b 425 976 418 997 425 990 b 313 831 425 875 390 831 b 208 874 281 831 246 844 b 121 917 171 903 142 917 b 75 851 90 917 75 894 b 56 831 75 838 68 831 l 19 831 b -1 851 6 831 -1 838 b 110 997 -1 949 36 997 b 219 954 144 997 182 983 b 304 910 257 925 285 910 b 350 976 335 910 350 932 b 369 997 350 990 357 997 "},"˝":{"ha":549,"x_min":0,"x_max":0,"o":"m 207 989 b 263 1011 221 1010 239 1018 l 301 999 b 311 961 325 990 328 978 l 165 824 b 125 810 150 810 138 806 l 106 815 b 94 849 86 821 82 832 m 446 988 b 501 1010 461 1008 481 1017 l 543 997 b 553 961 569 988 572 976 l 394 819 b 356 806 379 807 365 801 l 336 813 b 325 846 317 818 313 829 "},"̦":{"ha":0,"x_min":0,"x_max":0,"o":"m 189 -319 b 151 -351 182 -340 169 -351 l 111 -351 b 89 -326 93 -351 88 -347 l 128 -128 b 167 -93 129 -100 139 -93 l 224 -93 b 254 -128 253 -93 263 -104 "},"π":{"ha":874,"x_min":0,"x_max":0,"o":"m 824 717 b 857 683 850 717 857 710 l 857 636 b 824 603 857 614 846 603 l 761 603 l 761 206 b 792 69 761 154 771 108 b 774 19 803 46 797 29 l 726 0 b 679 18 703 -11 690 -6 b 638 211 651 69 638 135 l 638 603 l 326 603 l 326 33 b 293 0 326 7 319 0 l 235 0 b 203 33 211 0 203 10 l 203 603 b 90 571 168 601 131 592 b 47 585 69 561 54 567 l 28 631 b 43 674 18 650 22 664 b 246 717 99 703 167 717 "},"Ё":{"ha":800,"x_min":0,"x_max":0,"o":"m 289 1204 b 347 1147 333 1204 347 1190 l 347 1135 b 289 1078 347 1092 333 1078 l 279 1078 b 222 1135 236 1078 222 1092 l 222 1147 b 279 1204 222 1190 236 1204 m 563 1204 b 621 1147 606 1204 621 1190 l 621 1135 b 563 1078 621 1092 606 1078 l 554 1078 b 494 1135 508 1078 494 1092 l 494 1147 b 554 1204 494 1190 508 1204 m 697 986 b 733 950 725 986 733 976 l 733 897 b 697 861 733 871 725 861 l 238 861 l 238 563 l 633 563 b 669 525 661 563 669 553 l 669 474 b 633 438 669 446 661 438 l 238 438 l 238 125 l 714 125 b 750 89 742 125 750 115 l 750 36 b 714 0 750 10 742 0 l 139 0 b 103 36 113 0 103 10 l 103 950 b 139 986 103 976 113 986 "},"А":{"ha":901,"x_min":0,"x_max":0,"o":"m 897 36 b 872 0 906 13 897 0 l 818 0 b 751 32 774 0 761 6 l 665 258 l 254 258 l 168 32 b 101 0 158 6 146 0 l 53 0 b 28 36 28 0 19 13 l 389 958 b 435 989 396 979 411 989 l 490 989 b 536 960 514 989 529 979 m 489 733 b 464 864 472 782 464 826 l 456 864 l 454 844 b 432 735 453 821 444 772 l 292 368 l 628 368 "},"Б":{"ha":876,"x_min":0,"x_max":0,"o":"m 726 986 b 764 950 754 986 764 976 l 764 897 b 726 861 764 871 754 861 l 238 861 l 238 585 l 536 585 b 833 293 719 585 833 475 b 536 0 833 111 719 0 l 139 0 b 103 35 113 0 103 8 l 103 950 b 139 986 103 976 113 986 m 649 171 b 693 293 678 200 693 242 b 649 415 693 344 678 386 b 522 460 618 444 576 460 l 238 460 l 238 125 l 522 125 b 649 171 576 125 618 140 "},"В":{"ha":899,"x_min":0,"x_max":0,"o":"m 528 986 b 804 731 701 986 804 896 b 685 514 804 625 764 553 l 685 510 b 840 268 789 479 840 399 b 540 0 840 97 722 0 l 139 0 b 103 36 113 0 103 10 l 103 950 b 139 986 103 976 113 986 m 667 711 b 513 861 667 811 615 861 l 238 861 l 238 563 l 513 563 b 667 711 615 563 667 613 m 697 282 b 536 440 697 383 640 440 l 238 440 l 238 125 l 536 125 b 697 282 643 125 697 178 "},"Г":{"ha":715,"x_min":0,"x_max":0,"o":"m 658 986 b 694 950 686 986 694 976 l 694 897 b 658 861 694 871 686 861 l 238 861 l 238 36 b 200 0 238 10 228 0 l 139 0 b 103 36 113 0 103 10 l 103 950 b 139 986 103 976 113 986 "},"Д":{"ha":1006,"x_min":0,"x_max":0,"o":"m 825 986 b 863 950 853 986 863 976 l 863 125 l 943 125 b 979 89 971 125 979 115 l 979 -176 b 943 -212 979 -203 971 -212 l 885 -212 b 847 -176 857 -212 847 -203 l 847 0 l 154 0 l 154 -176 b 118 -212 154 -203 146 -212 l 60 -212 b 24 -176 32 -212 24 -203 l 24 89 b 60 125 24 115 32 125 l 101 125 b 192 256 139 151 163 179 b 238 665 221 332 238 471 l 238 950 b 274 986 238 976 247 986 m 367 861 l 367 665 b 260 125 367 397 331 218 l 728 125 l 728 861 "},"Е":{"ha":800,"x_min":0,"x_max":0,"o":"m 697 986 b 733 950 725 986 733 976 l 733 897 b 697 861 733 871 725 861 l 238 861 l 238 563 l 633 563 b 669 525 661 563 669 553 l 669 474 b 633 438 669 446 661 438 l 238 438 l 238 125 l 714 125 b 750 89 742 125 750 115 l 750 36 b 714 0 750 10 742 0 l 139 0 b 103 36 113 0 103 10 l 103 950 b 139 986 103 976 113 986 "},"Ж":{"ha":1289,"x_min":0,"x_max":0,"o":"m 1247 986 b 1265 951 1274 986 1281 968 l 976 519 b 1106 378 1028 494 1071 447 l 1281 38 b 1263 0 1293 13 1288 0 l 1201 0 b 1128 32 1156 0 1140 6 l 981 329 b 796 439 940 413 897 439 l 731 439 l 731 36 b 694 0 731 10 722 0 l 633 0 b 597 36 606 0 597 10 l 597 439 l 532 439 b 347 329 431 439 388 413 l 200 32 b 126 0 188 6 172 0 l 65 0 b 47 38 40 0 35 13 l 224 378 b 351 519 257 446 300 493 l 63 951 b 81 986 50 969 54 986 l 149 986 b 222 956 193 986 206 983 l 479 558 b 532 561 492 560 508 561 l 597 561 l 597 950 b 633 986 597 976 606 986 l 694 986 b 731 950 722 986 731 976 l 731 561 l 796 561 b 849 558 819 561 838 560 l 1107 956 b 1179 986 1124 982 1135 986 "},"З":{"ha":871,"x_min":0,"x_max":0,"o":"m 793 726 b 674 513 793 621 753 550 b 824 272 774 475 824 394 b 465 -21 824 88 704 -21 b 64 218 250 -21 115 58 b 86 265 56 240 63 256 l 144 286 b 190 263 167 293 182 286 b 465 104 228 153 303 104 b 682 278 610 104 682 163 b 522 442 682 379 626 442 l 304 442 b 267 478 276 442 267 450 l 267 526 b 304 563 267 554 276 563 l 507 563 b 657 715 606 563 657 625 b 457 882 657 826 590 882 b 199 726 306 882 233 833 b 153 704 189 700 179 697 l 94 725 b 72 771 71 733 63 749 b 465 1007 124 928 244 1007 b 793 726 678 1007 793 904 "},"И":{"ha":967,"x_min":0,"x_max":0,"o":"m 828 986 b 864 950 856 986 864 976 l 864 36 b 828 0 864 10 856 0 l 767 0 b 731 36 739 0 731 10 l 731 519 b 756 818 731 624 739 722 l 750 818 b 607 564 718 747 671 663 l 239 18 b 201 0 231 6 218 0 l 139 0 b 103 36 113 0 103 10 l 103 950 b 139 986 103 976 113 986 l 200 986 b 238 950 228 986 238 976 l 238 476 b 213 168 238 376 229 274 l 217 168 b 368 435 254 250 306 339 l 729 968 b 765 986 736 981 749 986 "},"Й":{"ha":967,"x_min":0,"x_max":0,"o":"m 721 1210 b 488 1061 686 1111 608 1061 b 256 1210 367 1061 290 1111 b 272 1242 251 1225 257 1235 l 319 1258 b 357 1246 338 1263 350 1258 b 488 1153 376 1183 419 1153 b 621 1246 556 1153 600 1183 b 651 1260 626 1258 636 1264 l 706 1242 b 721 1210 721 1235 726 1224 m 828 986 b 864 950 856 986 864 976 l 864 36 b 828 0 864 10 856 0 l 767 0 b 731 36 739 0 731 10 l 731 519 b 756 818 731 624 739 722 l 750 818 b 607 564 718 747 671 663 l 239 18 b 201 0 231 6 218 0 l 139 0 b 103 36 113 0 103 10 l 103 950 b 139 986 103 976 113 986 l 200 986 b 238 950 228 986 238 976 l 238 476 b 213 168 238 376 229 274 l 217 168 b 368 435 254 250 306 339 l 729 968 b 765 986 736 981 749 986 "},"К":{"ha":857,"x_min":0,"x_max":0,"o":"m 831 38 b 811 0 843 13 838 0 l 750 0 b 678 32 706 0 690 6 l 531 329 b 346 439 488 413 447 439 l 238 439 l 238 36 b 200 0 238 10 228 0 l 139 0 b 103 36 113 0 103 10 l 103 950 b 139 986 103 976 113 986 l 200 986 b 238 950 228 986 238 976 l 238 561 l 335 561 l 360 561 l 656 956 b 729 986 676 982 686 986 l 797 986 b 815 951 821 986 831 968 l 494 535 b 654 378 560 513 614 460 "},"Л":{"ha":924,"x_min":0,"x_max":0,"o":"m 800 986 b 838 950 828 986 838 976 l 838 36 b 800 0 838 10 828 0 l 739 0 b 703 36 713 0 703 10 l 703 861 l 351 861 l 351 644 b 276 147 356 390 318 233 b 168 22 250 86 200 44 b 103 -14 151 11 129 -1 b 54 3 79 -24 64 -18 l 26 56 b 44 106 15 79 21 96 b 143 186 89 128 107 136 b 183 275 161 210 174 240 b 219 644 201 346 219 474 l 219 950 b 256 986 219 976 229 986 "},"М":{"ha":1118,"x_min":0,"x_max":0,"o":"m 979 986 b 1015 950 1006 986 1015 976 l 1015 36 b 979 0 1015 10 1006 0 l 924 0 b 888 36 896 0 888 10 l 888 538 b 913 799 888 614 896 701 l 906 799 b 794 565 879 726 842 649 l 618 251 b 575 225 608 233 593 225 l 540 225 b 497 251 522 225 507 233 l 318 568 b 214 799 278 638 243 714 l 206 799 b 228 538 221 711 228 624 l 228 36 b 192 0 228 10 219 0 l 139 0 b 103 36 113 0 103 10 l 103 950 b 139 986 103 976 113 986 l 188 986 b 239 958 217 986 226 981 l 558 390 l 876 957 b 926 986 889 981 897 986 "},"Н":{"ha":949,"x_min":0,"x_max":0,"o":"m 810 986 b 846 950 838 986 846 976 l 846 36 b 810 0 846 10 838 0 l 749 0 b 713 36 721 0 713 10 l 713 438 l 238 438 l 238 36 b 200 0 238 10 228 0 l 139 0 b 103 36 113 0 103 10 l 103 950 b 139 986 103 976 113 986 l 200 986 b 238 950 228 986 238 976 l 238 563 l 713 563 l 713 950 b 749 986 713 976 721 986 "},"О":{"ha":925,"x_min":0,"x_max":0,"o":"m 74 651 b 463 1007 74 874 214 1007 b 851 651 711 1007 851 874 l 851 335 b 463 -21 851 113 711 -21 b 74 335 214 -21 74 113 m 717 651 b 463 882 717 800 625 882 b 208 651 300 882 208 800 l 208 335 b 463 104 208 186 300 104 b 717 335 625 104 717 186 "},"П":{"ha":942,"x_min":0,"x_max":0,"o":"m 801 986 b 839 950 829 986 839 976 l 839 36 b 801 0 839 10 829 0 l 740 0 b 704 36 714 0 704 10 l 704 861 l 238 861 l 238 36 b 200 0 238 10 228 0 l 139 0 b 103 36 113 0 103 10 l 103 950 b 139 986 103 976 113 986 "},"Р":{"ha":871,"x_min":0,"x_max":0,"o":"m 510 986 b 829 671 706 986 829 867 b 510 358 829 476 708 358 l 238 358 l 238 36 b 200 0 238 10 228 0 l 139 0 b 103 36 113 0 103 10 l 103 950 b 139 986 103 976 113 986 m 497 483 b 689 671 618 483 689 553 b 497 861 689 789 618 861 l 238 861 l 238 483 "},"С":{"ha":886,"x_min":0,"x_max":0,"o":"m 74 651 b 463 1007 74 874 214 1007 b 836 771 660 1007 785 928 b 813 724 843 747 836 732 l 756 704 b 708 726 729 694 718 700 b 463 882 674 832 600 882 b 208 653 297 882 208 799 l 208 333 b 463 104 208 189 300 104 b 710 263 601 104 675 156 b 757 286 719 290 731 296 l 814 265 b 838 218 838 258 846 242 b 463 -21 786 58 661 -21 b 74 335 214 -21 74 113 "},"Т":{"ha":769,"x_min":0,"x_max":0,"o":"m 714 986 b 750 950 740 986 750 976 l 750 897 b 714 861 750 871 740 861 l 451 861 l 451 36 b 415 0 451 10 443 0 l 354 0 b 318 36 326 0 318 10 l 318 861 l 56 861 b 19 897 28 861 19 871 l 19 950 b 56 986 19 976 28 986 "},"У":{"ha":836,"x_min":0,"x_max":0,"o":"m 821 986 b 840 950 843 986 850 974 l 401 32 b 342 0 390 6 381 0 l 269 0 b 251 36 244 0 239 13 l 376 285 l 31 950 b 49 986 18 974 24 986 l 111 986 b 182 954 157 986 163 986 l 447 435 l 694 954 b 760 986 707 983 715 986 "},"Ф":{"ha":1154,"x_min":0,"x_max":0,"o":"m 608 1021 b 644 985 635 1021 644 1011 l 644 903 l 725 903 b 1100 550 968 903 1100 772 l 1100 443 b 725 90 1100 221 968 90 l 644 90 l 644 8 b 608 -28 644 -18 635 -28 l 547 -28 b 510 8 519 -28 510 -18 l 510 90 l 429 90 b 54 443 186 90 54 221 l 54 550 b 429 903 54 772 186 903 l 510 903 l 510 985 b 547 1021 510 1011 519 1021 m 429 782 b 189 556 272 782 189 701 l 189 438 b 429 211 189 292 272 211 l 510 211 l 510 782 m 965 556 b 725 782 965 701 882 782 l 644 782 l 644 211 l 725 211 b 965 438 882 211 965 292 "},"Х":{"ha":871,"x_min":0,"x_max":0,"o":"m 850 38 b 832 0 867 19 860 0 l 757 0 b 686 32 714 0 704 4 l 433 399 l 188 32 b 117 0 169 3 161 0 l 47 0 b 29 38 21 0 14 17 l 354 501 l 40 951 b 58 986 25 968 35 986 l 131 986 b 201 956 174 986 181 982 l 440 608 l 679 956 b 746 986 700 982 707 986 l 821 986 b 839 951 844 986 851 968 l 524 503 "},"Ц":{"ha":976,"x_min":0,"x_max":0,"o":"m 911 125 b 947 89 939 125 947 115 l 947 -176 b 911 -212 947 -203 939 -212 l 854 -212 b 818 -176 828 -212 818 -203 l 818 0 l 139 0 b 103 36 113 0 103 10 l 103 950 b 139 986 103 976 113 986 l 200 986 b 238 950 228 986 238 976 l 238 125 l 699 125 l 699 950 b 735 986 699 976 707 986 l 796 986 b 832 950 824 986 832 976 l 832 125 "},"Ч":{"ha":882,"x_min":0,"x_max":0,"o":"m 743 986 b 779 950 769 986 779 976 l 779 36 b 743 0 779 10 769 0 l 681 0 b 644 36 654 0 644 10 l 644 389 b 410 365 578 374 500 365 b 53 706 160 365 53 482 l 53 950 b 90 986 53 976 63 986 l 151 986 b 188 950 178 986 188 976 l 188 706 b 417 490 188 563 256 490 b 644 517 513 490 588 499 l 644 950 b 681 986 644 976 654 986 "},"Ш":{"ha":1275,"x_min":0,"x_max":0,"o":"m 1136 986 b 1172 950 1164 986 1172 976 l 1172 36 b 1136 0 1172 10 1164 0 l 139 0 b 103 36 113 0 103 10 l 103 950 b 139 986 103 976 113 986 l 200 986 b 238 950 228 986 238 976 l 238 125 l 571 125 l 571 950 b 607 986 571 976 581 986 l 668 986 b 706 950 696 986 706 976 l 706 125 l 1039 125 l 1039 950 b 1075 986 1039 976 1047 986 "},"Щ":{"ha":1317,"x_min":0,"x_max":0,"o":"m 1253 125 b 1289 89 1279 125 1289 115 l 1289 -176 b 1253 -212 1289 -203 1279 -212 l 1196 -212 b 1160 -176 1169 -212 1160 -203 l 1160 0 l 139 0 b 103 36 113 0 103 10 l 103 950 b 139 986 103 976 113 986 l 200 986 b 238 950 228 986 238 976 l 238 125 l 571 125 l 571 950 b 607 986 571 976 581 986 l 668 986 b 706 950 696 986 706 976 l 706 125 l 1039 125 l 1039 950 b 1075 986 1039 976 1047 986 l 1136 986 b 1172 950 1164 986 1172 976 l 1172 125 "},"Ъ":{"ha":1022,"x_min":0,"x_max":0,"o":"m 661 628 b 981 315 860 628 981 510 b 661 0 981 119 857 0 l 290 0 b 254 36 264 0 254 10 l 254 861 l 56 861 b 19 897 28 861 19 871 l 19 950 b 56 986 19 976 28 986 l 351 986 b 389 950 379 986 389 976 l 389 628 m 649 125 b 842 315 769 125 842 197 b 649 503 842 433 769 503 l 389 503 l 389 125 "},"Ы":{"ha":1225,"x_min":0,"x_max":0,"o":"m 139 0 b 103 36 113 0 103 10 l 103 950 b 139 986 103 976 113 986 l 200 986 b 238 950 228 986 238 976 l 238 628 l 510 628 b 829 315 708 628 829 510 b 510 0 829 119 706 0 m 989 950 b 1025 986 989 976 997 986 l 1086 986 b 1122 950 1114 986 1122 976 l 1122 36 b 1086 0 1122 10 1114 0 l 1025 0 b 989 36 997 0 989 10 m 238 503 l 238 125 l 497 125 b 689 315 618 125 689 197 b 497 503 689 433 618 503 "},"Ь":{"ha":871,"x_min":0,"x_max":0,"o":"m 139 0 b 103 36 113 0 103 10 l 103 950 b 139 986 103 976 113 986 l 200 986 b 238 950 228 986 238 976 l 238 628 l 510 628 b 829 315 708 628 829 510 b 510 0 829 119 706 0 m 238 503 l 238 125 l 497 125 b 689 315 618 125 689 197 b 497 503 689 433 618 503 "},"Э":{"ha":892,"x_min":0,"x_max":0,"o":"m 67 771 b 440 1007 119 928 244 1007 b 829 653 690 1007 829 874 l 829 335 b 440 -21 829 113 689 -21 b 65 218 244 -21 119 58 b 89 265 58 242 65 257 l 146 286 b 193 263 169 293 185 286 b 440 104 228 156 301 104 b 694 333 603 104 694 189 l 694 436 l 314 436 b 278 474 286 436 278 446 l 278 525 b 314 561 278 553 286 561 l 694 561 l 694 654 b 440 882 694 799 606 882 b 194 726 303 882 229 832 b 147 704 185 700 174 697 l 90 725 b 67 771 67 732 60 747 "},"Ю":{"ha":1290,"x_min":0,"x_max":0,"o":"m 456 653 b 836 1007 456 874 592 1007 b 1217 653 1081 1007 1217 874 l 1217 333 b 836 -21 1217 113 1081 -21 b 456 333 592 -21 456 113 l 456 438 l 238 438 l 238 36 b 200 0 238 10 228 0 l 139 0 b 103 36 113 0 103 10 l 103 950 b 139 986 103 976 113 986 l 200 986 b 238 950 228 986 238 976 l 238 563 l 456 563 m 1082 653 b 836 882 1082 799 996 882 b 590 653 676 882 590 799 l 590 333 b 836 104 590 188 676 104 b 1082 333 996 104 1082 188 "},"Я":{"ha":897,"x_min":0,"x_max":0,"o":"m 83 690 b 385 986 83 878 196 986 l 774 986 b 810 950 801 986 810 976 l 810 36 b 774 0 810 10 801 0 l 713 0 b 676 36 685 0 676 10 l 676 396 l 522 396 b 340 286 421 396 378 369 l 224 32 b 151 0 213 4 200 0 l 90 0 b 71 38 67 0 60 13 l 215 336 b 281 415 235 374 257 400 b 83 690 154 447 83 544 m 397 861 b 224 690 286 861 224 800 b 397 521 224 583 288 521 l 676 521 l 676 861 "},"а":{"ha":717,"x_min":0,"x_max":0,"o":"m 72 592 b 354 738 122 689 217 738 b 642 457 564 738 642 631 l 642 94 b 592 15 642 46 631 32 b 353 -21 536 -8 457 -21 b 114 33 238 -21 157 -3 b 49 200 71 68 49 124 b 358 418 49 361 135 418 b 517 408 408 418 461 415 l 517 461 b 351 626 517 568 474 626 b 179 542 271 626 214 599 b 133 525 163 519 160 515 l 90 544 b 72 592 67 554 61 569 m 517 306 b 344 317 443 313 385 317 b 174 200 217 317 174 282 b 342 83 174 121 213 83 b 496 100 413 83 464 89 b 517 131 510 106 517 115 "},"б":{"ha":769,"x_min":0,"x_max":0,"o":"m 506 1015 b 610 1032 551 1015 586 1021 b 657 1011 632 1043 647 1036 l 672 968 b 651 922 679 947 672 932 b 508 900 622 907 575 900 l 461 900 b 251 842 358 900 289 881 b 196 628 214 801 196 731 l 196 601 b 419 701 240 668 315 701 b 707 424 601 701 707 597 l 707 256 b 393 -21 707 82 599 -21 b 81 256 192 -21 81 82 l 81 594 b 165 918 81 744 108 853 b 460 1015 222 983 319 1015 m 582 424 b 393 589 582 529 517 589 b 206 457 281 589 211 524 l 206 257 b 393 92 206 151 271 92 b 582 257 517 92 582 151 "},"в":{"ha":742,"x_min":0,"x_max":0,"o":"m 663 525 b 586 374 663 454 638 404 b 688 200 654 342 688 285 b 476 0 688 78 606 0 l 121 0 b 86 33 97 0 86 11 l 86 683 b 121 717 86 706 97 717 l 457 717 b 663 525 586 717 663 643 m 440 419 b 538 515 500 419 538 456 b 436 611 538 576 501 611 l 211 611 l 211 419 m 451 106 b 558 213 519 106 558 146 b 450 317 558 278 518 317 l 211 317 l 211 106 "},"г":{"ha":593,"x_min":0,"x_max":0,"o":"m 540 717 b 574 683 564 717 574 710 l 574 635 b 540 601 574 611 564 601 l 211 601 l 211 33 b 178 0 211 7 204 0 l 119 0 b 86 33 97 0 86 11 l 86 683 b 119 717 86 710 93 717 "},"д":{"ha":840,"x_min":0,"x_max":0,"o":"m 783 115 b 817 81 810 115 817 107 l 817 -160 b 783 -193 817 -183 810 -193 l 729 -193 b 696 -160 706 -193 696 -183 l 696 0 l 147 0 l 147 -160 b 113 -193 147 -182 136 -193 l 58 -193 b 26 -160 35 -193 26 -183 l 26 81 b 58 115 26 107 35 115 l 96 115 b 164 226 125 139 147 175 b 188 474 179 276 188 358 l 188 683 b 221 717 188 710 197 717 l 679 717 b 713 683 703 717 713 710 l 713 115 m 308 467 b 239 115 308 299 285 182 l 588 115 l 588 601 l 308 601 "},"е":{"ha":742,"x_min":0,"x_max":0,"o":"m 61 440 b 375 738 61 629 171 738 b 689 450 581 738 689 622 l 689 369 b 638 321 689 338 672 321 l 185 321 l 185 254 b 371 88 185 147 250 88 b 564 183 461 88 526 119 b 618 196 581 207 594 211 l 656 176 b 668 122 679 164 683 146 b 369 -21 614 26 514 -21 b 61 268 163 -21 61 90 m 565 457 b 375 632 565 568 499 632 b 185 457 251 632 185 567 l 185 417 l 565 417 "},"ж":{"ha":1039,"x_min":0,"x_max":0,"o":"m 556 717 b 590 683 582 717 590 710 l 590 424 l 661 424 l 683 424 l 863 692 b 926 717 878 714 888 717 l 979 717 b 1001 678 1011 717 1018 704 l 797 390 b 889 286 833 372 864 338 l 1013 39 b 992 0 1028 11 1024 0 l 938 0 b 879 31 900 0 892 4 l 783 232 b 660 308 757 288 725 308 l 590 308 l 590 35 b 556 0 590 8 582 0 l 500 0 b 465 35 474 0 465 8 l 465 308 l 396 308 b 272 232 331 308 299 288 l 176 31 b 118 0 164 4 156 0 l 64 0 b 43 39 32 0 28 11 l 167 286 b 258 390 192 338 222 372 l 54 678 b 76 717 36 704 44 717 l 129 717 b 193 692 168 717 178 714 l 372 424 l 394 424 l 465 424 l 465 683 b 500 717 465 710 474 717 "},"з":{"ha":714,"x_min":0,"x_max":0,"o":"m 69 556 b 375 738 89 617 179 739 b 660 525 571 738 660 654 b 568 374 660 449 629 397 l 568 368 b 675 194 639 342 675 285 b 379 -21 675 63 585 -21 b 58 167 174 -21 88 97 b 82 214 49 192 56 207 l 129 229 b 176 207 156 239 167 233 b 381 89 211 128 279 89 b 547 207 492 89 547 128 b 429 313 547 278 508 313 l 286 313 b 253 346 263 313 253 322 l 253 382 b 286 415 253 406 263 415 l 421 415 b 533 514 492 415 533 453 b 375 628 533 590 481 628 b 213 558 297 628 233 588 b 188 515 201 543 193 529 b 139 492 178 492 163 485 l 92 508 b 69 556 68 515 61 532 "},"и":{"ha":781,"x_min":0,"x_max":0,"o":"m 178 717 b 211 683 204 717 211 710 l 211 344 b 189 164 211 283 204 224 l 193 164 b 268 289 213 207 238 249 l 571 700 b 603 717 578 711 589 717 l 661 717 b 694 683 688 717 694 710 l 694 33 b 661 0 694 7 688 0 l 603 0 b 569 33 576 0 569 7 l 569 367 b 592 551 569 418 576 479 l 588 551 b 510 424 568 511 542 469 l 211 17 b 178 0 203 6 192 0 l 119 0 b 86 33 97 0 86 11 l 86 683 b 119 717 86 710 93 717 "},"й":{"ha":781,"x_min":0,"x_max":0,"o":"m 610 963 b 396 815 578 864 507 815 b 185 963 286 815 217 864 b 200 993 181 978 185 989 l 243 1010 b 276 999 260 1014 271 1011 b 396 907 294 938 333 907 b 517 999 458 907 499 938 b 546 1011 522 1011 532 1015 l 594 993 b 610 963 610 986 614 976 m 178 717 b 211 683 204 717 211 710 l 211 344 b 189 164 211 283 204 224 l 193 164 b 268 289 213 207 238 249 l 571 700 b 603 717 578 711 589 717 l 661 717 b 694 683 688 717 694 710 l 694 33 b 661 0 694 7 688 0 l 603 0 b 569 33 576 0 569 7 l 569 367 b 592 551 569 418 576 479 l 588 551 b 510 424 568 511 542 469 l 211 17 b 178 0 203 6 192 0 l 119 0 b 86 33 97 0 86 11 l 86 683 b 119 717 86 710 93 717 "},"к":{"ha":724,"x_min":0,"x_max":0,"o":"m 690 39 b 669 0 707 11 701 0 l 615 0 b 558 31 578 0 571 4 l 463 232 b 338 308 436 288 403 308 l 211 308 l 211 35 b 176 0 211 8 203 0 l 121 0 b 86 35 94 0 86 8 l 86 683 b 121 717 86 710 94 717 l 176 717 b 211 683 203 717 211 710 l 211 424 l 321 424 l 333 424 l 540 692 b 606 717 557 715 565 717 l 658 717 b 679 678 693 717 700 704 l 457 400 b 568 286 501 383 539 346 "},"л":{"ha":750,"x_min":0,"x_max":0,"o":"m 640 717 b 674 683 664 717 674 710 l 674 33 b 640 0 674 7 664 0 l 583 0 b 550 33 557 0 550 7 l 550 601 l 282 601 l 282 458 b 219 104 282 290 261 171 b 86 -17 178 36 143 11 b 46 0 68 -24 56 -18 l 17 56 b 29 94 10 72 14 85 b 117 175 69 115 86 125 b 161 467 147 225 161 322 l 161 683 b 194 717 161 710 168 717 "},"м":{"ha":889,"x_min":0,"x_max":0,"o":"m 767 717 b 803 681 796 717 803 708 l 803 33 b 769 0 803 7 796 0 l 719 0 b 686 33 693 0 686 7 l 686 354 b 708 544 686 408 693 472 l 703 544 b 633 399 685 494 663 446 l 501 165 b 460 140 489 144 483 140 l 429 140 b 388 165 411 140 397 149 l 256 394 b 185 544 229 442 206 492 l 181 544 b 201 349 194 457 201 392 l 201 33 b 169 0 201 7 196 0 l 121 0 b 86 33 93 0 86 7 l 86 681 b 124 717 86 708 94 717 l 167 717 b 214 689 189 717 204 707 l 446 278 l 674 689 b 719 717 685 711 693 717 "},"н":{"ha":774,"x_min":0,"x_max":0,"o":"m 654 717 b 688 683 678 717 688 710 l 688 33 b 654 0 688 7 678 0 l 596 0 b 563 33 572 0 563 7 l 563 308 l 211 308 l 211 33 b 178 0 211 7 204 0 l 119 0 b 86 33 97 0 86 11 l 86 683 b 119 717 86 710 93 717 l 178 717 b 211 683 204 717 211 710 l 211 424 l 563 424 l 563 683 b 596 717 563 710 572 717 "},"о":{"ha":751,"x_min":0,"x_max":0,"o":"m 64 471 b 375 738 64 638 181 738 b 688 471 574 738 688 638 l 688 244 b 375 -21 688 79 574 -21 b 64 244 181 -21 64 79 m 564 472 b 375 625 564 568 493 625 b 188 472 258 625 188 568 l 188 244 b 375 92 188 149 258 92 b 564 244 493 92 564 149 "},"п":{"ha":768,"x_min":0,"x_max":0,"o":"m 647 717 b 681 683 674 717 681 710 l 681 33 b 647 0 681 7 674 0 l 590 0 b 557 33 567 0 557 7 l 557 601 l 211 601 l 211 33 b 178 0 211 7 204 0 l 119 0 b 86 33 97 0 86 11 l 86 683 b 119 717 86 710 93 717 "},"р":{"ha":749,"x_min":0,"x_max":0,"o":"m 139 697 b 394 738 208 724 293 738 b 685 458 588 738 685 644 l 685 263 b 389 -21 685 74 586 -21 b 208 17 340 -21 281 -8 l 208 -272 b 175 -306 208 -299 201 -306 l 117 -306 b 85 -272 93 -306 85 -296 l 85 618 b 139 697 85 664 94 679 m 560 454 b 376 624 560 567 499 624 b 229 603 325 624 276 617 b 208 574 211 596 208 590 l 208 129 b 379 93 278 106 335 93 b 560 267 500 93 560 151 "},"с":{"ha":717,"x_min":0,"x_max":0,"o":"m 63 458 b 374 738 63 635 167 738 b 667 551 531 738 628 675 b 644 504 675 528 668 513 l 596 489 b 549 511 574 479 558 486 b 368 628 524 589 464 628 b 188 464 250 628 188 568 l 188 254 b 368 89 188 150 250 89 b 550 210 464 89 524 129 b 597 232 561 236 571 242 l 646 218 b 669 171 669 208 678 193 b 365 -21 624 43 522 -21 b 63 260 164 -21 63 82 "},"т":{"ha":635,"x_min":0,"x_max":0,"o":"m 582 717 b 615 683 606 717 615 710 l 615 635 b 582 601 615 611 606 601 l 379 601 l 379 33 b 347 0 379 7 371 0 l 289 0 b 256 33 263 0 256 7 l 256 601 l 53 601 b 19 635 26 601 19 611 l 19 683 b 53 717 19 710 26 717 "},"у":{"ha":768,"x_min":0,"x_max":0,"o":"m 651 717 b 685 683 678 717 685 710 l 685 -35 b 385 -335 685 -235 585 -335 b 103 -193 250 -335 157 -287 b 117 -140 88 -169 93 -153 l 157 -118 b 211 -131 183 -106 194 -108 b 383 -224 247 -193 304 -224 b 561 -40 501 -224 561 -162 l 561 35 b 367 6 490 15 425 6 b 85 281 179 6 85 97 l 85 683 b 118 717 85 710 92 717 l 176 717 b 208 683 200 717 208 707 l 208 285 b 383 119 208 175 267 119 b 561 149 439 119 499 129 l 561 683 b 594 717 561 710 571 717 "},"ф":{"ha":1028,"x_min":0,"x_max":0,"o":"m 576 731 b 664 738 597 733 626 736 b 965 442 851 738 965 646 l 965 276 b 664 -21 965 71 851 -21 b 576 -14 626 -19 597 -17 l 576 -272 b 543 -306 576 -299 567 -306 l 485 -306 b 453 -272 461 -306 453 -299 l 453 -14 b 363 -21 432 -17 403 -19 b 61 276 175 -21 61 71 l 61 436 b 363 738 61 642 178 738 b 453 731 403 736 432 733 l 453 994 b 485 1026 453 1018 461 1026 l 543 1026 b 576 994 567 1026 576 1018 m 186 279 b 371 93 186 144 264 93 b 456 99 390 93 418 94 l 456 618 b 371 624 418 622 390 624 b 186 432 264 624 186 569 m 842 438 b 657 624 842 561 781 624 b 572 618 638 624 610 622 l 572 99 b 657 93 610 94 638 93 b 842 279 764 93 842 144 "},"х":{"ha":690,"x_min":0,"x_max":0,"o":"m 629 717 b 653 678 661 717 669 704 l 428 368 l 667 39 b 643 0 685 13 676 0 l 590 0 b 531 28 556 0 547 4 l 349 279 l 171 28 b 111 0 156 4 146 0 l 60 0 b 36 39 22 0 18 13 l 275 368 l 46 678 b 72 717 29 704 38 717 l 122 717 b 183 689 157 717 167 713 l 351 458 l 519 689 b 576 717 535 713 542 717 "},"ц":{"ha":801,"x_min":0,"x_max":0,"o":"m 744 115 b 778 81 771 115 778 107 l 778 -160 b 744 -193 778 -183 771 -193 l 690 -193 b 657 -160 667 -193 657 -183 l 657 0 l 119 0 b 86 33 93 0 86 7 l 86 683 b 119 717 86 706 97 717 l 178 717 b 211 683 204 717 211 710 l 211 115 l 549 115 l 549 683 b 582 717 549 710 558 717 l 640 717 b 674 683 664 717 674 710 l 674 115 "},"ч":{"ha":713,"x_min":0,"x_max":0,"o":"m 44 683 b 78 717 44 710 51 717 l 136 717 b 168 683 160 717 168 707 l 168 518 b 343 364 168 415 226 364 b 501 389 407 364 460 372 l 501 683 b 535 717 501 710 511 717 l 593 717 b 626 683 617 717 626 710 l 626 33 b 593 0 626 7 617 0 l 535 0 b 501 33 511 0 501 7 l 501 272 b 326 251 467 258 408 251 b 44 515 133 251 44 339 "},"ш":{"ha":1064,"x_min":0,"x_max":0,"o":"m 944 717 b 978 683 971 717 978 710 l 978 33 b 944 0 978 7 971 0 l 119 0 b 86 33 93 0 86 7 l 86 683 b 119 717 86 706 97 717 l 178 717 b 211 683 204 717 211 710 l 211 115 l 469 115 l 469 683 b 503 717 469 710 476 717 l 561 717 b 594 683 588 717 594 710 l 594 115 l 854 115 l 854 683 b 886 717 854 710 863 717 "},"щ":{"ha":1106,"x_min":0,"x_max":0,"o":"m 1047 115 b 1081 81 1074 115 1081 107 l 1081 -160 b 1047 -193 1081 -183 1074 -193 l 994 -193 b 960 -160 971 -193 960 -182 l 960 0 l 119 0 b 86 33 93 0 86 7 l 86 683 b 119 717 86 706 97 717 l 178 717 b 211 683 204 717 211 710 l 211 115 l 469 115 l 469 683 b 503 717 469 710 476 717 l 561 717 b 594 683 588 717 594 710 l 594 115 l 854 115 l 854 683 b 886 717 854 710 863 717 l 944 717 b 978 683 971 717 978 710 l 978 115 "},"ъ":{"ha":849,"x_min":0,"x_max":0,"o":"m 556 500 b 811 251 715 500 811 407 b 556 0 811 94 715 0 l 249 0 b 217 33 225 0 217 10 l 217 601 l 53 601 b 19 635 26 601 19 611 l 19 683 b 53 717 19 710 26 717 l 307 717 b 340 683 331 717 340 710 l 340 500 m 540 111 b 682 251 629 111 682 164 b 540 388 682 336 629 388 l 340 388 l 340 111 "},"ы":{"ha":983,"x_min":0,"x_max":0,"o":"m 426 500 b 682 251 586 500 682 407 b 426 0 682 94 586 0 l 119 0 b 86 33 93 0 86 7 l 86 683 b 119 717 86 710 93 717 l 178 717 b 211 683 204 717 211 710 l 211 500 m 864 717 b 897 683 890 717 897 710 l 897 33 b 864 0 897 7 890 0 l 806 0 b 772 33 779 0 772 7 l 772 683 b 806 717 772 710 779 717 m 411 111 b 551 251 499 111 551 164 b 411 388 551 336 499 388 l 211 388 l 211 111 "},"ь":{"ha":719,"x_min":0,"x_max":0,"o":"m 426 500 b 682 251 586 500 682 407 b 426 0 682 94 586 0 l 119 0 b 86 33 93 0 86 7 l 86 683 b 119 717 86 710 93 717 l 178 717 b 211 683 204 717 211 710 l 211 500 m 411 111 b 551 251 499 111 551 164 b 411 388 551 336 499 388 l 211 388 l 211 111 "},"э":{"ha":711,"x_min":0,"x_max":0,"o":"m 63 551 b 354 738 101 675 199 738 b 663 458 560 738 663 635 l 663 260 b 363 -21 663 82 563 -21 b 60 171 207 -21 106 43 b 82 218 50 194 58 210 l 131 233 b 178 211 154 240 169 233 b 358 90 204 131 265 90 b 538 254 475 90 538 150 l 538 308 l 289 310 b 257 343 265 310 257 319 l 257 386 b 289 419 257 410 265 419 l 538 419 l 538 464 b 358 628 538 569 476 628 b 179 511 265 628 206 589 b 132 489 169 488 154 479 l 85 504 b 63 551 61 511 54 528 "},"ю":{"ha":1042,"x_min":0,"x_max":0,"o":"m 368 474 b 672 738 368 639 479 738 b 978 474 867 738 978 639 l 978 243 b 672 -21 978 78 867 -21 b 368 243 479 -21 368 78 l 368 306 l 211 306 l 211 33 b 178 0 211 7 204 0 l 119 0 b 86 33 97 0 86 11 l 86 683 b 119 717 86 710 93 717 l 178 717 b 211 683 204 717 211 710 l 211 421 l 368 421 m 853 474 b 672 625 853 569 788 625 b 493 474 560 625 493 569 l 493 243 b 672 92 493 149 560 92 b 853 243 785 92 853 149 "},"я":{"ha":733,"x_min":0,"x_max":0,"o":"m 617 717 b 651 683 640 717 651 706 l 651 33 b 618 0 651 7 644 0 l 560 0 b 526 33 533 0 526 7 l 526 246 l 339 246 l 201 29 b 140 0 186 3 178 0 l 89 0 b 64 39 50 0 46 13 l 213 263 b 60 481 117 290 60 369 b 300 717 60 626 151 717 m 315 606 b 189 481 238 606 189 557 b 315 358 189 404 238 358 l 526 358 l 526 606 "},"ё":{"ha":742,"x_min":0,"x_max":0,"o":"m 243 968 b 301 911 288 968 301 954 l 301 900 b 243 842 301 856 288 842 l 233 842 b 176 900 190 842 176 856 l 176 911 b 233 968 176 954 190 968 m 517 968 b 574 911 560 968 574 954 l 574 900 b 517 842 574 856 560 842 l 507 842 b 449 900 463 842 449 856 l 449 911 b 507 968 449 954 463 968 m 61 440 b 375 738 61 629 171 738 b 689 450 581 738 689 622 l 689 369 b 638 321 689 338 672 321 l 185 321 l 185 254 b 371 88 185 147 250 88 b 564 183 461 88 526 119 b 618 196 581 207 594 211 l 656 176 b 668 122 679 164 683 146 b 369 -21 614 26 514 -21 b 61 268 163 -21 61 90 m 565 457 b 375 632 565 568 499 632 b 185 457 251 632 185 567 l 185 417 l 565 417 "},"Ẁ":{"ha":1236,"x_min":0,"x_max":0,"o":"m 506 1243 b 567 1246 518 1261 539 1261 l 783 1117 b 786 1082 799 1108 800 1097 l 771 1061 b 728 1058 764 1051 749 1051 l 482 1172 b 478 1210 464 1179 463 1192 m 1185 986 b 1210 950 1211 986 1215 976 l 969 31 b 924 0 964 7 951 0 l 865 0 b 819 29 839 0 824 10 l 653 647 b 628 792 640 693 632 742 l 619 792 b 593 647 615 743 607 696 l 425 31 b 379 0 419 10 404 0 l 321 0 b 275 29 294 0 279 10 l 36 950 b 60 986 29 976 33 986 l 133 986 b 182 954 165 986 176 981 l 326 353 b 350 186 335 311 343 256 l 357 186 b 386 351 368 267 378 322 l 550 943 b 599 975 557 964 572 975 l 657 975 b 706 943 683 975 700 964 l 868 351 b 897 186 882 297 892 243 l 904 186 b 929 350 911 257 919 311 l 1072 954 b 1121 986 1078 981 1089 986 "},"ẁ":{"ha":1018,"x_min":0,"x_max":0,"o":"m 394 1003 b 456 1006 408 1018 429 1019 l 671 874 b 674 838 686 867 686 854 l 657 817 b 615 815 650 807 636 807 l 372 932 b 367 969 351 940 350 950 m 964 717 b 992 678 996 717 1001 707 l 794 26 b 750 -3 790 7 775 -3 l 713 -3 b 665 26 689 -3 672 7 l 542 436 b 515 565 528 486 517 560 l 510 565 b 483 436 508 563 497 486 l 360 26 b 314 -3 354 7 339 -3 l 278 -3 b 232 26 253 -3 238 7 l 38 678 b 65 717 26 707 32 717 l 107 717 b 165 683 147 717 160 711 l 269 307 b 288 215 275 286 281 256 b 297 151 293 175 296 154 l 303 151 b 315 217 304 156 308 176 b 335 308 322 256 328 286 l 449 672 b 504 707 458 701 465 707 l 529 707 b 583 674 567 707 574 701 l 699 311 b 721 214 706 286 714 254 b 731 151 728 174 731 153 l 738 151 b 747 213 739 153 742 174 b 764 310 751 250 757 283 l 868 683 b 928 717 875 711 888 717 "},"Ẃ":{"ha":1236,"x_min":0,"x_max":0,"o":"m 694 1250 b 756 1249 721 1265 740 1265 l 783 1215 b 778 1176 799 1197 800 1185 l 535 1061 b 492 1063 514 1053 499 1053 l 476 1083 b 479 1118 461 1101 463 1108 m 1185 986 b 1210 950 1211 986 1215 976 l 969 31 b 924 0 964 7 951 0 l 865 0 b 819 29 839 0 824 10 l 653 647 b 628 792 640 693 632 742 l 619 792 b 593 647 615 743 607 696 l 425 31 b 379 0 419 10 404 0 l 321 0 b 275 29 294 0 279 10 l 36 950 b 60 986 29 976 33 986 l 133 986 b 182 954 165 986 176 981 l 326 353 b 350 186 335 311 343 256 l 357 186 b 386 351 368 267 378 322 l 550 943 b 599 975 557 964 572 975 l 657 975 b 706 943 683 975 700 964 l 868 351 b 897 186 882 297 892 243 l 904 186 b 929 350 911 257 919 311 l 1072 954 b 1121 986 1078 981 1089 986 "}}}
